<svg width="117" height="106" viewBox="0 0 117 106" fill="none" xmlns="http://www.w3.org/2000/svg">
<path d="M105.234 11.2729H11.1862C6.76791 11.2729 3.18619 14.8547 3.18619 19.2729V94.188C3.18619 98.6062 6.76792 102.188 11.1862 102.188H105.234C109.652 102.188 113.234 98.6062 113.234 94.188V19.2729C113.234 14.8547 109.652 11.2729 105.234 11.2729Z" fill="#E4EEBB" stroke="#2F459A" stroke-width="6" stroke-miterlimit="10"/>
<path d="M115.999 25.8254H0.0861893V33.0299H115.999V25.8254Z" fill="#304B9C"/>
<path d="M0.0862472 25.8271C0.0862472 25.8271 -0.617942 37.0478 1.99799 40.9908V33.4084" fill="#243E82"/>
<path d="M114.088 41.6627C114.088 41.6627 113.383 30.442 116 26.4985V34.0803" fill="#243E82"/>
<path d="M21.3795 16.9703C21.3795 18.7864 19.9601 20.2592 18.2096 20.2592C16.4592 20.2592 15.0397 18.787 15.0397 16.9703V3.5014C15.0397 1.68525 16.4592 0.212524 18.2096 0.212524C19.9601 0.212524 21.3795 1.68525 21.3795 3.5014V16.9703Z" fill="#4362AD"/>
<path d="M54.4947 16.9665C54.4947 18.7826 53.0757 20.2554 51.3247 20.2554C49.5743 20.2554 48.1548 18.7832 48.1548 16.9665V3.49762C48.1548 1.68146 49.5738 0.20874 51.3247 0.20874C53.0752 0.20874 54.4947 1.68146 54.4947 3.49762V16.9665Z" fill="#4362AD"/>
<path d="M37.495 16.9665C37.495 18.7826 36.0761 20.2554 34.3251 20.2554C32.5747 20.2554 31.1552 18.7832 31.1552 16.9665V3.49762C31.1552 1.68146 32.5747 0.20874 34.3251 0.20874C36.0756 0.20874 37.495 1.68146 37.495 3.49762V16.9665Z" fill="#4362AD"/>
<path d="M70.8344 16.9665C70.8344 18.7826 69.4155 20.2554 67.6645 20.2554C65.9141 20.2554 64.4941 18.7832 64.4941 16.9665V3.49762C64.4941 1.68146 65.9135 0.20874 67.6645 0.20874C69.415 0.20874 70.8344 1.68146 70.8344 3.49762V16.9665Z" fill="#4362AD"/>
<path d="M103.949 16.9665C103.949 18.7826 102.53 20.2554 100.779 20.2554C99.0285 20.2554 97.609 18.7832 97.609 16.9665V3.49762C97.609 1.68146 99.0279 0.20874 100.779 0.20874C102.529 0.20874 103.949 1.68146 103.949 3.49762V16.9665Z" fill="#4362AD"/>
<path d="M86.9497 16.9665C86.9497 18.7826 85.5308 20.2554 83.7798 20.2554C82.0294 20.2554 80.6094 18.7832 80.6094 16.9665V3.49762C80.6094 1.68146 82.0289 0.20874 83.7798 0.20874C85.5303 0.20874 86.9497 1.68146 86.9497 3.49762V16.9665Z" fill="#4362AD"/>
<path d="M22.0388 16.9665C22.0388 18.7826 20.6193 20.2554 18.8689 20.2554C17.1184 20.2554 15.699 18.7832 15.699 16.9665V3.49762C15.699 1.68146 17.1179 0.20874 18.8689 0.20874C20.6193 0.20874 22.0388 1.68146 22.0388 3.49762V16.9665Z" fill="#25346E"/>
<path d="M55.153 16.9665C55.153 18.7826 53.734 20.2554 51.983 20.2554C50.2321 20.2554 48.8126 18.7832 48.8126 16.9665V3.49762C48.8126 1.68146 50.2315 0.20874 51.983 0.20874C53.7335 0.20874 55.153 1.68146 55.153 3.49762V16.9665Z" fill="#25346E"/>
<path d="M38.1527 16.9665C38.1527 18.7826 36.7333 20.2554 34.9828 20.2554C33.2324 20.2554 31.8129 18.7832 31.8129 16.9665V3.49762C31.8129 1.68146 33.2318 0.20874 34.9828 0.20874C36.7333 0.20874 38.1527 1.68146 38.1527 3.49762V16.9665Z" fill="#25346E"/>
<path d="M71.4921 16.9665C71.4921 18.7826 70.0727 20.2554 68.3217 20.2554C66.5712 20.2554 65.1518 18.7832 65.1518 16.9665V3.49762C65.1518 1.68146 66.5707 0.20874 68.3217 0.20874C70.0722 0.20874 71.4921 1.68146 71.4921 3.49762V16.9665Z" fill="#25346E"/>
<path d="M104.607 16.9665C104.607 18.7826 103.188 20.2554 101.437 20.2554C99.6862 20.2554 98.2667 18.7832 98.2667 16.9665V3.49762C98.2667 1.68146 99.6857 0.20874 101.437 0.20874C103.187 0.20874 104.607 1.68146 104.607 3.49762V16.9665Z" fill="#25346E"/>
<path d="M87.6074 16.9665C87.6074 18.7826 86.1879 20.2554 84.437 20.2554C82.6865 20.2554 81.267 18.7832 81.267 16.9665V3.49762C81.267 1.68146 82.686 0.20874 84.437 0.20874C86.1874 0.20874 87.6074 1.68146 87.6074 3.49762V16.9665Z" fill="#25346E"/>
<path d="M52.7671 86.8503L52.3854 70.4485L37.4942 70.3698C37.4942 70.3698 32.8374 68.231 34.2884 60.3085C34.2884 60.3085 34.7976 58.0269 36.9476 56.8265C32.7773 58.1314 32.4805 62.3964 32.4805 62.3964C32.0984 70.0832 36.2987 71.825 36.2987 71.825H50.8068L51.2902 87.985C51.2902 87.985 59.0795 96.1252 66.3859 86.4018L66.3591 86.3269C65.7276 87.209 61.1145 93.0031 52.7671 86.8503Z" fill="black"/>
<path d="M52.3849 39.8675C52.3849 39.8675 52.4113 39.8439 52.4608 39.8018V39.7362C51.6465 40.3985 51.3408 41.3927 51.3408 41.3927V50.4412V51.2134V56.1013C51.9864 56.1068 52.3849 56.1101 52.3849 56.1101V39.8675Z" fill="black"/>
<path d="M66.5815 71.4018H79.9226C79.9226 71.4018 80.6384 71.1372 80.8434 70.6078H66.5889L66.5815 71.4018Z" fill="black"/>
<path d="M80.869 56.1099H65.9777V40.581C59.1841 34.5741 53.1943 39.1925 52.4606 39.8022C52.411 39.8443 52.3847 39.8678 52.3847 39.8678V56.1099C52.3847 56.1099 51.9857 56.1066 51.3405 56.1011C49.0303 56.0826 43.3662 56.0476 39.7852 56.1099C38.6135 56.1301 37.6853 56.4156 36.9473 56.8274C34.7974 58.0278 34.2882 60.3093 34.2882 60.3093C32.8371 68.2318 37.4939 70.3706 37.4939 70.3706L52.3852 70.4494L52.7668 86.8511C61.1143 93.004 65.7279 87.2093 66.3588 86.3278C66.4084 86.2578 66.4363 86.2162 66.4363 86.2162L66.5807 71.4026L66.5881 70.6085H80.8427H80.869C86.8842 63.5894 80.869 56.1099 80.869 56.1099Z" fill="black"/>
<path d="M79.5265 60.0454C79.8645 60.0454 80.1384 59.7751 80.1384 59.4416C80.1384 59.1082 79.8645 58.8379 79.5265 58.8379C79.1885 58.8379 78.9145 59.1082 78.9145 59.4416C78.9145 59.7751 79.1885 60.0454 79.5265 60.0454Z" fill="black"/>
<path d="M76.1132 60.0454C76.4517 60.0454 76.7262 59.7751 76.7262 59.4416C76.7262 59.1082 76.4517 58.8379 76.1132 58.8379C75.7746 58.8379 75.5002 59.1082 75.5002 59.4416C75.5002 59.7751 75.7746 60.0454 76.1132 60.0454Z" fill="black"/>
<path d="M72.9854 60.0454C73.3234 60.0454 73.5974 59.7751 73.5974 59.4416C73.5974 59.1082 73.3234 58.8379 72.9854 58.8379C72.6475 58.8379 72.3735 59.1082 72.3735 59.4416C72.3735 59.7751 72.6475 60.0454 72.9854 60.0454Z" fill="black"/>
<path d="M69.5733 60.05C69.9113 60.05 70.1853 59.7797 70.1853 59.4463C70.1853 59.1128 69.9113 58.8425 69.5733 58.8425C69.2353 58.8425 68.9614 59.1128 68.9614 59.4463C68.9614 59.7797 69.2353 60.05 69.5733 60.05Z" fill="black"/>
<path d="M78.5767 63.0303C78.5767 63.3627 78.3021 63.6324 77.9632 63.6324C77.6243 63.6324 77.3513 63.3633 77.3513 63.0303C77.3513 62.6956 77.6248 62.4265 77.9632 62.4265C78.3016 62.4265 78.5767 62.6956 78.5767 63.0303Z" fill="black"/>
<path d="M75.1624 63.0303C75.1624 63.3627 74.8888 63.6324 74.5504 63.6324C74.212 63.6324 73.9369 63.3633 73.9369 63.0303C73.9369 62.6956 74.2115 62.4265 74.5504 62.4265C74.8894 62.4265 75.1624 62.6956 75.1624 63.0303Z" fill="black"/>
<path d="M72.0341 63.0303C72.0341 63.3627 71.7606 63.6324 71.4222 63.6324C71.0838 63.6324 70.8102 63.3633 70.8102 63.0303C70.8102 62.6956 71.0838 62.4265 71.4222 62.4265C71.7606 62.4265 72.0341 62.6956 72.0341 63.0303Z" fill="black"/>
<path d="M68.6212 63.0303C68.6212 63.3627 68.3476 63.6324 68.0093 63.6324C67.6709 63.6324 67.3952 63.3633 67.3952 63.0303C67.3952 62.6956 67.6703 62.4265 68.0093 62.4265C68.3482 62.4265 68.6212 62.6956 68.6212 63.0303Z" fill="black"/>
<path d="M82.354 63.0303C82.354 63.3628 82.0804 63.6324 81.742 63.6324C81.4036 63.6324 81.1285 63.3633 81.1285 63.0303C81.1285 62.6956 81.4036 62.4265 81.742 62.4265C82.0809 62.426 82.354 62.6956 82.354 63.0303Z" fill="black"/>
<path d="M80.1384 67.1728C80.1384 67.5053 79.8649 67.7749 79.5265 67.7749C79.1881 67.7749 78.9145 67.5059 78.9145 67.1728C78.9145 66.8376 79.1881 66.5691 79.5265 66.5691C79.8649 66.5691 80.1384 66.8376 80.1384 67.1728Z" fill="black"/>
<path d="M76.7276 67.1728C76.7276 67.5053 76.4535 67.7749 76.1157 67.7749C75.7768 67.7749 75.5016 67.5059 75.5016 67.1728C75.5016 66.8376 75.7768 66.5691 76.1157 66.5691C76.4535 66.5691 76.7276 66.8376 76.7276 67.1728Z" fill="black"/>
<path d="M73.5974 67.1728C73.5974 67.5053 73.3238 67.7749 72.9854 67.7749C72.647 67.7749 72.3735 67.5059 72.3735 67.1728C72.3735 66.8376 72.647 66.5691 72.9854 66.5691C73.3238 66.5691 73.5974 66.8376 73.5974 67.1728Z" fill="black"/>
<path d="M70.1847 67.1745C70.1847 67.507 69.9112 67.7767 69.5733 67.7767C69.2344 67.7767 68.9614 67.5076 68.9614 67.1745C68.9614 66.8393 69.2349 66.5708 69.5733 66.5708C69.9112 66.5708 70.1847 66.8393 70.1847 67.1745Z" fill="black"/>
<path d="M56.0949 42.6817C56.4159 42.6899 56.67 42.9808 56.6605 43.3319C56.6537 43.6836 56.3859 43.9608 56.0644 43.9543C55.7439 43.9444 55.4893 43.654 55.4988 43.3029C55.5078 42.9513 55.774 42.6735 56.0949 42.6817Z" fill="black"/>
<path d="M56.0127 46.2216C56.3332 46.2309 56.5878 46.5218 56.5783 46.8713C56.5715 47.2224 56.3053 47.5024 55.9843 47.4936C55.6617 47.486 55.4077 47.1934 55.4166 46.8439C55.4235 46.4923 55.6912 46.2139 56.0127 46.2216Z" fill="black"/>
<path d="M55.936 49.4668C56.258 49.4744 56.5126 49.7654 56.5036 50.1165C56.4947 50.4675 56.2285 50.7454 55.9075 50.7383C55.5844 50.729 55.3325 50.4386 55.3414 50.0875C55.3504 49.7364 55.615 49.4575 55.936 49.4668Z" fill="black"/>
<path d="M55.8555 53.0078C56.1759 53.0149 56.43 53.3042 56.4215 53.6575C56.4126 54.0075 56.1475 54.2847 55.827 54.2782C55.5044 54.2705 55.2504 53.9779 55.2593 53.6269C55.2667 53.2769 55.5345 52.9985 55.8555 53.0078Z" fill="black"/>
<path d="M59.9673 43.6686C60.2877 43.6763 60.5418 43.9689 60.5328 44.3183C60.5255 44.6716 60.2582 44.9472 59.9367 44.9401C59.6157 44.9308 59.3617 44.6399 59.3706 44.2893C59.3796 43.9393 59.6457 43.6604 59.9673 43.6686Z" fill="black"/>
<path d="M59.885 47.2074C60.2055 47.2167 60.4596 47.5071 60.4527 47.8582C60.4432 48.2098 60.1776 48.4854 59.8545 48.4783C59.5335 48.4712 59.2794 48.1803 59.2884 47.8287C59.2979 47.4776 59.564 47.2003 59.885 47.2074Z" fill="black"/>
<path d="M59.8094 50.4531C60.132 50.4608 60.3861 50.7511 60.3771 51.1044C60.3682 51.4539 60.1025 51.7317 59.781 51.7229C59.4605 51.7153 59.2043 51.4243 59.2133 51.0733C59.2223 50.7238 59.489 50.4438 59.8094 50.4531Z" fill="black"/>
<path d="M60.2983 54.6458C60.3066 54.2947 60.0531 54.0034 59.7321 53.9953C59.4111 53.9871 59.1442 54.2652 59.1359 54.6164C59.1277 54.9675 59.3812 55.2588 59.7022 55.2669C60.0231 55.275 60.2901 54.997 60.2983 54.6458Z" fill="black"/>
<path d="M60.6241 40.4021C60.6319 40.0509 60.3778 39.76 60.0565 39.7523C59.7353 39.7446 59.4685 40.023 59.4606 40.3742C59.4528 40.7253 59.7069 41.0163 60.0282 41.024C60.3495 41.0317 60.6163 40.7532 60.6241 40.4021Z" fill="black"/>
<path d="M63.437 42.8814C63.758 42.8902 64.0125 43.18 64.0036 43.5311C63.9946 43.8822 63.729 44.16 63.4085 44.1512C63.0854 44.1436 62.8313 43.8526 62.8403 43.5016C62.8477 43.1505 63.1154 42.8732 63.437 42.8814Z" fill="black"/>
<path d="M63.9231 47.0727C63.9314 46.7222 63.6774 46.4314 63.3558 46.4233C63.0343 46.4151 62.7669 46.6927 62.7586 47.0432C62.7504 47.3938 63.0044 47.6846 63.326 47.6927C63.6475 47.7009 63.9149 47.4233 63.9231 47.0727Z" fill="black"/>
<path d="M63.2792 49.6659C63.5991 49.6736 63.8532 49.964 63.8463 50.3156C63.8353 50.6672 63.5712 50.945 63.2491 50.9357C62.9287 50.9286 62.6746 50.6377 62.6815 50.2861C62.6904 49.935 62.9571 49.6588 63.2792 49.6659Z" fill="black"/>
<path d="M63.1969 53.2049C63.5179 53.2142 63.7714 53.5051 63.7641 53.8562C63.7551 54.2056 63.4884 54.4834 63.1669 54.4763C62.8464 54.4687 62.5918 54.1783 62.6008 53.825C62.6082 53.4756 62.8759 53.1972 63.1969 53.2049Z" fill="black"/>
<path d="M56.3061 73.901C56.6287 73.895 56.8933 74.1733 56.9022 74.5233C56.9075 74.8766 56.6535 75.1659 56.3325 75.173C56.0099 75.1801 55.7437 74.9001 55.7384 74.549C55.7316 74.1974 55.9851 73.9081 56.3061 73.901Z" fill="black"/>
<path d="M56.3774 77.4403C56.6984 77.4332 56.9646 77.7132 56.972 78.0627C56.9788 78.4143 56.7248 78.7052 56.4022 78.7107C56.0812 78.7184 55.8166 78.44 55.8097 78.0862C55.8008 77.7367 56.0564 77.448 56.3774 77.4403Z" fill="black"/>
<path d="M56.4412 80.6864C56.7622 80.6771 57.0284 80.9571 57.0342 81.3087C57.0432 81.6587 56.787 81.9491 56.4644 81.9562C56.1455 81.9639 55.8794 81.6839 55.872 81.3328C55.8646 80.9806 56.1192 80.6919 56.4412 80.6864Z" fill="black"/>
<path d="M56.5129 84.2254C56.8333 84.2177 57.0979 84.4983 57.1053 84.8477C57.1122 85.1993 56.8581 85.4897 56.5355 85.4974C56.2151 85.5051 55.9505 85.2251 55.9415 84.8734C55.9341 84.5218 56.1903 84.2303 56.5129 84.2254Z" fill="black"/>
<path d="M55.976 60.046C56.297 60.0405 56.5648 60.3183 56.5706 60.67C56.5774 61.0216 56.3234 61.3103 56.0029 61.318C55.6798 61.3257 55.4157 61.0451 55.4067 60.6957C55.3999 60.3424 55.655 60.0531 55.976 60.046Z" fill="black"/>
<path d="M56.6378 64.2067C56.631 63.8558 56.3647 63.5768 56.0431 63.5836C55.7215 63.5903 55.4663 63.8802 55.4732 64.2311C55.48 64.582 55.7463 64.861 56.0679 64.8542C56.3895 64.8475 56.6446 64.5576 56.6378 64.2067Z" fill="black"/>
<path d="M56.1101 66.8304C56.4305 66.8244 56.6973 67.1044 56.7041 67.4544C56.7115 67.806 56.4569 68.0948 56.1364 68.1024C55.8139 68.1095 55.5493 67.8296 55.5424 67.4801C55.535 67.1285 55.7891 66.8375 56.1101 66.8304Z" fill="black"/>
<path d="M56.1801 70.3708C56.5006 70.3653 56.7673 70.6437 56.7742 70.9948C56.7815 71.3464 56.527 71.6352 56.2065 71.6428C55.8839 71.6505 55.6177 71.3705 55.6119 71.0188C55.603 70.6694 55.8591 70.3774 56.1801 70.3708Z" fill="black"/>
<path d="M59.7433 72.2771C60.0643 72.27 60.3305 72.55 60.3379 72.9011C60.3453 73.2527 60.0907 73.5415 59.7702 73.5491C59.4476 73.5568 59.1831 73.2768 59.1741 72.9268C59.1667 72.5735 59.4223 72.2842 59.7433 72.2771Z" fill="black"/>
<path d="M59.813 75.8179C60.134 75.8108 60.4002 76.0908 60.4075 76.4424C60.4149 76.7919 60.1588 77.0828 59.8378 77.0899C59.5168 77.0976 59.2506 76.8176 59.2437 76.4659C59.2364 76.1143 59.492 75.825 59.813 75.8179Z" fill="black"/>
<path d="M59.8781 79.062C60.1985 79.0565 60.4652 79.3343 60.4721 79.686C60.4795 80.0376 60.2254 80.3285 59.9044 80.334C59.5818 80.3416 59.3172 80.0616 59.3104 79.7117C59.303 79.36 59.5565 79.0691 59.8781 79.062Z" fill="black"/>
<path d="M59.9475 82.602C60.268 82.5943 60.5347 82.8743 60.5416 83.2265C60.5474 83.5776 60.2944 83.8663 59.9723 83.874C59.6513 83.8816 59.3851 83.6016 59.3799 83.2522C59.3725 82.9005 59.626 82.6096 59.9475 82.602Z" fill="black"/>
<path d="M59.6171 57.7885C59.9381 57.7814 60.2043 58.0614 60.2117 58.4108C60.217 58.7641 59.965 59.0534 59.6419 59.0605C59.3214 59.0665 59.0553 58.7881 59.0479 58.4365C59.0421 58.0849 59.2946 57.7961 59.6171 57.7885Z" fill="black"/>
<path d="M59.6858 61.3277C60.0084 61.3222 60.2746 61.6001 60.2819 61.9517C60.2893 62.3033 60.0332 62.5943 59.7122 62.5997C59.3917 62.6074 59.125 62.3274 59.1181 61.9779C59.1108 61.6258 59.3648 61.3348 59.6858 61.3277Z" fill="black"/>
<path d="M59.7511 64.5734C60.0721 64.5657 60.3383 64.8457 60.3457 65.1974C60.3525 65.549 60.0985 65.8378 59.7759 65.8454C59.4549 65.8531 59.1887 65.5731 59.1834 65.2214C59.1745 64.8698 59.4296 64.5811 59.7511 64.5734Z" fill="black"/>
<path d="M59.8211 68.1137C60.1421 68.106 60.4083 68.3844 60.4156 68.7382C60.4225 69.0877 60.1668 69.3786 59.8459 69.3857C59.5233 69.3912 59.2587 69.1134 59.2513 68.7617C59.245 68.4101 59.5006 68.1208 59.8211 68.1137Z" fill="black"/>
<path d="M63.8564 70.8212C63.8502 70.47 63.5853 70.1903 63.2649 70.1965C62.9444 70.2026 62.6898 70.4923 62.696 70.8435C62.7023 71.1947 62.9671 71.4744 63.2876 71.4682C63.608 71.4621 63.8627 71.1724 63.8564 70.8212Z" fill="black"/>
<path d="M63.9347 74.3639C63.928 74.0127 63.6626 73.7334 63.3419 73.7399C63.0211 73.7465 62.7665 74.0365 62.7732 74.3877C62.7799 74.7389 63.0453 75.0182 63.366 75.0117C63.6868 75.0051 63.9414 74.7151 63.9347 74.3639Z" fill="black"/>
<path d="M63.4141 77.6165C63.7356 77.6088 64.0023 77.8888 64.0092 78.241C64.015 78.5921 63.762 78.8809 63.4405 78.8869C63.1179 78.8962 62.8533 78.6162 62.8464 78.2645C62.8391 77.9129 63.0926 77.6236 63.4141 77.6165Z" fill="black"/>
<path d="M63.4849 81.1549C63.8049 81.1494 64.0727 81.4278 64.0784 81.7788C64.0874 82.1305 63.8312 82.4214 63.5097 82.4269C63.1887 82.4345 62.9241 82.1562 62.9173 81.8045C62.9099 81.4535 63.1634 81.1625 63.4849 81.1549Z" fill="black"/>
<path d="M63.1646 56.9772C63.4856 56.9701 63.7513 57.2479 63.7602 57.6001C63.7655 57.9512 63.5125 58.2421 63.1899 58.2476C62.8689 58.2552 62.6028 57.9752 62.597 57.6252C62.5901 57.2725 62.8442 56.9832 63.1646 56.9772Z" fill="black"/>
<path d="M63.9347 60.6741C63.928 60.3229 63.6626 60.0435 63.3419 60.0501C63.0211 60.0567 62.7665 60.3467 62.7732 60.6979C62.7799 61.049 63.0453 61.3284 63.366 61.3219C63.6868 61.3153 63.9414 61.0253 63.9347 60.6741Z" fill="black"/>
<path d="M63.8933 64.3831C63.8865 64.0325 63.62 63.7538 63.2981 63.7606C62.9762 63.7673 62.7208 64.057 62.7276 64.4076C62.7344 64.7581 63.0009 65.0369 63.3228 65.0301C63.6447 65.0234 63.9001 64.7337 63.8933 64.3831Z" fill="black"/>
<path d="M63.9581 67.9206C63.9512 67.5694 63.6855 67.2901 63.3644 67.2969C63.0434 67.3036 62.7887 67.5937 62.7956 67.9449C62.8024 68.2961 63.0682 68.5754 63.3892 68.5686C63.7102 68.5619 63.9649 68.2717 63.9581 67.9206Z" fill="black"/>
<path d="M63.4849 84.8894C63.8049 84.8818 64.0727 85.1618 64.0784 85.5134C64.0874 85.865 63.8312 86.1538 63.5097 86.1614C63.1887 86.1686 62.9241 85.8886 62.9173 85.5375C62.9099 85.1875 63.1634 84.8965 63.4849 84.8894Z" fill="black"/>
<path d="M55.9859 56.341C56.3069 56.3333 56.5731 56.6117 56.5784 56.965C56.5878 57.315 56.3317 57.6053 56.0107 57.6114C55.6902 57.6207 55.4235 57.3407 55.4167 56.989C55.4093 56.6374 55.6654 56.3486 55.9859 56.341Z" fill="black"/>
<path d="M49.4542 59.4421C49.4542 59.7752 49.179 60.0459 48.8401 60.0459C48.5033 60.0459 48.2287 59.7752 48.2287 59.4421C48.2287 59.1096 48.5033 58.8384 48.8401 58.8384C49.179 58.8389 49.4542 59.1096 49.4542 59.4421Z" fill="black"/>
<path d="M46.0426 59.4421C46.0426 59.7752 45.7691 60.0459 45.4291 60.0459C45.0923 60.0459 44.8171 59.7752 44.8171 59.4421C44.8171 59.1096 45.0923 58.8384 45.4291 58.8384C45.7691 58.8389 46.0426 59.1096 46.0426 59.4421Z" fill="black"/>
<path d="M42.3006 60.0459C42.6391 60.0459 42.9136 59.7756 42.9136 59.4421C42.9136 59.1087 42.6391 58.8384 42.3006 58.8384C41.962 58.8384 41.6876 59.1087 41.6876 59.4421C41.6876 59.7756 41.962 60.0459 42.3006 60.0459Z" fill="black"/>
<path d="M39.5025 59.4468C39.5025 59.7798 39.2273 60.0505 38.8905 60.0505C38.55 60.0505 38.2765 59.7798 38.2765 59.4468C38.2765 59.1143 38.55 58.843 38.8905 58.843C39.2273 58.8436 39.5025 59.1143 39.5025 59.4468Z" fill="black"/>
<path d="M44.4788 63.0303C44.4788 63.3628 44.2037 63.6324 43.8648 63.6324C43.528 63.6324 43.2528 63.3633 43.2528 63.0303C43.2528 62.6956 43.528 62.4265 43.8648 62.4265C44.2037 62.426 44.4788 62.6956 44.4788 63.0303Z" fill="black"/>
<path d="M41.3508 63.0303C41.3508 63.3628 41.0772 63.6324 40.7389 63.6324C40.3984 63.6324 40.1248 63.3633 40.1248 63.0303C40.1248 62.6956 40.3984 62.4265 40.7389 62.4265C41.0772 62.426 41.3508 62.6956 41.3508 63.0303Z" fill="black"/>
<path d="M52.8959 66.8944C52.8959 67.2274 52.6224 67.4965 52.2824 67.4965C51.9451 67.4965 51.6705 67.228 51.6705 66.8944C51.6705 66.5619 51.9451 66.2906 52.2824 66.2906C52.6224 66.2912 52.8959 66.5619 52.8959 66.8944Z" fill="black"/>
<path d="M51.6713 63.0303C51.6713 63.3628 51.3962 63.6324 51.0594 63.6324C50.7204 63.6324 50.4458 63.3633 50.4458 63.0303C50.4458 62.6956 50.7204 62.4265 51.0594 62.4265C51.3956 62.426 51.6713 62.6956 51.6713 63.0303Z" fill="black"/>
<path d="M49.4542 66.8944C49.4542 67.2274 49.179 67.4965 48.8401 67.4965C48.5033 67.4965 48.2287 67.228 48.2287 66.8944C48.2287 66.5619 48.5033 66.2906 48.8401 66.2906C49.179 66.2912 49.4542 66.5619 49.4542 66.8944Z" fill="black"/>
<path d="M46.0426 66.8944C46.0426 67.2274 45.7691 67.4965 45.4291 67.4965C45.0923 67.4965 44.8171 67.228 44.8171 66.8944C44.8171 66.5619 45.0923 66.2906 45.4291 66.2906C45.7691 66.2912 46.0426 66.5619 46.0426 66.8944Z" fill="black"/>
<path d="M42.3006 67.4969C42.6391 67.4969 42.9136 67.2274 42.9136 66.8948C42.9136 66.5623 42.6391 66.2927 42.3006 66.2927C41.962 66.2927 41.6876 66.5623 41.6876 66.8948C41.6876 67.2274 41.962 67.4969 42.3006 67.4969Z" fill="black"/>
<path d="M39.5025 66.8957C39.5025 67.2288 39.2273 67.4978 38.8905 67.4978C38.55 67.4978 38.2765 67.2293 38.2765 66.8957C38.2765 66.5632 38.55 66.292 38.8905 66.292C39.2273 66.2925 39.5025 66.5632 39.5025 66.8957Z" fill="black"/>
<path d="M52.8959 59.4421C52.8959 59.7752 52.6224 60.0459 52.2824 60.0459C51.9451 60.0459 51.6705 59.7752 51.6705 59.4421C51.6705 59.1096 51.9451 58.8384 52.2824 58.8384C52.6224 58.8389 52.8959 59.1096 52.8959 59.4421Z" fill="black"/>
<path d="M48.2292 63.0303C48.2292 63.3627 47.9556 63.6324 47.6172 63.6324C47.2788 63.6324 47.0032 63.3633 47.0032 63.0303C47.0032 62.6956 47.2783 62.4265 47.6172 62.4265C47.9561 62.4265 48.2292 62.6956 48.2292 63.0303Z" fill="black"/>
</svg>
