<svg width="125" height="131" viewBox="0 0 125 131" fill="none" xmlns="http://www.w3.org/2000/svg">
<path d="M122.79 51.376H1.953V54.693H122.79V51.376Z" fill="#2D499F"/>
<path d="M107.994 111.045H87.021V107.143H107.994C114.956 107.143 120.838 103.711 120.838 99.649V19.371C120.838 15.308 114.956 11.876 107.994 11.876H92.681V31.175C92.681 37.566 85.325 42.571 75.933 42.571H46.34C36.951 42.571 29.596 37.566 29.596 31.175V11.876H16.748C9.78502 11.876 3.901 15.308 3.901 19.371V99.648C3.901 103.711 9.78502 107.142 16.748 107.142H38.428V111.044H16.748C7.35702 111.044 0 106.038 0 99.648V19.371C0 12.98 7.35702 7.975 16.748 7.975H33.497V31.176C33.497 35.239 39.379 38.671 46.34 38.671H75.933C82.897 38.671 88.78 35.239 88.78 31.176V7.974H107.994C117.384 7.974 124.74 12.98 124.74 19.37V99.647C124.741 106.039 117.384 111.045 107.994 111.045Z" fill="#59AB46"/>
<path d="M32.895 16.668C37.3028 16.668 40.876 12.9367 40.876 8.334C40.876 3.73126 37.3028 0 32.895 0C28.4872 0 24.914 3.73126 24.914 8.334C24.914 12.9367 28.4872 16.668 32.895 16.668Z" fill="#2D499F"/>
<path d="M89.021 16.668C93.4282 16.668 97.001 12.9367 97.001 8.334C97.001 3.73126 93.4282 0 89.021 0C84.6138 0 81.041 3.73126 81.041 8.334C81.041 12.9367 84.6138 16.668 89.021 16.668Z" fill="#2D499F"/>
<path d="M79.681 104.012C75.868 104.012 72.765 100.952 72.765 97.192C72.765 93.43 75.868 90.37 79.681 90.37C83.495 90.37 86.598 93.431 86.598 97.192C86.598 100.952 83.495 104.012 79.681 104.012ZM79.681 92.852C77.237 92.852 75.248 94.798 75.248 97.191C75.248 99.582 77.236 101.529 79.681 101.529C82.126 101.529 84.115 99.582 84.115 97.191C84.115 94.799 82.126 92.852 79.681 92.852Z" fill="#223F93"/>
<path d="M79.681 99.465C80.959 99.465 81.995 98.4469 81.995 97.191C81.995 95.9351 80.959 94.917 79.681 94.917C78.403 94.917 77.367 95.9351 77.367 97.191C77.367 98.4469 78.403 99.465 79.681 99.465Z" fill="#59AD46"/>
<path d="M76.3 130.396H56.356C53.627 130.396 51.719 129.25 51.719 127.609V103.73C51.719 102.642 52.562 101.751 54.03 101.285L54.781 103.651C54.478 103.747 54.295 103.851 54.203 103.918V127.424C54.439 127.6 55.163 127.914 56.356 127.914H76.3C77.493 127.914 78.217 127.6 78.453 127.426V103.918C78.347 103.842 78.122 103.717 77.745 103.611L78.409 101.218C79.991 101.657 80.935 102.595 80.935 103.73V127.609C80.936 129.25 79.03 130.396 76.3 130.396Z" fill="#223F93"/>
<path d="M62.766 103.582H42.92C40.286 103.582 38.143 101.439 38.143 98.805V68.939C38.143 66.306 40.287 64.162 42.92 64.162H46.436V66.645H42.92C41.655 66.645 40.626 67.674 40.626 68.939V98.805C40.626 100.071 41.655 101.1 42.92 101.1H62.766C64.032 101.1 65.061 100.071 65.061 98.805V68.939C65.061 67.674 64.032 66.645 62.766 66.645H60.195V64.162H62.766C65.401 64.162 67.543 66.306 67.543 68.939V98.805C67.543 101.439 65.401 103.582 62.766 103.582Z" fill="#223F93"/>
<path d="M47.641 65.678C47.641 66.49 47.059 67.148 46.339 67.148C45.622 67.148 45.039 66.49 45.039 65.678V65.277C45.039 64.464 45.622 63.806 46.339 63.806C47.059 63.806 47.641 64.464 47.641 65.277V65.678Z" fill="#59AD46"/>
<path d="M60.941 65.678C60.941 66.49 60.36 67.148 59.641 67.148C58.923 67.148 58.34 66.49 58.34 65.678V65.277C58.34 64.464 58.923 63.806 59.641 63.806C60.36 63.806 60.941 64.464 60.941 65.277V65.678Z" fill="#59AD46"/>
</svg>
