<svg width="139" height="144" viewBox="0 0 139 144" fill="none" xmlns="http://www.w3.org/2000/svg">
<path d="M138.222 12.9449H119.383V34.3609H138.222V12.9449Z" fill="#C3D82E"/>
<path d="M138.413 34.5529H119.191V12.752H138.413V34.5529ZM119.574 34.1689H138.03V13.136H119.574V34.1689Z" fill="#91C740"/>
<path d="M138.525 51.949H119.687V73.367H138.525V51.949Z" fill="#3DB5DF"/>
<path d="M138.107 90.53H119.269V111.948H138.107V90.53Z" fill="#6FBE44"/>
<path d="M114.375 123.973V140.513H118.718V141.968H8.95407C6.52507 141.968 4.48907 140.524 3.91107 138.573C2.58207 137.718 1.72607 136.395 1.72607 134.903V6.38803C1.72607 3.81503 4.27106 1.72705 7.41206 1.72705H18.3111C21.4521 1.72705 24.0021 3.81503 24.0021 6.38803V122.733H118.718V123.973H114.375Z" fill="#304B9C"/>
<path d="M120.445 143.695H8.95401C6.05601 143.695 3.48401 142.068 2.47301 139.672C0.894007 138.461 0 136.753 0 134.904V6.388C0 2.867 3.325 0 7.412 0H18.311C22.401 0 25.728 2.866 25.728 6.388V121.006H120.445V125.698H116.101V138.785H120.445V143.695ZM7.41101 3.45401C5.26501 3.45401 3.45201 4.79901 3.45201 6.38901V134.905C3.45201 135.744 3.96001 136.552 4.84401 137.123L5.38301 137.469L5.565 138.084C5.936 139.335 7.361 140.243 8.953 140.243H112.648V124.461H22.274V6.388C22.274 4.798 20.459 3.453 18.31 3.453H7.41101V3.45401Z" fill="white"/>
<path d="M27.479 122.43H1.72498V125.579H27.479V122.43Z" fill="white"/>
<path d="M119.383 2.16113H22.677V123.856H119.383V2.16113Z" fill="#314D9C"/>
<path d="M121.11 125.582H20.951V0.434082H121.11V125.582ZM24.403 122.129H117.656V3.88705H24.403V122.129Z" fill="white"/>
</svg>
