<svg width="140" height="161" viewBox="0 0 140 161" fill="none" xmlns="http://www.w3.org/2000/svg">
<path d="M138.744 153.251C138.744 156.625 136.008 159.361 132.634 159.361H22.1331C18.7581 159.361 16.0231 156.625 16.0231 153.251V12.459C16.0231 9.08497 18.7591 6.34998 22.1331 6.34998H132.634C136.009 6.34998 138.744 9.08497 138.744 12.459V153.251Z" fill="#7AAF6D"/>
<path d="M132.634 160.125H22.1331C18.3421 160.125 15.2581 157.042 15.2581 153.251V12.459C15.2581 8.66795 18.3421 5.58496 22.1331 5.58496H132.634C136.425 5.58496 139.508 8.66795 139.508 12.459V153.251C139.508 157.042 136.424 160.125 132.634 160.125ZM22.1331 7.11296C19.1851 7.11296 16.7861 9.50995 16.7861 12.459V153.251C16.7861 156.199 19.1841 158.598 22.1331 158.598H132.634C135.582 158.598 137.981 156.2 137.981 153.251V12.459C137.981 9.51095 135.583 7.11296 132.634 7.11296H22.1331Z" fill="white"/>
<path d="M132.634 147.832C132.634 151.207 129.898 153.941 126.523 153.941H16.023C12.648 153.941 9.91199 151.207 9.91199 147.832V7.03993C9.91199 3.66593 12.648 0.929932 16.023 0.929932H126.523C129.898 0.929932 132.634 3.66593 132.634 7.03993V147.832Z" fill="#5AAB46" stroke="#5AAB46" stroke-miterlimit="10"/>
<path d="M95.654 97.8129C95.542 80.6629 85.533 66.8049 73.197 66.8049C60.861 66.8049 50.851 80.6619 50.741 97.8129H95.654Z" fill="#304B9C"/>
<path d="M97.9159 97.8129C97.8039 80.6629 87.7959 66.8049 75.4589 66.8049C63.1239 66.8049 53.1139 80.6619 53.0029 97.8129H97.9159Z" fill="#24356D"/>
<path d="M74.328 77.9209C82.0649 77.9209 88.337 72.1843 88.337 65.1079C88.337 58.0315 82.0649 52.2949 74.328 52.2949C66.591 52.2949 60.319 58.0315 60.319 65.1079C60.319 72.1843 66.591 77.9209 74.328 77.9209Z" fill="#E3ECBA"/>
<path d="M25.051 98.533C27.761 98.531 29.96 100.924 29.961 103.877C29.963 106.83 27.768 109.225 25.058 109.228L4.96201 109.24C2.25201 109.242 0.0530033 106.85 0.0520033 103.897C0.0500033 100.944 2.245 98.547 4.955 98.546L25.051 98.533Z" fill="#304B9C"/>
<path d="M25.068 123.135C27.778 123.133 29.976 125.527 29.979 128.479C29.98 131.432 27.785 133.827 25.075 133.829L4.97899 133.843C2.26899 133.844 0.0699945 131.451 0.0679945 128.499C0.0659945 125.546 2.262 123.15 4.972 123.147L25.068 123.135Z" fill="#304B9C"/>
<path d="M25.034 73.52C27.744 73.518 29.942 75.912 29.944 78.864C29.946 81.817 27.75 84.212 25.04 84.214L4.94397 84.228C2.23397 84.229 0.0349593 81.837 0.0329593 78.884C0.0319593 75.931 2.22697 73.535 4.93697 73.533L25.034 73.52Z" fill="#304B9C"/>
<path d="M25 21.736C27.71 21.735 29.908 24.127 29.91 27.08C29.912 30.033 27.716 32.43 25.006 32.43L4.90999 32.444C2.19999 32.445 0.00100137 30.053 1.36566e-06 27.1C-0.00199863 24.147 2.193 21.75 4.903 21.749L25 21.736Z" fill="#304B9C"/>
<path d="M25.017 46.8479C27.727 46.8459 29.926 49.2389 29.927 52.1919C29.929 55.1449 27.733 57.5399 25.023 57.5419L4.92796 57.5549C2.21796 57.5559 0.0189681 55.1639 0.0169681 52.2109C0.0159681 49.2589 2.21096 46.8619 4.92096 46.8599L25.017 46.8479Z" fill="#304B9C"/>
<path d="M25.0511 97.318C27.7611 97.316 29.9601 99.709 29.9611 102.662C29.9631 105.614 27.7671 108.01 25.0571 108.012L4.96106 108.024C2.25106 108.026 0.0520502 105.633 0.0500502 102.681C0.0480502 99.728 2.24306 97.332 4.95406 97.33L25.0511 97.318Z" fill="#25346E"/>
<path d="M25.068 121.919C27.778 121.917 29.976 124.311 29.979 127.264C29.981 130.217 27.785 132.612 25.075 132.614L4.97899 132.627C2.26899 132.628 0.0699945 130.235 0.0679945 127.284C0.0659945 124.331 2.261 121.934 4.972 121.932L25.068 121.919Z" fill="#25346E"/>
<path d="M25.034 72.3049C27.744 72.3029 29.943 74.6959 29.945 77.6489C29.946 80.6019 27.751 82.9969 25.041 82.9989L4.94504 83.0119C2.23504 83.0129 0.0360355 80.6209 0.0350355 77.6689C0.0330355 74.7159 2.22904 72.3189 4.93904 72.3169L25.034 72.3049Z" fill="#25346E"/>
<path d="M25 20.521C27.71 20.519 29.908 22.912 29.91 25.865C29.911 28.817 27.716 31.214 25.006 31.215L4.911 31.227C2.201 31.229 0.00200137 28.837 1.36504e-06 25.884C-0.00199864 22.931 2.19399 20.535 4.90399 20.533L25 20.521Z" fill="#25346E"/>
<path d="M25.017 45.632C27.727 45.63 29.926 48.024 29.927 50.976C29.929 53.929 27.734 56.325 25.024 56.325L4.92796 56.339C2.21796 56.341 0.0199681 53.948 0.0169681 50.995C0.0159681 48.042 2.21096 45.647 4.92096 45.645L25.017 45.632Z" fill="#25346E"/>
</svg>
