<svg width="97" height="129" viewBox="0 0 97 129" fill="none" xmlns="http://www.w3.org/2000/svg">
<path d="M93.576 14.8621H2.86401V127.713H93.576V14.8621Z" fill="#9DD089"/>
<path d="M24.3651 54.371L17.4221 48.264L19.315 46.115L24.303 50.503L35.0421 40.421L37 42.508L24.3651 54.371Z" fill="#304D9C"/>
<path d="M24.3651 75.008L17.4221 68.901L19.315 66.752L24.303 71.141L35.0421 61.058L37 63.145L24.3651 75.008Z" fill="#304D9C"/>
<path d="M24.3651 95.1761L17.4221 89.0691L19.315 86.9191L24.303 91.3081L35.0421 81.2261L37 83.3121L24.3651 95.1761Z" fill="#304D9C"/>
<path d="M24.3651 115.813L17.4221 109.706L19.315 107.557L24.303 111.946L35.0421 101.863L37 103.95L24.3651 115.813Z" fill="#304D9C"/>
<path d="M47.049 45.488V49.543V45.488Z" fill="white" stroke="#304D9C" stroke-miterlimit="10"/>
<path d="M47.156 45.488H47.049V49.543H47.156V45.488Z" fill="white" stroke="#304D9C" stroke-miterlimit="10"/>
<path d="M47.261 45.488H47.157V49.543H47.261V45.488Z" fill="white" stroke="#304D9C" stroke-miterlimit="10"/>
<path d="M47.3651 45.488H47.261V49.543H47.3651V45.488Z" fill="#FDFEFF" stroke="#304D9C" stroke-miterlimit="10"/>
<path d="M47.47 45.488H47.366V49.543H47.47V45.488Z" fill="#FDFEFD" stroke="#304D9C" stroke-miterlimit="10"/>
<path d="M47.575 45.488H47.47V49.543H47.575V45.488Z" fill="#FCFDFB" stroke="#304D9C" stroke-miterlimit="10"/>
<path d="M47.679 45.488H47.575V49.543H47.679V45.488Z" fill="#FCFDFB" stroke="#304D9C" stroke-miterlimit="10"/>
<path d="M47.785 45.488H47.679V49.543H47.785V45.488Z" fill="#FAFDF9" stroke="#304D9C" stroke-miterlimit="10"/>
<path d="M47.889 45.488H47.785V49.543H47.889V45.488Z" fill="#F9FCF7" stroke="#304D9C" stroke-miterlimit="10"/>
<path d="M47.994 45.488H47.89V49.543H47.994V45.488Z" fill="#F9FCF7" stroke="#304D9C" stroke-miterlimit="10"/>
<path d="M48.099 45.488H47.994V49.543H48.099V45.488Z" fill="#F8FBF6" stroke="#304D9C" stroke-miterlimit="10"/>
<path d="M48.2061 45.488H48.1V49.543H48.2061V45.488Z" fill="#F7FBF6" stroke="#304D9C" stroke-miterlimit="10"/>
<path d="M48.31 45.488H48.2061V49.543H48.31V45.488Z" fill="#F7FBF4" stroke="#304D9C" stroke-miterlimit="10"/>
<path d="M48.414 45.488H48.31V49.543H48.414V45.488Z" fill="#F6FAF3" stroke="#304D9C" stroke-miterlimit="10"/>
<path d="M48.519 45.488H48.414V49.543H48.519V45.488Z" fill="#F6FAF2" stroke="#304D9C" stroke-miterlimit="10"/>
<path d="M48.625 45.488H48.52V49.543H48.625V45.488Z" fill="#F5FAF2" stroke="#304D9C" stroke-miterlimit="10"/>
<path d="M48.729 45.488H48.625V49.543H48.729V45.488Z" fill="#F4F9F0" stroke="#304D9C" stroke-miterlimit="10"/>
<path d="M48.835 45.488H48.73V49.543H48.835V45.488Z" fill="#F3F9EF" stroke="#304D9C" stroke-miterlimit="10"/>
<path d="M48.939 45.488H48.835V49.543H48.939V45.488Z" fill="#F2F8EE" stroke="#304D9C" stroke-miterlimit="10"/>
<path d="M49.045 45.488H48.939V49.543H49.045V45.488Z" fill="#F2F8ED" stroke="#304D9C" stroke-miterlimit="10"/>
<path d="M49.149 45.488H49.045V49.543H49.149V45.488Z" fill="#F1F8EC" stroke="#304D9C" stroke-miterlimit="10"/>
<path d="M49.255 45.488H49.15V49.543H49.255V45.488Z" fill="#F0F7EB" stroke="#304D9C" stroke-miterlimit="10"/>
<path d="M49.359 45.488H49.255V49.543H49.359V45.488Z" fill="#EFF7EB" stroke="#304D9C" stroke-miterlimit="10"/>
<path d="M49.465 45.488H49.36V49.543H49.465V45.488Z" fill="#EFF7EA" stroke="#304D9C" stroke-miterlimit="10"/>
<path d="M49.57 45.488H49.465V49.543H49.57V45.488Z" fill="#EDF6E8" stroke="#304D9C" stroke-miterlimit="10"/>
<path d="M49.675 45.488H49.571V49.543H49.675V45.488Z" fill="#ECF5E7" stroke="#304D9C" stroke-miterlimit="10"/>
<path d="M49.78 45.488H49.674V49.543H49.78V45.488Z" fill="#EBF5E6" stroke="#304D9C" stroke-miterlimit="10"/>
<path d="M49.885 45.488H49.781V49.543H49.885V45.488Z" fill="#EAF4E6" stroke="#304D9C" stroke-miterlimit="10"/>
<path d="M49.9901 45.488H49.884V49.543H49.9901V45.488Z" fill="#EAF4E4" stroke="#304D9C" stroke-miterlimit="10"/>
<path d="M50.095 45.488H49.991V49.543H50.095V45.488Z" fill="#EAF4E3" stroke="#304D9C" stroke-miterlimit="10"/>
<path d="M50.2 45.488H50.0941V49.543H50.2V45.488Z" fill="#E9F3E3" stroke="#304D9C" stroke-miterlimit="10"/>
<path d="M50.304 45.488H50.2V49.543H50.304V45.488Z" fill="#E8F3E2" stroke="#304D9C" stroke-miterlimit="10"/>
<path d="M50.41 45.488H50.3051V49.543H50.41V45.488Z" fill="#E7F3E0" stroke="#304D9C" stroke-miterlimit="10"/>
<path d="M50.514 45.488H50.41V49.543H50.514V45.488Z" fill="#E7F2DF" stroke="#304D9C" stroke-miterlimit="10"/>
<path d="M50.619 45.488H50.515V49.543H50.619V45.488Z" fill="#E5F2DE" stroke="#304D9C" stroke-miterlimit="10"/>
<path d="M50.723 45.488H50.619V49.543H50.723V45.488Z" fill="#E4F1DD" stroke="#304D9C" stroke-miterlimit="10"/>
<path d="M50.829 45.488H50.724V49.543H50.829V45.488Z" fill="#E3F1DC" stroke="#304D9C" stroke-miterlimit="10"/>
<path d="M50.934 45.488H50.829V49.543H50.934V45.488Z" fill="#E2F0DB" stroke="#304D9C" stroke-miterlimit="10"/>
<path d="M51.039 45.488H50.935V49.543H51.039V45.488Z" fill="#E2F0DA" stroke="#304D9C" stroke-miterlimit="10"/>
<path d="M51.144 45.488H51.038V49.543H51.144V45.488Z" fill="#E1F0D9" stroke="#304D9C" stroke-miterlimit="10"/>
<path d="M51.25 45.488H51.145V49.543H51.25V45.488Z" fill="#DFEFD8" stroke="#304D9C" stroke-miterlimit="10"/>
<path d="M51.354 45.488H51.25V49.543H51.354V45.488Z" fill="#DFEED6" stroke="#304D9C" stroke-miterlimit="10"/>
<path d="M51.46 45.488H51.354V49.543H51.46V45.488Z" fill="#DEEED6" stroke="#304D9C" stroke-miterlimit="10"/>
<path d="M51.564 45.488H51.46V49.543H51.564V45.488Z" fill="#DEEED5" stroke="#304D9C" stroke-miterlimit="10"/>
<path d="M51.668 45.488H51.564V49.543H51.668V45.488Z" fill="#DDEDD4" stroke="#304D9C" stroke-miterlimit="10"/>
<path d="M51.774 45.488H51.668V49.543H51.774V45.488Z" fill="#DCEDD3" stroke="#304D9C" stroke-miterlimit="10"/>
<path d="M51.879 45.488H51.775V49.543H51.879V45.488Z" fill="#DBEDD1" stroke="#304D9C" stroke-miterlimit="10"/>
<path d="M51.983 45.488H51.8781V49.543H51.983V45.488Z" fill="#DAECD1" stroke="#304D9C" stroke-miterlimit="10"/>
<path d="M52.09 45.488H51.984V49.543H52.09V45.488Z" fill="#DAECD0" stroke="#304D9C" stroke-miterlimit="10"/>
<path d="M52.194 45.488H52.09V49.543H52.194V45.488Z" fill="#D9ECCF" stroke="#304D9C" stroke-miterlimit="10"/>
<path d="M52.299 45.488H52.195V49.543H52.299V45.488Z" fill="#D8EBCE" stroke="#304D9C" stroke-miterlimit="10"/>
<path d="M52.4041 45.488H52.299V49.543H52.4041V45.488Z" fill="#D8EBCD" stroke="#304D9C" stroke-miterlimit="10"/>
<path d="M52.509 45.488H52.405V49.543H52.509V45.488Z" fill="#D7EACC" stroke="#304D9C" stroke-miterlimit="10"/>
<path d="M52.613 45.488H52.509V49.543H52.613V45.488Z" fill="#D7EACB" stroke="#304D9C" stroke-miterlimit="10"/>
<path d="M52.718 45.488H52.614V49.543H52.718V45.488Z" fill="#D6EACB" stroke="#304D9C" stroke-miterlimit="10"/>
<path d="M52.824 45.488H52.718V49.543H52.824V45.488Z" fill="#D5E9C9" stroke="#304D9C" stroke-miterlimit="10"/>
<path d="M52.928 45.488H52.824V49.543H52.928V45.488Z" fill="#D4E9C8" stroke="#304D9C" stroke-miterlimit="10"/>
<path d="M53.035 45.488H52.928V49.543H53.035V45.488Z" fill="#D4E9C8" stroke="#304D9C" stroke-miterlimit="10"/>
<path d="M53.138 45.488H53.035V49.543H53.138V45.488Z" fill="#D3E9C6" stroke="#304D9C" stroke-miterlimit="10"/>
<path d="M53.244 45.488H53.138V49.543H53.244V45.488Z" fill="#D2E8C5" stroke="#304D9C" stroke-miterlimit="10"/>
<path d="M53.348 45.488H53.244V49.543H53.348V45.488Z" fill="#D0E7C5" stroke="#304D9C" stroke-miterlimit="10"/>
<path d="M53.454 45.488H53.349V49.543H53.454V45.488Z" fill="#D0E7C3" stroke="#304D9C" stroke-miterlimit="10"/>
<path d="M53.558 45.488H53.454V49.543H53.558V45.488Z" fill="#D0E7C2" stroke="#304D9C" stroke-miterlimit="10"/>
<path d="M53.664 45.488H53.558V49.543H53.664V45.488Z" fill="#CFE6C1" stroke="#304D9C" stroke-miterlimit="10"/>
<path d="M53.768 45.488H53.664V49.543H53.768V45.488Z" fill="#CEE6C0" stroke="#304D9C" stroke-miterlimit="10"/>
<path d="M53.873 45.488H53.769V49.543H53.873V45.488Z" fill="#CDE5BF" stroke="#304D9C" stroke-miterlimit="10"/>
<path d="M53.978 45.488H53.873V49.543H53.978V45.488Z" fill="#CBE5BE" stroke="#304D9C" stroke-miterlimit="10"/>
<path d="M54.083 45.488H53.979V49.543H54.083V45.488Z" fill="#CBE5BD" stroke="#304D9C" stroke-miterlimit="10"/>
<path d="M54.188 45.488H54.083V49.543H54.188V45.488Z" fill="#CAE4BC" stroke="#304D9C" stroke-miterlimit="10"/>
<path d="M54.293 45.488H54.189V49.543H54.293V45.488Z" fill="#C9E4BB" stroke="#304D9C" stroke-miterlimit="10"/>
<path d="M54.399 45.488H54.293V49.543H54.399V45.488Z" fill="#C9E3BA" stroke="#304D9C" stroke-miterlimit="10"/>
<path d="M54.504 45.488H54.4V49.543H54.504V45.488Z" fill="#C8E3B9" stroke="#304D9C" stroke-miterlimit="10"/>
<path d="M54.608 45.488H54.504V49.543H54.608V45.488Z" fill="#C8E3B8" stroke="#304D9C" stroke-miterlimit="10"/>
<path d="M54.7141 45.488H54.609V49.543H54.7141V45.488Z" fill="#C7E2B7" stroke="#304D9C" stroke-miterlimit="10"/>
<path d="M54.8181 45.488H54.7141V49.543H54.8181V45.488Z" fill="#C6E2B6" stroke="#304D9C" stroke-miterlimit="10"/>
<path d="M54.924 45.488H54.819V49.543H54.924V45.488Z" fill="#C5E2B5" stroke="#304D9C" stroke-miterlimit="10"/>
<path d="M55.028 45.488H54.924V49.543H55.028V45.488Z" fill="#C4E1B5" stroke="#304D9C" stroke-miterlimit="10"/>
<path d="M55.134 45.488H55.0291V49.543H55.134V45.488Z" fill="#C4E1B3" stroke="#304D9C" stroke-miterlimit="10"/>
<path d="M55.239 45.488H55.134V49.543H55.239V45.488Z" fill="#C3E1B2" stroke="#304D9C" stroke-miterlimit="10"/>
<path d="M55.3441 45.488H55.2401V49.543H55.3441V45.488Z" fill="#C2E0B1" stroke="#304D9C" stroke-miterlimit="10"/>
<path d="M55.449 45.488H55.3441V49.543H55.449V45.488Z" fill="#C1E0B0" stroke="#304D9C" stroke-miterlimit="10"/>
<path d="M55.553 45.488H55.449V49.543H55.553V45.488Z" fill="#C0E0B0" stroke="#304D9C" stroke-miterlimit="10"/>
<path d="M55.658 45.488H55.553V49.543H55.658V45.488Z" fill="#C1DFAE" stroke="#304D9C" stroke-miterlimit="10"/>
<path d="M55.762 45.488H55.658V49.543H55.762V45.488Z" fill="#BFDFAD" stroke="#304D9C" stroke-miterlimit="10"/>
<path d="M55.867 45.488H55.763V49.543H55.867V45.488Z" fill="#BEDEAD" stroke="#304D9C" stroke-miterlimit="10"/>
<path d="M55.972 45.488H55.867V49.543H55.972V45.488Z" fill="#BDDEAB" stroke="#304D9C" stroke-miterlimit="10"/>
<path d="M56.08 45.488H55.973V49.543H56.08V45.488Z" fill="#BCDDAA" stroke="#304D9C" stroke-miterlimit="10"/>
<path d="M56.184 45.488H56.08V49.543H56.184V45.488Z" fill="#BCDDAA" stroke="#304D9C" stroke-miterlimit="10"/>
<path d="M56.288 45.488H56.184V49.543H56.288V45.488Z" fill="#BBDDA9" stroke="#304D9C" stroke-miterlimit="10"/>
<path d="M56.393 45.488H56.288V49.543H56.393V45.488Z" fill="#BADDA8" stroke="#304D9C" stroke-miterlimit="10"/>
<path d="M56.498 45.488H56.394V49.543H56.498V45.488Z" fill="#B9DCA7" stroke="#304D9C" stroke-miterlimit="10"/>
<path d="M56.6021 45.488H56.498V49.543H56.6021V45.488Z" fill="#B8DCA6" stroke="#304D9C" stroke-miterlimit="10"/>
<path d="M56.708 45.488H56.6021V49.543H56.708V45.488Z" fill="#B8DCA5" stroke="#304D9C" stroke-miterlimit="10"/>
<path d="M56.812 45.488H56.708V49.543H56.812V45.488Z" fill="#B8DBA4" stroke="#304D9C" stroke-miterlimit="10"/>
<path d="M56.918 45.488H56.813V49.543H56.918V45.488Z" fill="#B7DBA2" stroke="#304D9C" stroke-miterlimit="10"/>
<path d="M57.023 45.488H56.918V49.543H57.023V45.488Z" fill="#B6DAA0" stroke="#304D9C" stroke-miterlimit="10"/>
<path d="M57.1281 45.488H57.024V49.543H57.1281V45.488Z" fill="#B6DAA0" stroke="#304D9C" stroke-miterlimit="10"/>
<path d="M57.2321 45.488H57.127V49.543H57.2321V45.488Z" fill="#B5DA9E" stroke="#304D9C" stroke-miterlimit="10"/>
<path d="M57.338 45.488H57.233V49.543H57.338V45.488Z" fill="#B4D99E" stroke="#304D9C" stroke-miterlimit="10"/>
<path d="M57.442 45.488H57.338V49.543H57.442V45.488Z" fill="#B3D99C" stroke="#304D9C" stroke-miterlimit="10"/>
<path d="M57.5471 45.488H57.4431V49.543H57.5471V45.488Z" fill="#B1D89B" stroke="#304D9C" stroke-miterlimit="10"/>
<path d="M57.653 45.488H57.5471V49.543H57.653V45.488Z" fill="#B1D89A" stroke="#304D9C" stroke-miterlimit="10"/>
<path d="M57.7581 45.488H57.6541V49.543H57.7581V45.488Z" fill="#B0D899" stroke="#304D9C" stroke-miterlimit="10"/>
<path d="M57.862 45.488H57.7581V49.543H57.862V45.488Z" fill="#B0D798" stroke="#304D9C" stroke-miterlimit="10"/>
<path d="M57.9691 45.488H57.863V49.543H57.9691V45.488Z" fill="#AFD797" stroke="#304D9C" stroke-miterlimit="10"/>
<path d="M58.073 45.488H57.9691V49.543H58.073V45.488Z" fill="#ADD696" stroke="#304D9C" stroke-miterlimit="10"/>
<path d="M58.178 45.488H58.073V49.543H58.178V45.488Z" fill="#ADD695" stroke="#304D9C" stroke-miterlimit="10"/>
<path d="M58.283 45.488H58.178V49.543H58.283V45.488Z" fill="#ACD694" stroke="#304D9C" stroke-miterlimit="10"/>
<path d="M58.387 45.488H58.283V49.543H58.387V45.488Z" fill="#ABD593" stroke="#304D9C" stroke-miterlimit="10"/>
<path d="M58.493 45.488H58.388V49.543H58.493V45.488Z" fill="#A9D591" stroke="#304D9C" stroke-miterlimit="10"/>
<path d="M58.597 45.488H58.493V49.543H58.597V45.488Z" fill="#A9D591" stroke="#304D9C" stroke-miterlimit="10"/>
<path d="M58.703 45.488H58.598V49.543H58.703V45.488Z" fill="#A8D48F" stroke="#304D9C" stroke-miterlimit="10"/>
<path d="M58.807 45.488H58.703V49.543H58.807V45.488Z" fill="#A7D48F" stroke="#304D9C" stroke-miterlimit="10"/>
<path d="M58.913 45.488H58.807V49.543H58.913V45.488Z" fill="#A6D38D" stroke="#304D9C" stroke-miterlimit="10"/>
<path d="M59.017 45.488H58.913V49.543H59.017V45.488Z" fill="#A6D38D" stroke="#304D9C" stroke-miterlimit="10"/>
<path d="M59.123 45.488H59.017V49.543H59.123V45.488Z" fill="#A5D38B" stroke="#304D9C" stroke-miterlimit="10"/>
<path d="M59.2271 45.488H59.123V49.543H59.2271V45.488Z" fill="#A5D38B" stroke="#304D9C" stroke-miterlimit="10"/>
<path d="M59.333 45.488H59.2271V49.543H59.333V45.488Z" fill="#A4D28A" stroke="#304D9C" stroke-miterlimit="10"/>
<path d="M59.437 45.488H59.333V49.543H59.437V45.488Z" fill="#A3D289" stroke="#304D9C" stroke-miterlimit="10"/>
<path d="M59.5421 45.488H59.438V49.543H59.5421V45.488Z" fill="#A2D188" stroke="#304D9C" stroke-miterlimit="10"/>
<path d="M59.647 45.488H59.5421V49.543H59.647V45.488Z" fill="#A1D187" stroke="#304D9C" stroke-miterlimit="10"/>
<path d="M59.752 45.488H59.648V49.543H59.752V45.488Z" fill="#A1D186" stroke="#304D9C" stroke-miterlimit="10"/>
<path d="M59.856 45.488H59.752V49.543H59.856V45.488Z" fill="#9FD085" stroke="#304D9C" stroke-miterlimit="10"/>
<path d="M59.962 45.488H59.8571V49.543H59.962V45.488Z" fill="#9ED085" stroke="#304D9C" stroke-miterlimit="10"/>
<path d="M60.067 45.488H59.962V49.543H60.067V45.488Z" fill="#9DD083" stroke="#304D9C" stroke-miterlimit="10"/>
<path d="M60.173 45.488H60.0681V49.543H60.173V45.488Z" fill="#9CCF83" stroke="#304D9C" stroke-miterlimit="10"/>
<path d="M60.278 45.488H60.173V49.543H60.278V45.488Z" fill="#9DCF82" stroke="#304D9C" stroke-miterlimit="10"/>
<path d="M60.3831 45.488H60.2791V49.543H60.3831V45.488Z" fill="#9CCF81" stroke="#304D9C" stroke-miterlimit="10"/>
<path d="M60.487 45.488H60.3831V49.543H60.487V45.488Z" fill="#9BCE80" stroke="#304D9C" stroke-miterlimit="10"/>
<path d="M60.592 45.488H60.488V49.543H60.592V45.488Z" fill="#9ACE7E" stroke="#304D9C" stroke-miterlimit="10"/>
<path d="M60.697 45.488H60.592V49.543H60.697V45.488Z" fill="#99CE7E" stroke="#304D9C" stroke-miterlimit="10"/>
<path d="M60.802 45.488H60.698V49.543H60.802V45.488Z" fill="#99CE7C" stroke="#304D9C" stroke-miterlimit="10"/>
<path d="M60.906 45.488H60.801V49.543H60.906V45.488Z" fill="#98CD7C" stroke="#304D9C" stroke-miterlimit="10"/>
<path d="M61.014 45.488H60.907V49.543H61.014V45.488Z" fill="#97CD7A" stroke="#304D9C" stroke-miterlimit="10"/>
<path d="M61.117 45.488H61.014V49.543H61.117V45.488Z" fill="#97CD79" stroke="#304D9C" stroke-miterlimit="10"/>
<path d="M61.222 45.488H61.116V49.543H61.222V45.488Z" fill="#97CD79" stroke="#304D9C" stroke-miterlimit="10"/>
<path d="M61.328 45.488H61.223V49.543H61.328V45.488Z" fill="#96CC77" stroke="#304D9C" stroke-miterlimit="10"/>
<path d="M61.432 45.488H61.328V49.543H61.432V45.488Z" fill="#95CC76" stroke="#304D9C" stroke-miterlimit="10"/>
<path d="M61.537 45.488H61.432V49.543H61.537V45.488Z" fill="#94CC76" stroke="#304D9C" stroke-miterlimit="10"/>
<path d="M61.6411 45.488H61.537V49.543H61.6411V45.488Z" fill="#93CB74" stroke="#304D9C" stroke-miterlimit="10"/>
<path d="M61.747 45.488H61.642V49.543H61.747V45.488Z" fill="#92CB73" stroke="#304D9C" stroke-miterlimit="10"/>
<path d="M61.851 45.488H61.747V49.543H61.851V45.488Z" fill="#91CA73" stroke="#304D9C" stroke-miterlimit="10"/>
<path d="M61.958 45.488H61.8521V49.543H61.958V45.488Z" fill="#90CA72" stroke="#304D9C" stroke-miterlimit="10"/>
<path d="M62.061 45.488H61.958V49.543H62.061V45.488Z" fill="#8FCA70" stroke="#304D9C" stroke-miterlimit="10"/>
<path d="M62.1671 45.488H62.061V49.543H62.1671V45.488Z" fill="#8FCA70" stroke="#304D9C" stroke-miterlimit="10"/>
<path d="M62.2711 45.488H62.1671V49.543H62.2711V45.488Z" fill="#8EC96F" stroke="#304D9C" stroke-miterlimit="10"/>
<path d="M62.377 45.488H62.272V49.543H62.377V45.488Z" fill="#8DC96E" stroke="#304D9C" stroke-miterlimit="10"/>
<path d="M62.481 45.488H62.377V49.543H62.481V45.488Z" fill="#8DC96D" stroke="#304D9C" stroke-miterlimit="10"/>
<path d="M62.588 45.488H62.481V49.543H62.588V45.488Z" fill="#8CC86C" stroke="#304D9C" stroke-miterlimit="10"/>
<path d="M62.692 45.488H62.588V49.543H62.692V45.488Z" fill="#8BC86B" stroke="#304D9C" stroke-miterlimit="10"/>
<path d="M62.796 45.488H62.692V49.543H62.796V45.488Z" fill="#8BC86A" stroke="#304D9C" stroke-miterlimit="10"/>
<path d="M62.901 45.488H62.796V49.543H62.901V45.488Z" fill="#89C76A" stroke="#304D9C" stroke-miterlimit="10"/>
<path d="M63.006 45.488H62.902V49.543H63.006V45.488Z" fill="#88C768" stroke="#304D9C" stroke-miterlimit="10"/>
<path d="M63.112 45.488H63.006V49.543H63.112V45.488Z" fill="#88C767" stroke="#304D9C" stroke-miterlimit="10"/>
<path d="M63.217 45.488H63.113V49.543H63.217V45.488Z" fill="#86C667" stroke="#304D9C" stroke-miterlimit="10"/>
<path d="M63.322 45.488H63.217V49.543H63.322V45.488Z" fill="#86C666" stroke="#304D9C" stroke-miterlimit="10"/>
<path d="M63.427 45.488H63.323V49.543H63.427V45.488Z" fill="#85C664" stroke="#304D9C" stroke-miterlimit="10"/>
<path d="M63.532 45.488H63.427V49.543H63.532V45.488Z" fill="#84C664" stroke="#304D9C" stroke-miterlimit="10"/>
<path d="M63.637 45.488H63.533V49.543H63.637V45.488Z" fill="#83C562" stroke="#304D9C" stroke-miterlimit="10"/>
<path d="M63.741 45.488H63.637V49.543H63.741V45.488Z" fill="#82C561" stroke="#304D9C" stroke-miterlimit="10"/>
<path d="M63.845 45.488H63.741V49.543H63.845V45.488Z" fill="#83C561" stroke="#304D9C" stroke-miterlimit="10"/>
<path d="M63.951 45.488H63.846V49.543H63.951V45.488Z" fill="#82C560" stroke="#304D9C" stroke-miterlimit="10"/>
<path d="M64.056 45.488H63.951V49.543H64.056V45.488Z" fill="#81C45E" stroke="#304D9C" stroke-miterlimit="10"/>
<path d="M64.161 45.488H64.057V49.543H64.161V45.488Z" fill="#80C45E" stroke="#304D9C" stroke-miterlimit="10"/>
<path d="M64.267 45.488H64.161V49.543H64.267V45.488Z" fill="#7FC45D" stroke="#304D9C" stroke-miterlimit="10"/>
<path d="M64.372 45.488H64.268V49.543H64.372V45.488Z" fill="#7EC35C" stroke="#304D9C" stroke-miterlimit="10"/>
<path d="M64.476 45.488H64.372V49.543H64.476V45.488Z" fill="#7DC35B" stroke="#304D9C" stroke-miterlimit="10"/>
<path d="M64.582 45.488H64.476V49.543H64.582V45.488Z" fill="#7DC359" stroke="#304D9C" stroke-miterlimit="10"/>
<path d="M64.686 45.488H64.582V49.543H64.686V45.488Z" fill="#7BC259" stroke="#304D9C" stroke-miterlimit="10"/>
<path d="M64.79 45.488H64.686V49.543H64.79V45.488Z" fill="#7BC257" stroke="#304D9C" stroke-miterlimit="10"/>
<path d="M64.895 45.488H64.79V49.543H64.895V45.488Z" fill="#7AC256" stroke="#304D9C" stroke-miterlimit="10"/>
<path d="M65.002 45.488H64.8961V49.543H65.002V45.488Z" fill="#79C255" stroke="#304D9C" stroke-miterlimit="10"/>
<path d="M65.106 45.488H65.002V49.543H65.106V45.488Z" fill="#78C154" stroke="#304D9C" stroke-miterlimit="10"/>
<path d="M65.212 45.488H65.106V49.543H65.212V45.488Z" fill="#79C153" stroke="#304D9C" stroke-miterlimit="10"/>
<path d="M65.316 45.488H65.212V49.543H65.316V45.488Z" fill="#78C152" stroke="#304D9C" stroke-miterlimit="10"/>
<path d="M65.421 45.488H65.317V49.543H65.421V45.488Z" fill="#77C151" stroke="#304D9C" stroke-miterlimit="10"/>
<path d="M65.525 45.488H65.421V49.543H65.525V45.488Z" fill="#77C14F" stroke="#304D9C" stroke-miterlimit="10"/>
<path d="M65.631 45.488H65.526V49.543H65.631V45.488Z" fill="#76C04F" stroke="#304D9C" stroke-miterlimit="10"/>
<path d="M65.735 45.488H65.631V49.543H65.735V45.488Z" fill="#75C04E" stroke="#304D9C" stroke-miterlimit="10"/>
<path d="M65.841 45.488H65.736V49.543H65.841V45.488Z" fill="#74C04C" stroke="#304D9C" stroke-miterlimit="10"/>
<path d="M65.947 45.488H65.841V49.543H65.947V45.488Z" fill="#74C04B" stroke="#304D9C" stroke-miterlimit="10"/>
<path d="M66.051 45.488H65.948V49.543H66.051V45.488Z" fill="#73C04A" stroke="#304D9C" stroke-miterlimit="10"/>
<path d="M66.157 45.488H66.05V49.543H66.157V45.488Z" fill="#72BF49" stroke="#304D9C" stroke-miterlimit="10"/>
<path d="M66.262 45.488H66.158V49.543H66.262V45.488Z" fill="#71BF48" stroke="#304D9C" stroke-miterlimit="10"/>
<path d="M66.366 45.488H66.262V49.543H66.366V45.488Z" fill="#71BF47" stroke="#304D9C" stroke-miterlimit="10"/>
<path d="M66.47 45.488H66.366V49.543H66.47V45.488Z" fill="#70BF47" stroke="#304D9C" stroke-miterlimit="10"/>
<path d="M66.576 45.488H66.471V49.543H66.576V45.488Z" fill="#6FBE46" stroke="#304D9C" stroke-miterlimit="10"/>
<path d="M79.015 45.488H66.576V49.543H79.015V45.488Z" fill="#6FBE46" stroke="#304D9C" stroke-miterlimit="10"/>
<path d="M79.0161 47.516C79.0161 48.635 77.968 49.543 76.673 49.543H49.392C48.098 49.543 47.051 48.635 47.051 47.516C47.051 46.396 48.098 45.489 49.392 45.489H76.673C77.968 45.489 79.0161 46.396 79.0161 47.516Z" stroke="#304D9C" stroke-miterlimit="10"/>
<path d="M47.049 64.6161V68.6701V64.6161Z" fill="white" stroke="#304D9C" stroke-miterlimit="10"/>
<path d="M47.156 64.6161H47.049V68.6701H47.156V64.6161Z" fill="white" stroke="#304D9C" stroke-miterlimit="10"/>
<path d="M47.261 64.6161H47.157V68.6701H47.261V64.6161Z" fill="white" stroke="#304D9C" stroke-miterlimit="10"/>
<path d="M47.3651 64.6161H47.261V68.6701H47.3651V64.6161Z" fill="#FDFEFF" stroke="#304D9C" stroke-miterlimit="10"/>
<path d="M47.47 64.6161H47.366V68.6701H47.47V64.6161Z" fill="#FDFEFD" stroke="#304D9C" stroke-miterlimit="10"/>
<path d="M47.575 64.6161H47.47V68.6701H47.575V64.6161Z" fill="#FCFDFB" stroke="#304D9C" stroke-miterlimit="10"/>
<path d="M47.679 64.6161H47.575V68.6701H47.679V64.6161Z" fill="#FCFDFB" stroke="#304D9C" stroke-miterlimit="10"/>
<path d="M47.785 64.6161H47.679V68.6701H47.785V64.6161Z" fill="#FAFDF9" stroke="#304D9C" stroke-miterlimit="10"/>
<path d="M47.889 64.6161H47.785V68.6701H47.889V64.6161Z" fill="#F9FCF7" stroke="#304D9C" stroke-miterlimit="10"/>
<path d="M47.994 64.6161H47.89V68.6701H47.994V64.6161Z" fill="#F9FCF7" stroke="#304D9C" stroke-miterlimit="10"/>
<path d="M48.099 64.6161H47.994V68.6701H48.099V64.6161Z" fill="#F8FBF6" stroke="#304D9C" stroke-miterlimit="10"/>
<path d="M48.2061 64.6161H48.1V68.6701H48.2061V64.6161Z" fill="#F7FBF6" stroke="#304D9C" stroke-miterlimit="10"/>
<path d="M48.31 64.6161H48.2061V68.6701H48.31V64.6161Z" fill="#F7FBF4" stroke="#304D9C" stroke-miterlimit="10"/>
<path d="M48.414 64.6161H48.31V68.6701H48.414V64.6161Z" fill="#F6FAF3" stroke="#304D9C" stroke-miterlimit="10"/>
<path d="M48.519 64.6161H48.414V68.6701H48.519V64.6161Z" fill="#F6FAF2" stroke="#304D9C" stroke-miterlimit="10"/>
<path d="M48.625 64.6161H48.52V68.6701H48.625V64.6161Z" fill="#F5FAF2" stroke="#304D9C" stroke-miterlimit="10"/>
<path d="M48.729 64.6161H48.625V68.6701H48.729V64.6161Z" fill="#F4F9F0" stroke="#304D9C" stroke-miterlimit="10"/>
<path d="M48.835 64.6161H48.73V68.6701H48.835V64.6161Z" fill="#F3F9EF" stroke="#304D9C" stroke-miterlimit="10"/>
<path d="M48.939 64.6161H48.835V68.6701H48.939V64.6161Z" fill="#F2F8EE" stroke="#304D9C" stroke-miterlimit="10"/>
<path d="M49.045 64.6161H48.939V68.6701H49.045V64.6161Z" fill="#F2F8ED" stroke="#304D9C" stroke-miterlimit="10"/>
<path d="M49.149 64.6161H49.045V68.6701H49.149V64.6161Z" fill="#F1F8EC" stroke="#304D9C" stroke-miterlimit="10"/>
<path d="M49.255 64.6161H49.15V68.6701H49.255V64.6161Z" fill="#F0F7EB" stroke="#304D9C" stroke-miterlimit="10"/>
<path d="M49.359 64.6161H49.255V68.6701H49.359V64.6161Z" fill="#EFF7EB" stroke="#304D9C" stroke-miterlimit="10"/>
<path d="M49.465 64.6161H49.36V68.6701H49.465V64.6161Z" fill="#EFF7EA" stroke="#304D9C" stroke-miterlimit="10"/>
<path d="M49.57 64.6161H49.465V68.6701H49.57V64.6161Z" fill="#EDF6E8" stroke="#304D9C" stroke-miterlimit="10"/>
<path d="M49.675 64.6161H49.571V68.6701H49.675V64.6161Z" fill="#ECF5E7" stroke="#304D9C" stroke-miterlimit="10"/>
<path d="M49.78 64.6161H49.674V68.6701H49.78V64.6161Z" fill="#EBF5E6" stroke="#304D9C" stroke-miterlimit="10"/>
<path d="M49.885 64.6161H49.781V68.6701H49.885V64.6161Z" fill="#EAF4E6" stroke="#304D9C" stroke-miterlimit="10"/>
<path d="M49.9901 64.6161H49.884V68.6701H49.9901V64.6161Z" fill="#EAF4E4" stroke="#304D9C" stroke-miterlimit="10"/>
<path d="M50.095 64.6161H49.991V68.6701H50.095V64.6161Z" fill="#EAF4E3" stroke="#304D9C" stroke-miterlimit="10"/>
<path d="M50.2 64.6161H50.0941V68.6701H50.2V64.6161Z" fill="#E9F3E3" stroke="#304D9C" stroke-miterlimit="10"/>
<path d="M50.304 64.6161H50.2V68.6701H50.304V64.6161Z" fill="#E8F3E2" stroke="#304D9C" stroke-miterlimit="10"/>
<path d="M50.41 64.6161H50.3051V68.6701H50.41V64.6161Z" fill="#E7F3E0" stroke="#304D9C" stroke-miterlimit="10"/>
<path d="M50.514 64.6161H50.41V68.6701H50.514V64.6161Z" fill="#E7F2DF" stroke="#304D9C" stroke-miterlimit="10"/>
<path d="M50.619 64.6161H50.515V68.6701H50.619V64.6161Z" fill="#E5F2DE" stroke="#304D9C" stroke-miterlimit="10"/>
<path d="M50.723 64.6161H50.619V68.6701H50.723V64.6161Z" fill="#E4F1DD" stroke="#304D9C" stroke-miterlimit="10"/>
<path d="M50.829 64.6161H50.724V68.6701H50.829V64.6161Z" fill="#E3F1DC" stroke="#304D9C" stroke-miterlimit="10"/>
<path d="M50.934 64.6161H50.829V68.6701H50.934V64.6161Z" fill="#E2F0DB" stroke="#304D9C" stroke-miterlimit="10"/>
<path d="M51.039 64.6161H50.935V68.6701H51.039V64.6161Z" fill="#E2F0DA" stroke="#304D9C" stroke-miterlimit="10"/>
<path d="M51.144 64.6161H51.038V68.6701H51.144V64.6161Z" fill="#E1F0D9" stroke="#304D9C" stroke-miterlimit="10"/>
<path d="M51.25 64.6161H51.145V68.6701H51.25V64.6161Z" fill="#DFEFD8" stroke="#304D9C" stroke-miterlimit="10"/>
<path d="M51.354 64.6161H51.25V68.6701H51.354V64.6161Z" fill="#DFEED6" stroke="#304D9C" stroke-miterlimit="10"/>
<path d="M51.46 64.6161H51.354V68.6701H51.46V64.6161Z" fill="#DEEED6" stroke="#304D9C" stroke-miterlimit="10"/>
<path d="M51.564 64.6161H51.46V68.6701H51.564V64.6161Z" fill="#DEEED5" stroke="#304D9C" stroke-miterlimit="10"/>
<path d="M51.668 64.6161H51.564V68.6701H51.668V64.6161Z" fill="#DDEDD4" stroke="#304D9C" stroke-miterlimit="10"/>
<path d="M51.774 64.6161H51.668V68.6701H51.774V64.6161Z" fill="#DCEDD3" stroke="#304D9C" stroke-miterlimit="10"/>
<path d="M51.879 64.6161H51.775V68.6701H51.879V64.6161Z" fill="#DBEDD1" stroke="#304D9C" stroke-miterlimit="10"/>
<path d="M51.983 64.6161H51.8781V68.6701H51.983V64.6161Z" fill="#DAECD1" stroke="#304D9C" stroke-miterlimit="10"/>
<path d="M52.09 64.6161H51.984V68.6701H52.09V64.6161Z" fill="#DAECD0" stroke="#304D9C" stroke-miterlimit="10"/>
<path d="M52.194 64.6161H52.09V68.6701H52.194V64.6161Z" fill="#D9ECCF" stroke="#304D9C" stroke-miterlimit="10"/>
<path d="M52.299 64.6161H52.195V68.6701H52.299V64.6161Z" fill="#D8EBCE" stroke="#304D9C" stroke-miterlimit="10"/>
<path d="M52.4041 64.6161H52.299V68.6701H52.4041V64.6161Z" fill="#D8EBCD" stroke="#304D9C" stroke-miterlimit="10"/>
<path d="M52.509 64.6161H52.405V68.6701H52.509V64.6161Z" fill="#D7EACC" stroke="#304D9C" stroke-miterlimit="10"/>
<path d="M52.613 64.6161H52.509V68.6701H52.613V64.6161Z" fill="#D7EACB" stroke="#304D9C" stroke-miterlimit="10"/>
<path d="M52.718 64.6161H52.614V68.6701H52.718V64.6161Z" fill="#D6EACB" stroke="#304D9C" stroke-miterlimit="10"/>
<path d="M52.824 64.6161H52.718V68.6701H52.824V64.6161Z" fill="#D5E9C9" stroke="#304D9C" stroke-miterlimit="10"/>
<path d="M52.928 64.6161H52.824V68.6701H52.928V64.6161Z" fill="#D4E9C8" stroke="#304D9C" stroke-miterlimit="10"/>
<path d="M53.035 64.6161H52.928V68.6701H53.035V64.6161Z" fill="#D4E9C8" stroke="#304D9C" stroke-miterlimit="10"/>
<path d="M53.138 64.6161H53.035V68.6701H53.138V64.6161Z" fill="#D3E9C6" stroke="#304D9C" stroke-miterlimit="10"/>
<path d="M53.244 64.6161H53.138V68.6701H53.244V64.6161Z" fill="#D2E8C5" stroke="#304D9C" stroke-miterlimit="10"/>
<path d="M53.348 64.6161H53.244V68.6701H53.348V64.6161Z" fill="#D0E7C5" stroke="#304D9C" stroke-miterlimit="10"/>
<path d="M53.454 64.6161H53.349V68.6701H53.454V64.6161Z" fill="#D0E7C3" stroke="#304D9C" stroke-miterlimit="10"/>
<path d="M53.558 64.6161H53.454V68.6701H53.558V64.6161Z" fill="#D0E7C2" stroke="#304D9C" stroke-miterlimit="10"/>
<path d="M53.664 64.6161H53.558V68.6701H53.664V64.6161Z" fill="#CFE6C1" stroke="#304D9C" stroke-miterlimit="10"/>
<path d="M53.768 64.6161H53.664V68.6701H53.768V64.6161Z" fill="#CEE6C0" stroke="#304D9C" stroke-miterlimit="10"/>
<path d="M53.873 64.6161H53.769V68.6701H53.873V64.6161Z" fill="#CDE5BF" stroke="#304D9C" stroke-miterlimit="10"/>
<path d="M53.978 64.6161H53.873V68.6701H53.978V64.6161Z" fill="#CBE5BE" stroke="#304D9C" stroke-miterlimit="10"/>
<path d="M54.083 64.6161H53.979V68.6701H54.083V64.6161Z" fill="#CBE5BD" stroke="#304D9C" stroke-miterlimit="10"/>
<path d="M54.188 64.6161H54.083V68.6701H54.188V64.6161Z" fill="#CAE4BC" stroke="#304D9C" stroke-miterlimit="10"/>
<path d="M54.293 64.6161H54.189V68.6701H54.293V64.6161Z" fill="#C9E4BB" stroke="#304D9C" stroke-miterlimit="10"/>
<path d="M54.399 64.6161H54.293V68.6701H54.399V64.6161Z" fill="#C9E3BA" stroke="#304D9C" stroke-miterlimit="10"/>
<path d="M54.504 64.6161H54.4V68.6701H54.504V64.6161Z" fill="#C8E3B9" stroke="#304D9C" stroke-miterlimit="10"/>
<path d="M54.608 64.6161H54.504V68.6701H54.608V64.6161Z" fill="#C8E3B8" stroke="#304D9C" stroke-miterlimit="10"/>
<path d="M54.7141 64.6161H54.609V68.6701H54.7141V64.6161Z" fill="#C7E2B7" stroke="#304D9C" stroke-miterlimit="10"/>
<path d="M54.8181 64.6161H54.7141V68.6701H54.8181V64.6161Z" fill="#C6E2B6" stroke="#304D9C" stroke-miterlimit="10"/>
<path d="M54.924 64.6161H54.819V68.6701H54.924V64.6161Z" fill="#C5E2B5" stroke="#304D9C" stroke-miterlimit="10"/>
<path d="M55.028 64.6161H54.924V68.6701H55.028V64.6161Z" fill="#C4E1B5" stroke="#304D9C" stroke-miterlimit="10"/>
<path d="M55.134 64.6161H55.0291V68.6701H55.134V64.6161Z" fill="#C4E1B3" stroke="#304D9C" stroke-miterlimit="10"/>
<path d="M55.239 64.6161H55.134V68.6701H55.239V64.6161Z" fill="#C3E1B2" stroke="#304D9C" stroke-miterlimit="10"/>
<path d="M55.3441 64.6161H55.2401V68.6701H55.3441V64.6161Z" fill="#C2E0B1" stroke="#304D9C" stroke-miterlimit="10"/>
<path d="M55.449 64.6161H55.3441V68.6701H55.449V64.6161Z" fill="#C1E0B0" stroke="#304D9C" stroke-miterlimit="10"/>
<path d="M55.553 64.6161H55.449V68.6701H55.553V64.6161Z" fill="#C0E0B0" stroke="#304D9C" stroke-miterlimit="10"/>
<path d="M55.658 64.6161H55.553V68.6701H55.658V64.6161Z" fill="#C1DFAE" stroke="#304D9C" stroke-miterlimit="10"/>
<path d="M55.762 64.6161H55.658V68.6701H55.762V64.6161Z" fill="#BFDFAD" stroke="#304D9C" stroke-miterlimit="10"/>
<path d="M55.867 64.6161H55.763V68.6701H55.867V64.6161Z" fill="#BEDEAD" stroke="#304D9C" stroke-miterlimit="10"/>
<path d="M55.972 64.6161H55.867V68.6701H55.972V64.6161Z" fill="#BDDEAB" stroke="#304D9C" stroke-miterlimit="10"/>
<path d="M56.08 64.6161H55.973V68.6701H56.08V64.6161Z" fill="#BCDDAA" stroke="#304D9C" stroke-miterlimit="10"/>
<path d="M56.184 64.6161H56.08V68.6701H56.184V64.6161Z" fill="#BCDDAA" stroke="#304D9C" stroke-miterlimit="10"/>
<path d="M56.288 64.6161H56.184V68.6701H56.288V64.6161Z" fill="#BBDDA9" stroke="#304D9C" stroke-miterlimit="10"/>
<path d="M56.393 64.6161H56.288V68.6701H56.393V64.6161Z" fill="#BADDA8" stroke="#304D9C" stroke-miterlimit="10"/>
<path d="M56.498 64.6161H56.394V68.6701H56.498V64.6161Z" fill="#B9DCA7" stroke="#304D9C" stroke-miterlimit="10"/>
<path d="M56.6021 64.6161H56.498V68.6701H56.6021V64.6161Z" fill="#B8DCA6" stroke="#304D9C" stroke-miterlimit="10"/>
<path d="M56.708 64.6161H56.6021V68.6701H56.708V64.6161Z" fill="#B8DCA5" stroke="#304D9C" stroke-miterlimit="10"/>
<path d="M56.812 64.6161H56.708V68.6701H56.812V64.6161Z" fill="#B8DBA4" stroke="#304D9C" stroke-miterlimit="10"/>
<path d="M56.918 64.6161H56.813V68.6701H56.918V64.6161Z" fill="#B7DBA2" stroke="#304D9C" stroke-miterlimit="10"/>
<path d="M57.023 64.6161H56.918V68.6701H57.023V64.6161Z" fill="#B6DAA0" stroke="#304D9C" stroke-miterlimit="10"/>
<path d="M57.1281 64.6161H57.024V68.6701H57.1281V64.6161Z" fill="#B6DAA0" stroke="#304D9C" stroke-miterlimit="10"/>
<path d="M57.2321 64.6161H57.127V68.6701H57.2321V64.6161Z" fill="#B5DA9E" stroke="#304D9C" stroke-miterlimit="10"/>
<path d="M57.338 64.6161H57.233V68.6701H57.338V64.6161Z" fill="#B4D99E" stroke="#304D9C" stroke-miterlimit="10"/>
<path d="M57.442 64.6161H57.338V68.6701H57.442V64.6161Z" fill="#B3D99C" stroke="#304D9C" stroke-miterlimit="10"/>
<path d="M57.5471 64.6161H57.4431V68.6701H57.5471V64.6161Z" fill="#B1D89B" stroke="#304D9C" stroke-miterlimit="10"/>
<path d="M57.653 64.6161H57.5471V68.6701H57.653V64.6161Z" fill="#B1D89A" stroke="#304D9C" stroke-miterlimit="10"/>
<path d="M57.7581 64.6161H57.6541V68.6701H57.7581V64.6161Z" fill="#B0D899" stroke="#304D9C" stroke-miterlimit="10"/>
<path d="M57.862 64.6161H57.7581V68.6701H57.862V64.6161Z" fill="#B0D798" stroke="#304D9C" stroke-miterlimit="10"/>
<path d="M57.9691 64.6161H57.863V68.6701H57.9691V64.6161Z" fill="#AFD797" stroke="#304D9C" stroke-miterlimit="10"/>
<path d="M58.073 64.6161H57.9691V68.6701H58.073V64.6161Z" fill="#ADD696" stroke="#304D9C" stroke-miterlimit="10"/>
<path d="M58.178 64.6161H58.073V68.6701H58.178V64.6161Z" fill="#ADD695" stroke="#304D9C" stroke-miterlimit="10"/>
<path d="M58.283 64.6161H58.178V68.6701H58.283V64.6161Z" fill="#ACD694" stroke="#304D9C" stroke-miterlimit="10"/>
<path d="M58.387 64.6161H58.283V68.6701H58.387V64.6161Z" fill="#ABD593" stroke="#304D9C" stroke-miterlimit="10"/>
<path d="M58.493 64.6161H58.388V68.6701H58.493V64.6161Z" fill="#A9D591" stroke="#304D9C" stroke-miterlimit="10"/>
<path d="M58.597 64.6161H58.493V68.6701H58.597V64.6161Z" fill="#A9D591" stroke="#304D9C" stroke-miterlimit="10"/>
<path d="M58.703 64.6161H58.598V68.6701H58.703V64.6161Z" fill="#A8D48F" stroke="#304D9C" stroke-miterlimit="10"/>
<path d="M58.807 64.6161H58.703V68.6701H58.807V64.6161Z" fill="#A7D48F" stroke="#304D9C" stroke-miterlimit="10"/>
<path d="M58.913 64.6161H58.807V68.6701H58.913V64.6161Z" fill="#A6D38D" stroke="#304D9C" stroke-miterlimit="10"/>
<path d="M59.017 64.6161H58.913V68.6701H59.017V64.6161Z" fill="#A6D38D" stroke="#304D9C" stroke-miterlimit="10"/>
<path d="M59.123 64.6161H59.017V68.6701H59.123V64.6161Z" fill="#A5D38B" stroke="#304D9C" stroke-miterlimit="10"/>
<path d="M59.2271 64.6161H59.123V68.6701H59.2271V64.6161Z" fill="#A5D38B" stroke="#304D9C" stroke-miterlimit="10"/>
<path d="M59.333 64.6161H59.2271V68.6701H59.333V64.6161Z" fill="#A4D28A" stroke="#304D9C" stroke-miterlimit="10"/>
<path d="M59.437 64.6161H59.333V68.6701H59.437V64.6161Z" fill="#A3D289" stroke="#304D9C" stroke-miterlimit="10"/>
<path d="M59.5421 64.6161H59.438V68.6701H59.5421V64.6161Z" fill="#A2D188" stroke="#304D9C" stroke-miterlimit="10"/>
<path d="M59.647 64.6161H59.5421V68.6701H59.647V64.6161Z" fill="#A1D187" stroke="#304D9C" stroke-miterlimit="10"/>
<path d="M59.752 64.6161H59.648V68.6701H59.752V64.6161Z" fill="#A1D186" stroke="#304D9C" stroke-miterlimit="10"/>
<path d="M59.856 64.6161H59.752V68.6701H59.856V64.6161Z" fill="#9FD085" stroke="#304D9C" stroke-miterlimit="10"/>
<path d="M59.962 64.6161H59.8571V68.6701H59.962V64.6161Z" fill="#9ED085" stroke="#304D9C" stroke-miterlimit="10"/>
<path d="M60.067 64.6161H59.962V68.6701H60.067V64.6161Z" fill="#9DD083" stroke="#304D9C" stroke-miterlimit="10"/>
<path d="M60.173 64.6161H60.0681V68.6701H60.173V64.6161Z" fill="#9CCF83" stroke="#304D9C" stroke-miterlimit="10"/>
<path d="M60.278 64.6161H60.173V68.6701H60.278V64.6161Z" fill="#9DCF82" stroke="#304D9C" stroke-miterlimit="10"/>
<path d="M60.3831 64.6161H60.2791V68.6701H60.3831V64.6161Z" fill="#9CCF81" stroke="#304D9C" stroke-miterlimit="10"/>
<path d="M60.487 64.6161H60.3831V68.6701H60.487V64.6161Z" fill="#9BCE80" stroke="#304D9C" stroke-miterlimit="10"/>
<path d="M60.592 64.6161H60.488V68.6701H60.592V64.6161Z" fill="#9ACE7E" stroke="#304D9C" stroke-miterlimit="10"/>
<path d="M60.697 64.6161H60.592V68.6701H60.697V64.6161Z" fill="#99CE7E" stroke="#304D9C" stroke-miterlimit="10"/>
<path d="M60.802 64.6161H60.698V68.6701H60.802V64.6161Z" fill="#99CE7C" stroke="#304D9C" stroke-miterlimit="10"/>
<path d="M60.906 64.6161H60.801V68.6701H60.906V64.6161Z" fill="#98CD7C" stroke="#304D9C" stroke-miterlimit="10"/>
<path d="M61.014 64.6161H60.907V68.6701H61.014V64.6161Z" fill="#97CD7A" stroke="#304D9C" stroke-miterlimit="10"/>
<path d="M61.117 64.6161H61.014V68.6701H61.117V64.6161Z" fill="#97CD79" stroke="#304D9C" stroke-miterlimit="10"/>
<path d="M61.222 64.6161H61.116V68.6701H61.222V64.6161Z" fill="#97CD79" stroke="#304D9C" stroke-miterlimit="10"/>
<path d="M61.328 64.6161H61.223V68.6701H61.328V64.6161Z" fill="#96CC77" stroke="#304D9C" stroke-miterlimit="10"/>
<path d="M61.432 64.6161H61.328V68.6701H61.432V64.6161Z" fill="#95CC76" stroke="#304D9C" stroke-miterlimit="10"/>
<path d="M61.537 64.6161H61.432V68.6701H61.537V64.6161Z" fill="#94CC76" stroke="#304D9C" stroke-miterlimit="10"/>
<path d="M61.6411 64.6161H61.537V68.6701H61.6411V64.6161Z" fill="#93CB74" stroke="#304D9C" stroke-miterlimit="10"/>
<path d="M61.747 64.6161H61.642V68.6701H61.747V64.6161Z" fill="#92CB73" stroke="#304D9C" stroke-miterlimit="10"/>
<path d="M61.851 64.6161H61.747V68.6701H61.851V64.6161Z" fill="#91CA73" stroke="#304D9C" stroke-miterlimit="10"/>
<path d="M61.958 64.6161H61.8521V68.6701H61.958V64.6161Z" fill="#90CA72" stroke="#304D9C" stroke-miterlimit="10"/>
<path d="M62.061 64.6161H61.958V68.6701H62.061V64.6161Z" fill="#8FCA70" stroke="#304D9C" stroke-miterlimit="10"/>
<path d="M62.1671 64.6161H62.061V68.6701H62.1671V64.6161Z" fill="#8FCA70" stroke="#304D9C" stroke-miterlimit="10"/>
<path d="M62.2711 64.6161H62.1671V68.6701H62.2711V64.6161Z" fill="#8EC96F" stroke="#304D9C" stroke-miterlimit="10"/>
<path d="M62.377 64.6161H62.272V68.6701H62.377V64.6161Z" fill="#8DC96E" stroke="#304D9C" stroke-miterlimit="10"/>
<path d="M62.481 64.6161H62.377V68.6701H62.481V64.6161Z" fill="#8DC96D" stroke="#304D9C" stroke-miterlimit="10"/>
<path d="M62.588 64.6161H62.481V68.6701H62.588V64.6161Z" fill="#8CC86C" stroke="#304D9C" stroke-miterlimit="10"/>
<path d="M62.692 64.6161H62.588V68.6701H62.692V64.6161Z" fill="#8BC86B" stroke="#304D9C" stroke-miterlimit="10"/>
<path d="M62.796 64.6161H62.692V68.6701H62.796V64.6161Z" fill="#8BC86A" stroke="#304D9C" stroke-miterlimit="10"/>
<path d="M62.901 64.6161H62.796V68.6701H62.901V64.6161Z" fill="#89C76A" stroke="#304D9C" stroke-miterlimit="10"/>
<path d="M63.006 64.6161H62.902V68.6701H63.006V64.6161Z" fill="#88C768" stroke="#304D9C" stroke-miterlimit="10"/>
<path d="M63.112 64.6161H63.006V68.6701H63.112V64.6161Z" fill="#88C767" stroke="#304D9C" stroke-miterlimit="10"/>
<path d="M63.217 64.6161H63.113V68.6701H63.217V64.6161Z" fill="#86C667" stroke="#304D9C" stroke-miterlimit="10"/>
<path d="M63.322 64.6161H63.217V68.6701H63.322V64.6161Z" fill="#86C666" stroke="#304D9C" stroke-miterlimit="10"/>
<path d="M63.427 64.6161H63.323V68.6701H63.427V64.6161Z" fill="#85C664" stroke="#304D9C" stroke-miterlimit="10"/>
<path d="M63.532 64.6161H63.427V68.6701H63.532V64.6161Z" fill="#84C664" stroke="#304D9C" stroke-miterlimit="10"/>
<path d="M63.637 64.6161H63.533V68.6701H63.637V64.6161Z" fill="#83C562" stroke="#304D9C" stroke-miterlimit="10"/>
<path d="M63.741 64.6161H63.637V68.6701H63.741V64.6161Z" fill="#82C561" stroke="#304D9C" stroke-miterlimit="10"/>
<path d="M63.845 64.6161H63.741V68.6701H63.845V64.6161Z" fill="#83C561" stroke="#304D9C" stroke-miterlimit="10"/>
<path d="M63.951 64.6161H63.846V68.6701H63.951V64.6161Z" fill="#82C560" stroke="#304D9C" stroke-miterlimit="10"/>
<path d="M64.056 64.6161H63.951V68.6701H64.056V64.6161Z" fill="#81C45E" stroke="#304D9C" stroke-miterlimit="10"/>
<path d="M64.161 64.6161H64.057V68.6701H64.161V64.6161Z" fill="#80C45E" stroke="#304D9C" stroke-miterlimit="10"/>
<path d="M64.267 64.6161H64.161V68.6701H64.267V64.6161Z" fill="#7FC45D" stroke="#304D9C" stroke-miterlimit="10"/>
<path d="M64.372 64.6161H64.268V68.6701H64.372V64.6161Z" fill="#7EC35C" stroke="#304D9C" stroke-miterlimit="10"/>
<path d="M64.476 64.6161H64.372V68.6701H64.476V64.6161Z" fill="#7DC35B" stroke="#304D9C" stroke-miterlimit="10"/>
<path d="M64.582 64.6161H64.476V68.6701H64.582V64.6161Z" fill="#7DC359" stroke="#304D9C" stroke-miterlimit="10"/>
<path d="M64.686 64.6161H64.582V68.6701H64.686V64.6161Z" fill="#7BC259" stroke="#304D9C" stroke-miterlimit="10"/>
<path d="M64.79 64.6161H64.686V68.6701H64.79V64.6161Z" fill="#7BC257" stroke="#304D9C" stroke-miterlimit="10"/>
<path d="M64.895 64.6161H64.79V68.6701H64.895V64.6161Z" fill="#7AC256" stroke="#304D9C" stroke-miterlimit="10"/>
<path d="M65.002 64.6161H64.8961V68.6701H65.002V64.6161Z" fill="#79C255" stroke="#304D9C" stroke-miterlimit="10"/>
<path d="M65.106 64.6161H65.002V68.6701H65.106V64.6161Z" fill="#78C154" stroke="#304D9C" stroke-miterlimit="10"/>
<path d="M65.212 64.6161H65.106V68.6701H65.212V64.6161Z" fill="#79C153" stroke="#304D9C" stroke-miterlimit="10"/>
<path d="M65.316 64.6161H65.212V68.6701H65.316V64.6161Z" fill="#78C152" stroke="#304D9C" stroke-miterlimit="10"/>
<path d="M65.421 64.6161H65.317V68.6701H65.421V64.6161Z" fill="#77C151" stroke="#304D9C" stroke-miterlimit="10"/>
<path d="M65.525 64.6161H65.421V68.6701H65.525V64.6161Z" fill="#77C14F" stroke="#304D9C" stroke-miterlimit="10"/>
<path d="M65.631 64.6161H65.526V68.6701H65.631V64.6161Z" fill="#76C04F" stroke="#304D9C" stroke-miterlimit="10"/>
<path d="M65.735 64.6161H65.631V68.6701H65.735V64.6161Z" fill="#75C04E" stroke="#304D9C" stroke-miterlimit="10"/>
<path d="M65.841 64.6161H65.736V68.6701H65.841V64.6161Z" fill="#74C04C" stroke="#304D9C" stroke-miterlimit="10"/>
<path d="M65.947 64.6161H65.841V68.6701H65.947V64.6161Z" fill="#74C04B" stroke="#304D9C" stroke-miterlimit="10"/>
<path d="M66.051 64.6161H65.948V68.6701H66.051V64.6161Z" fill="#73C04A" stroke="#304D9C" stroke-miterlimit="10"/>
<path d="M66.157 64.6161H66.05V68.6701H66.157V64.6161Z" fill="#72BF49" stroke="#304D9C" stroke-miterlimit="10"/>
<path d="M66.262 64.6161H66.158V68.6701H66.262V64.6161Z" fill="#71BF48" stroke="#304D9C" stroke-miterlimit="10"/>
<path d="M66.366 64.6161H66.262V68.6701H66.366V64.6161Z" fill="#71BF47" stroke="#304D9C" stroke-miterlimit="10"/>
<path d="M66.47 64.6161H66.366V68.6701H66.47V64.6161Z" fill="#70BF47" stroke="#304D9C" stroke-miterlimit="10"/>
<path d="M66.576 64.6161H66.471V68.6701H66.576V64.6161Z" fill="#6FBE46" stroke="#304D9C" stroke-miterlimit="10"/>
<path d="M79.015 64.6161H66.576V68.6701H79.015V64.6161Z" fill="#6FBE46" stroke="#304D9C" stroke-miterlimit="10"/>
<path d="M79.0161 66.6431C79.0161 67.7631 77.968 68.6701 76.673 68.6701H49.392C48.098 68.6701 47.051 67.7621 47.051 66.6431C47.051 65.5231 48.098 64.6161 49.392 64.6161H76.673C77.968 64.6161 79.0161 65.5231 79.0161 66.6431Z" stroke="#304D9C" stroke-miterlimit="10"/>
<path d="M47.049 84.624V88.679V84.624Z" fill="white" stroke="#304D9C" stroke-miterlimit="10"/>
<path d="M47.156 84.624H47.049V88.679H47.156V84.624Z" fill="white" stroke="#304D9C" stroke-miterlimit="10"/>
<path d="M47.261 84.624H47.157V88.679H47.261V84.624Z" fill="white" stroke="#304D9C" stroke-miterlimit="10"/>
<path d="M47.3651 84.624H47.261V88.679H47.3651V84.624Z" fill="#FDFEFF" stroke="#304D9C" stroke-miterlimit="10"/>
<path d="M47.47 84.624H47.366V88.679H47.47V84.624Z" fill="#FDFEFD" stroke="#304D9C" stroke-miterlimit="10"/>
<path d="M47.575 84.624H47.47V88.679H47.575V84.624Z" fill="#FCFDFB" stroke="#304D9C" stroke-miterlimit="10"/>
<path d="M47.679 84.624H47.575V88.679H47.679V84.624Z" fill="#FCFDFB" stroke="#304D9C" stroke-miterlimit="10"/>
<path d="M47.785 84.624H47.679V88.679H47.785V84.624Z" fill="#FAFDF9" stroke="#304D9C" stroke-miterlimit="10"/>
<path d="M47.889 84.624H47.785V88.679H47.889V84.624Z" fill="#F9FCF7" stroke="#304D9C" stroke-miterlimit="10"/>
<path d="M47.994 84.624H47.89V88.679H47.994V84.624Z" fill="#F9FCF7" stroke="#304D9C" stroke-miterlimit="10"/>
<path d="M48.099 84.624H47.994V88.679H48.099V84.624Z" fill="#F8FBF6" stroke="#304D9C" stroke-miterlimit="10"/>
<path d="M48.2061 84.624H48.1V88.679H48.2061V84.624Z" fill="#F7FBF6" stroke="#304D9C" stroke-miterlimit="10"/>
<path d="M48.31 84.624H48.2061V88.679H48.31V84.624Z" fill="#F7FBF4" stroke="#304D9C" stroke-miterlimit="10"/>
<path d="M48.414 84.624H48.31V88.679H48.414V84.624Z" fill="#F6FAF3" stroke="#304D9C" stroke-miterlimit="10"/>
<path d="M48.519 84.624H48.414V88.679H48.519V84.624Z" fill="#F6FAF2" stroke="#304D9C" stroke-miterlimit="10"/>
<path d="M48.625 84.624H48.52V88.679H48.625V84.624Z" fill="#F5FAF2" stroke="#304D9C" stroke-miterlimit="10"/>
<path d="M48.729 84.624H48.625V88.679H48.729V84.624Z" fill="#F4F9F0" stroke="#304D9C" stroke-miterlimit="10"/>
<path d="M48.835 84.624H48.73V88.679H48.835V84.624Z" fill="#F3F9EF" stroke="#304D9C" stroke-miterlimit="10"/>
<path d="M48.939 84.624H48.835V88.679H48.939V84.624Z" fill="#F2F8EE" stroke="#304D9C" stroke-miterlimit="10"/>
<path d="M49.045 84.624H48.939V88.679H49.045V84.624Z" fill="#F2F8ED" stroke="#304D9C" stroke-miterlimit="10"/>
<path d="M49.149 84.624H49.045V88.679H49.149V84.624Z" fill="#F1F8EC" stroke="#304D9C" stroke-miterlimit="10"/>
<path d="M49.255 84.624H49.15V88.679H49.255V84.624Z" fill="#F0F7EB" stroke="#304D9C" stroke-miterlimit="10"/>
<path d="M49.359 84.624H49.255V88.679H49.359V84.624Z" fill="#EFF7EB" stroke="#304D9C" stroke-miterlimit="10"/>
<path d="M49.465 84.624H49.36V88.679H49.465V84.624Z" fill="#EFF7EA" stroke="#304D9C" stroke-miterlimit="10"/>
<path d="M49.57 84.624H49.465V88.679H49.57V84.624Z" fill="#EDF6E8" stroke="#304D9C" stroke-miterlimit="10"/>
<path d="M49.675 84.624H49.571V88.679H49.675V84.624Z" fill="#ECF5E7" stroke="#304D9C" stroke-miterlimit="10"/>
<path d="M49.78 84.624H49.674V88.679H49.78V84.624Z" fill="#EBF5E6" stroke="#304D9C" stroke-miterlimit="10"/>
<path d="M49.885 84.624H49.781V88.679H49.885V84.624Z" fill="#EAF4E6" stroke="#304D9C" stroke-miterlimit="10"/>
<path d="M49.9901 84.624H49.884V88.679H49.9901V84.624Z" fill="#EAF4E4" stroke="#304D9C" stroke-miterlimit="10"/>
<path d="M50.095 84.624H49.991V88.679H50.095V84.624Z" fill="#EAF4E3" stroke="#304D9C" stroke-miterlimit="10"/>
<path d="M50.2 84.624H50.0941V88.679H50.2V84.624Z" fill="#E9F3E3" stroke="#304D9C" stroke-miterlimit="10"/>
<path d="M50.304 84.624H50.2V88.679H50.304V84.624Z" fill="#E8F3E2" stroke="#304D9C" stroke-miterlimit="10"/>
<path d="M50.41 84.624H50.3051V88.679H50.41V84.624Z" fill="#E7F3E0" stroke="#304D9C" stroke-miterlimit="10"/>
<path d="M50.514 84.624H50.41V88.679H50.514V84.624Z" fill="#E7F2DF" stroke="#304D9C" stroke-miterlimit="10"/>
<path d="M50.619 84.624H50.515V88.679H50.619V84.624Z" fill="#E5F2DE" stroke="#304D9C" stroke-miterlimit="10"/>
<path d="M50.723 84.624H50.619V88.679H50.723V84.624Z" fill="#E4F1DD" stroke="#304D9C" stroke-miterlimit="10"/>
<path d="M50.829 84.624H50.724V88.679H50.829V84.624Z" fill="#E3F1DC" stroke="#304D9C" stroke-miterlimit="10"/>
<path d="M50.934 84.624H50.829V88.679H50.934V84.624Z" fill="#E2F0DB" stroke="#304D9C" stroke-miterlimit="10"/>
<path d="M51.039 84.624H50.935V88.679H51.039V84.624Z" fill="#E2F0DA" stroke="#304D9C" stroke-miterlimit="10"/>
<path d="M51.144 84.624H51.038V88.679H51.144V84.624Z" fill="#E1F0D9" stroke="#304D9C" stroke-miterlimit="10"/>
<path d="M51.25 84.624H51.145V88.679H51.25V84.624Z" fill="#DFEFD8" stroke="#304D9C" stroke-miterlimit="10"/>
<path d="M51.354 84.624H51.25V88.679H51.354V84.624Z" fill="#DFEED6" stroke="#304D9C" stroke-miterlimit="10"/>
<path d="M51.46 84.624H51.354V88.679H51.46V84.624Z" fill="#DEEED6" stroke="#304D9C" stroke-miterlimit="10"/>
<path d="M51.564 84.624H51.46V88.679H51.564V84.624Z" fill="#DEEED5" stroke="#304D9C" stroke-miterlimit="10"/>
<path d="M51.668 84.624H51.564V88.679H51.668V84.624Z" fill="#DDEDD4" stroke="#304D9C" stroke-miterlimit="10"/>
<path d="M51.774 84.624H51.668V88.679H51.774V84.624Z" fill="#DCEDD3" stroke="#304D9C" stroke-miterlimit="10"/>
<path d="M51.879 84.624H51.775V88.679H51.879V84.624Z" fill="#DBEDD1" stroke="#304D9C" stroke-miterlimit="10"/>
<path d="M51.983 84.624H51.8781V88.679H51.983V84.624Z" fill="#DAECD1" stroke="#304D9C" stroke-miterlimit="10"/>
<path d="M52.09 84.624H51.984V88.679H52.09V84.624Z" fill="#DAECD0" stroke="#304D9C" stroke-miterlimit="10"/>
<path d="M52.194 84.624H52.09V88.679H52.194V84.624Z" fill="#D9ECCF" stroke="#304D9C" stroke-miterlimit="10"/>
<path d="M52.299 84.624H52.195V88.679H52.299V84.624Z" fill="#D8EBCE" stroke="#304D9C" stroke-miterlimit="10"/>
<path d="M52.4041 84.624H52.299V88.679H52.4041V84.624Z" fill="#D8EBCD" stroke="#304D9C" stroke-miterlimit="10"/>
<path d="M52.509 84.624H52.405V88.679H52.509V84.624Z" fill="#D7EACC" stroke="#304D9C" stroke-miterlimit="10"/>
<path d="M52.613 84.624H52.509V88.679H52.613V84.624Z" fill="#D7EACB" stroke="#304D9C" stroke-miterlimit="10"/>
<path d="M52.718 84.624H52.614V88.679H52.718V84.624Z" fill="#D6EACB" stroke="#304D9C" stroke-miterlimit="10"/>
<path d="M52.824 84.624H52.718V88.679H52.824V84.624Z" fill="#D5E9C9" stroke="#304D9C" stroke-miterlimit="10"/>
<path d="M52.928 84.624H52.824V88.679H52.928V84.624Z" fill="#D4E9C8" stroke="#304D9C" stroke-miterlimit="10"/>
<path d="M53.035 84.624H52.928V88.679H53.035V84.624Z" fill="#D4E9C8" stroke="#304D9C" stroke-miterlimit="10"/>
<path d="M53.138 84.624H53.035V88.679H53.138V84.624Z" fill="#D3E9C6" stroke="#304D9C" stroke-miterlimit="10"/>
<path d="M53.244 84.624H53.138V88.679H53.244V84.624Z" fill="#D2E8C5" stroke="#304D9C" stroke-miterlimit="10"/>
<path d="M53.348 84.624H53.244V88.679H53.348V84.624Z" fill="#D0E7C5" stroke="#304D9C" stroke-miterlimit="10"/>
<path d="M53.454 84.624H53.349V88.679H53.454V84.624Z" fill="#D0E7C3" stroke="#304D9C" stroke-miterlimit="10"/>
<path d="M53.558 84.624H53.454V88.679H53.558V84.624Z" fill="#D0E7C2" stroke="#304D9C" stroke-miterlimit="10"/>
<path d="M53.664 84.624H53.558V88.679H53.664V84.624Z" fill="#CFE6C1" stroke="#304D9C" stroke-miterlimit="10"/>
<path d="M53.768 84.624H53.664V88.679H53.768V84.624Z" fill="#CEE6C0" stroke="#304D9C" stroke-miterlimit="10"/>
<path d="M53.873 84.624H53.769V88.679H53.873V84.624Z" fill="#CDE5BF" stroke="#304D9C" stroke-miterlimit="10"/>
<path d="M53.978 84.624H53.873V88.679H53.978V84.624Z" fill="#CBE5BE" stroke="#304D9C" stroke-miterlimit="10"/>
<path d="M54.083 84.624H53.979V88.679H54.083V84.624Z" fill="#CBE5BD" stroke="#304D9C" stroke-miterlimit="10"/>
<path d="M54.188 84.624H54.083V88.679H54.188V84.624Z" fill="#CAE4BC" stroke="#304D9C" stroke-miterlimit="10"/>
<path d="M54.293 84.624H54.189V88.679H54.293V84.624Z" fill="#C9E4BB" stroke="#304D9C" stroke-miterlimit="10"/>
<path d="M54.399 84.624H54.293V88.679H54.399V84.624Z" fill="#C9E3BA" stroke="#304D9C" stroke-miterlimit="10"/>
<path d="M54.504 84.624H54.4V88.679H54.504V84.624Z" fill="#C8E3B9" stroke="#304D9C" stroke-miterlimit="10"/>
<path d="M54.608 84.624H54.504V88.679H54.608V84.624Z" fill="#C8E3B8" stroke="#304D9C" stroke-miterlimit="10"/>
<path d="M54.7141 84.624H54.609V88.679H54.7141V84.624Z" fill="#C7E2B7" stroke="#304D9C" stroke-miterlimit="10"/>
<path d="M54.8181 84.624H54.7141V88.679H54.8181V84.624Z" fill="#C6E2B6" stroke="#304D9C" stroke-miterlimit="10"/>
<path d="M54.924 84.624H54.819V88.679H54.924V84.624Z" fill="#C5E2B5" stroke="#304D9C" stroke-miterlimit="10"/>
<path d="M55.028 84.624H54.924V88.679H55.028V84.624Z" fill="#C4E1B5" stroke="#304D9C" stroke-miterlimit="10"/>
<path d="M55.134 84.624H55.0291V88.679H55.134V84.624Z" fill="#C4E1B3" stroke="#304D9C" stroke-miterlimit="10"/>
<path d="M55.239 84.624H55.134V88.679H55.239V84.624Z" fill="#C3E1B2" stroke="#304D9C" stroke-miterlimit="10"/>
<path d="M55.3441 84.624H55.2401V88.679H55.3441V84.624Z" fill="#C2E0B1" stroke="#304D9C" stroke-miterlimit="10"/>
<path d="M55.449 84.624H55.3441V88.679H55.449V84.624Z" fill="#C1E0B0" stroke="#304D9C" stroke-miterlimit="10"/>
<path d="M55.553 84.624H55.449V88.679H55.553V84.624Z" fill="#C0E0B0" stroke="#304D9C" stroke-miterlimit="10"/>
<path d="M55.658 84.624H55.553V88.679H55.658V84.624Z" fill="#C1DFAE" stroke="#304D9C" stroke-miterlimit="10"/>
<path d="M55.762 84.624H55.658V88.679H55.762V84.624Z" fill="#BFDFAD" stroke="#304D9C" stroke-miterlimit="10"/>
<path d="M55.867 84.624H55.763V88.679H55.867V84.624Z" fill="#BEDEAD" stroke="#304D9C" stroke-miterlimit="10"/>
<path d="M55.972 84.624H55.867V88.679H55.972V84.624Z" fill="#BDDEAB" stroke="#304D9C" stroke-miterlimit="10"/>
<path d="M56.08 84.624H55.973V88.679H56.08V84.624Z" fill="#BCDDAA" stroke="#304D9C" stroke-miterlimit="10"/>
<path d="M56.184 84.624H56.08V88.679H56.184V84.624Z" fill="#BCDDAA" stroke="#304D9C" stroke-miterlimit="10"/>
<path d="M56.288 84.624H56.184V88.679H56.288V84.624Z" fill="#BBDDA9" stroke="#304D9C" stroke-miterlimit="10"/>
<path d="M56.393 84.624H56.288V88.679H56.393V84.624Z" fill="#BADDA8" stroke="#304D9C" stroke-miterlimit="10"/>
<path d="M56.498 84.624H56.394V88.679H56.498V84.624Z" fill="#B9DCA7" stroke="#304D9C" stroke-miterlimit="10"/>
<path d="M56.6021 84.624H56.498V88.679H56.6021V84.624Z" fill="#B8DCA6" stroke="#304D9C" stroke-miterlimit="10"/>
<path d="M56.708 84.624H56.6021V88.679H56.708V84.624Z" fill="#B8DCA5" stroke="#304D9C" stroke-miterlimit="10"/>
<path d="M56.812 84.624H56.708V88.679H56.812V84.624Z" fill="#B8DBA4" stroke="#304D9C" stroke-miterlimit="10"/>
<path d="M56.918 84.624H56.813V88.679H56.918V84.624Z" fill="#B7DBA2" stroke="#304D9C" stroke-miterlimit="10"/>
<path d="M57.023 84.624H56.918V88.679H57.023V84.624Z" fill="#B6DAA0" stroke="#304D9C" stroke-miterlimit="10"/>
<path d="M57.1281 84.624H57.024V88.679H57.1281V84.624Z" fill="#B6DAA0" stroke="#304D9C" stroke-miterlimit="10"/>
<path d="M57.2321 84.624H57.127V88.679H57.2321V84.624Z" fill="#B5DA9E" stroke="#304D9C" stroke-miterlimit="10"/>
<path d="M57.338 84.624H57.233V88.679H57.338V84.624Z" fill="#B4D99E" stroke="#304D9C" stroke-miterlimit="10"/>
<path d="M57.442 84.624H57.338V88.679H57.442V84.624Z" fill="#B3D99C" stroke="#304D9C" stroke-miterlimit="10"/>
<path d="M57.5471 84.624H57.4431V88.679H57.5471V84.624Z" fill="#B1D89B" stroke="#304D9C" stroke-miterlimit="10"/>
<path d="M57.653 84.624H57.5471V88.679H57.653V84.624Z" fill="#B1D89A" stroke="#304D9C" stroke-miterlimit="10"/>
<path d="M57.7581 84.624H57.6541V88.679H57.7581V84.624Z" fill="#B0D899" stroke="#304D9C" stroke-miterlimit="10"/>
<path d="M57.862 84.624H57.7581V88.679H57.862V84.624Z" fill="#B0D798" stroke="#304D9C" stroke-miterlimit="10"/>
<path d="M57.9691 84.624H57.863V88.679H57.9691V84.624Z" fill="#AFD797" stroke="#304D9C" stroke-miterlimit="10"/>
<path d="M58.073 84.624H57.9691V88.679H58.073V84.624Z" fill="#ADD696" stroke="#304D9C" stroke-miterlimit="10"/>
<path d="M58.178 84.624H58.073V88.679H58.178V84.624Z" fill="#ADD695" stroke="#304D9C" stroke-miterlimit="10"/>
<path d="M58.283 84.624H58.178V88.679H58.283V84.624Z" fill="#ACD694" stroke="#304D9C" stroke-miterlimit="10"/>
<path d="M58.387 84.624H58.283V88.679H58.387V84.624Z" fill="#ABD593" stroke="#304D9C" stroke-miterlimit="10"/>
<path d="M58.493 84.624H58.388V88.679H58.493V84.624Z" fill="#A9D591" stroke="#304D9C" stroke-miterlimit="10"/>
<path d="M58.597 84.624H58.493V88.679H58.597V84.624Z" fill="#A9D591" stroke="#304D9C" stroke-miterlimit="10"/>
<path d="M58.703 84.624H58.598V88.679H58.703V84.624Z" fill="#A8D48F" stroke="#304D9C" stroke-miterlimit="10"/>
<path d="M58.807 84.624H58.703V88.679H58.807V84.624Z" fill="#A7D48F" stroke="#304D9C" stroke-miterlimit="10"/>
<path d="M58.913 84.624H58.807V88.679H58.913V84.624Z" fill="#A6D38D" stroke="#304D9C" stroke-miterlimit="10"/>
<path d="M59.017 84.624H58.913V88.679H59.017V84.624Z" fill="#A6D38D" stroke="#304D9C" stroke-miterlimit="10"/>
<path d="M59.123 84.624H59.017V88.679H59.123V84.624Z" fill="#A5D38B" stroke="#304D9C" stroke-miterlimit="10"/>
<path d="M59.2271 84.624H59.123V88.679H59.2271V84.624Z" fill="#A5D38B" stroke="#304D9C" stroke-miterlimit="10"/>
<path d="M59.333 84.624H59.2271V88.679H59.333V84.624Z" fill="#A4D28A" stroke="#304D9C" stroke-miterlimit="10"/>
<path d="M59.437 84.624H59.333V88.679H59.437V84.624Z" fill="#A3D289" stroke="#304D9C" stroke-miterlimit="10"/>
<path d="M59.5421 84.624H59.438V88.679H59.5421V84.624Z" fill="#A2D188" stroke="#304D9C" stroke-miterlimit="10"/>
<path d="M59.647 84.624H59.5421V88.679H59.647V84.624Z" fill="#A1D187" stroke="#304D9C" stroke-miterlimit="10"/>
<path d="M59.752 84.624H59.648V88.679H59.752V84.624Z" fill="#A1D186" stroke="#304D9C" stroke-miterlimit="10"/>
<path d="M59.856 84.624H59.752V88.679H59.856V84.624Z" fill="#9FD085" stroke="#304D9C" stroke-miterlimit="10"/>
<path d="M59.962 84.624H59.8571V88.679H59.962V84.624Z" fill="#9ED085" stroke="#304D9C" stroke-miterlimit="10"/>
<path d="M60.067 84.624H59.962V88.679H60.067V84.624Z" fill="#9DD083" stroke="#304D9C" stroke-miterlimit="10"/>
<path d="M60.173 84.624H60.0681V88.679H60.173V84.624Z" fill="#9CCF83" stroke="#304D9C" stroke-miterlimit="10"/>
<path d="M60.278 84.624H60.173V88.679H60.278V84.624Z" fill="#9DCF82" stroke="#304D9C" stroke-miterlimit="10"/>
<path d="M60.3831 84.624H60.2791V88.679H60.3831V84.624Z" fill="#9CCF81" stroke="#304D9C" stroke-miterlimit="10"/>
<path d="M60.487 84.624H60.3831V88.679H60.487V84.624Z" fill="#9BCE80" stroke="#304D9C" stroke-miterlimit="10"/>
<path d="M60.592 84.624H60.488V88.679H60.592V84.624Z" fill="#9ACE7E" stroke="#304D9C" stroke-miterlimit="10"/>
<path d="M60.697 84.624H60.592V88.679H60.697V84.624Z" fill="#99CE7E" stroke="#304D9C" stroke-miterlimit="10"/>
<path d="M60.802 84.624H60.698V88.679H60.802V84.624Z" fill="#99CE7C" stroke="#304D9C" stroke-miterlimit="10"/>
<path d="M60.906 84.624H60.801V88.679H60.906V84.624Z" fill="#98CD7C" stroke="#304D9C" stroke-miterlimit="10"/>
<path d="M61.014 84.624H60.907V88.679H61.014V84.624Z" fill="#97CD7A" stroke="#304D9C" stroke-miterlimit="10"/>
<path d="M61.117 84.624H61.014V88.679H61.117V84.624Z" fill="#97CD79" stroke="#304D9C" stroke-miterlimit="10"/>
<path d="M61.222 84.624H61.116V88.679H61.222V84.624Z" fill="#97CD79" stroke="#304D9C" stroke-miterlimit="10"/>
<path d="M61.328 84.624H61.223V88.679H61.328V84.624Z" fill="#96CC77" stroke="#304D9C" stroke-miterlimit="10"/>
<path d="M61.432 84.624H61.328V88.679H61.432V84.624Z" fill="#95CC76" stroke="#304D9C" stroke-miterlimit="10"/>
<path d="M61.537 84.624H61.432V88.679H61.537V84.624Z" fill="#94CC76" stroke="#304D9C" stroke-miterlimit="10"/>
<path d="M61.6411 84.624H61.537V88.679H61.6411V84.624Z" fill="#93CB74" stroke="#304D9C" stroke-miterlimit="10"/>
<path d="M61.747 84.624H61.642V88.679H61.747V84.624Z" fill="#92CB73" stroke="#304D9C" stroke-miterlimit="10"/>
<path d="M61.851 84.624H61.747V88.679H61.851V84.624Z" fill="#91CA73" stroke="#304D9C" stroke-miterlimit="10"/>
<path d="M61.958 84.624H61.8521V88.679H61.958V84.624Z" fill="#90CA72" stroke="#304D9C" stroke-miterlimit="10"/>
<path d="M62.061 84.624H61.958V88.679H62.061V84.624Z" fill="#8FCA70" stroke="#304D9C" stroke-miterlimit="10"/>
<path d="M62.1671 84.624H62.061V88.679H62.1671V84.624Z" fill="#8FCA70" stroke="#304D9C" stroke-miterlimit="10"/>
<path d="M62.2711 84.624H62.1671V88.679H62.2711V84.624Z" fill="#8EC96F" stroke="#304D9C" stroke-miterlimit="10"/>
<path d="M62.377 84.624H62.272V88.679H62.377V84.624Z" fill="#8DC96E" stroke="#304D9C" stroke-miterlimit="10"/>
<path d="M62.481 84.624H62.377V88.679H62.481V84.624Z" fill="#8DC96D" stroke="#304D9C" stroke-miterlimit="10"/>
<path d="M62.588 84.624H62.481V88.679H62.588V84.624Z" fill="#8CC86C" stroke="#304D9C" stroke-miterlimit="10"/>
<path d="M62.692 84.624H62.588V88.679H62.692V84.624Z" fill="#8BC86B" stroke="#304D9C" stroke-miterlimit="10"/>
<path d="M62.796 84.624H62.692V88.679H62.796V84.624Z" fill="#8BC86A" stroke="#304D9C" stroke-miterlimit="10"/>
<path d="M62.901 84.624H62.796V88.679H62.901V84.624Z" fill="#89C76A" stroke="#304D9C" stroke-miterlimit="10"/>
<path d="M63.006 84.624H62.902V88.679H63.006V84.624Z" fill="#88C768" stroke="#304D9C" stroke-miterlimit="10"/>
<path d="M63.112 84.624H63.006V88.679H63.112V84.624Z" fill="#88C767" stroke="#304D9C" stroke-miterlimit="10"/>
<path d="M63.217 84.624H63.113V88.679H63.217V84.624Z" fill="#86C667" stroke="#304D9C" stroke-miterlimit="10"/>
<path d="M63.322 84.624H63.217V88.679H63.322V84.624Z" fill="#86C666" stroke="#304D9C" stroke-miterlimit="10"/>
<path d="M63.427 84.624H63.323V88.679H63.427V84.624Z" fill="#85C664" stroke="#304D9C" stroke-miterlimit="10"/>
<path d="M63.532 84.624H63.427V88.679H63.532V84.624Z" fill="#84C664" stroke="#304D9C" stroke-miterlimit="10"/>
<path d="M63.637 84.624H63.533V88.679H63.637V84.624Z" fill="#83C562" stroke="#304D9C" stroke-miterlimit="10"/>
<path d="M63.741 84.624H63.637V88.679H63.741V84.624Z" fill="#82C561" stroke="#304D9C" stroke-miterlimit="10"/>
<path d="M63.845 84.624H63.741V88.679H63.845V84.624Z" fill="#83C561" stroke="#304D9C" stroke-miterlimit="10"/>
<path d="M63.951 84.624H63.846V88.679H63.951V84.624Z" fill="#82C560" stroke="#304D9C" stroke-miterlimit="10"/>
<path d="M64.056 84.624H63.951V88.679H64.056V84.624Z" fill="#81C45E" stroke="#304D9C" stroke-miterlimit="10"/>
<path d="M64.161 84.624H64.057V88.679H64.161V84.624Z" fill="#80C45E" stroke="#304D9C" stroke-miterlimit="10"/>
<path d="M64.267 84.624H64.161V88.679H64.267V84.624Z" fill="#7FC45D" stroke="#304D9C" stroke-miterlimit="10"/>
<path d="M64.372 84.624H64.268V88.679H64.372V84.624Z" fill="#7EC35C" stroke="#304D9C" stroke-miterlimit="10"/>
<path d="M64.476 84.624H64.372V88.679H64.476V84.624Z" fill="#7DC35B" stroke="#304D9C" stroke-miterlimit="10"/>
<path d="M64.582 84.624H64.476V88.679H64.582V84.624Z" fill="#7DC359" stroke="#304D9C" stroke-miterlimit="10"/>
<path d="M64.686 84.624H64.582V88.679H64.686V84.624Z" fill="#7BC259" stroke="#304D9C" stroke-miterlimit="10"/>
<path d="M64.79 84.624H64.686V88.679H64.79V84.624Z" fill="#7BC257" stroke="#304D9C" stroke-miterlimit="10"/>
<path d="M64.895 84.624H64.79V88.679H64.895V84.624Z" fill="#7AC256" stroke="#304D9C" stroke-miterlimit="10"/>
<path d="M65.002 84.624H64.8961V88.679H65.002V84.624Z" fill="#79C255" stroke="#304D9C" stroke-miterlimit="10"/>
<path d="M65.106 84.624H65.002V88.679H65.106V84.624Z" fill="#78C154" stroke="#304D9C" stroke-miterlimit="10"/>
<path d="M65.212 84.624H65.106V88.679H65.212V84.624Z" fill="#79C153" stroke="#304D9C" stroke-miterlimit="10"/>
<path d="M65.316 84.624H65.212V88.679H65.316V84.624Z" fill="#78C152" stroke="#304D9C" stroke-miterlimit="10"/>
<path d="M65.421 84.624H65.317V88.679H65.421V84.624Z" fill="#77C151" stroke="#304D9C" stroke-miterlimit="10"/>
<path d="M65.525 84.624H65.421V88.679H65.525V84.624Z" fill="#77C14F" stroke="#304D9C" stroke-miterlimit="10"/>
<path d="M65.631 84.624H65.526V88.679H65.631V84.624Z" fill="#76C04F" stroke="#304D9C" stroke-miterlimit="10"/>
<path d="M65.735 84.624H65.631V88.679H65.735V84.624Z" fill="#75C04E" stroke="#304D9C" stroke-miterlimit="10"/>
<path d="M65.841 84.624H65.736V88.679H65.841V84.624Z" fill="#74C04C" stroke="#304D9C" stroke-miterlimit="10"/>
<path d="M65.947 84.624H65.841V88.679H65.947V84.624Z" fill="#74C04B" stroke="#304D9C" stroke-miterlimit="10"/>
<path d="M66.051 84.624H65.948V88.679H66.051V84.624Z" fill="#73C04A" stroke="#304D9C" stroke-miterlimit="10"/>
<path d="M66.157 84.624H66.05V88.679H66.157V84.624Z" fill="#72BF49" stroke="#304D9C" stroke-miterlimit="10"/>
<path d="M66.262 84.624H66.158V88.679H66.262V84.624Z" fill="#71BF48" stroke="#304D9C" stroke-miterlimit="10"/>
<path d="M66.366 84.624H66.262V88.679H66.366V84.624Z" fill="#71BF47" stroke="#304D9C" stroke-miterlimit="10"/>
<path d="M66.47 84.624H66.366V88.679H66.47V84.624Z" fill="#70BF47" stroke="#304D9C" stroke-miterlimit="10"/>
<path d="M66.576 84.624H66.471V88.679H66.576V84.624Z" fill="#6FBE46" stroke="#304D9C" stroke-miterlimit="10"/>
<path d="M79.015 84.624H66.576V88.679H79.015V84.624Z" fill="#6FBE46" stroke="#304D9C" stroke-miterlimit="10"/>
<path d="M79.0161 86.651C79.0161 87.771 77.968 88.678 76.673 88.678H49.392C48.098 88.678 47.051 87.771 47.051 86.651C47.051 85.531 48.098 84.624 49.392 84.624H76.673C77.968 84.624 79.0161 85.531 79.0161 86.651Z" stroke="#304D9C" stroke-miterlimit="10"/>
<path d="M47.049 106.691V110.746V106.691Z" fill="white" stroke="#304D9C" stroke-miterlimit="10"/>
<path d="M47.156 106.691H47.049V110.746H47.156V106.691Z" fill="white" stroke="#304D9C" stroke-miterlimit="10"/>
<path d="M47.261 106.691H47.157V110.746H47.261V106.691Z" fill="white" stroke="#304D9C" stroke-miterlimit="10"/>
<path d="M47.3651 106.691H47.261V110.746H47.3651V106.691Z" fill="#FDFEFF" stroke="#304D9C" stroke-miterlimit="10"/>
<path d="M47.47 106.691H47.366V110.746H47.47V106.691Z" fill="#FDFEFD" stroke="#304D9C" stroke-miterlimit="10"/>
<path d="M47.575 106.691H47.47V110.746H47.575V106.691Z" fill="#FCFDFB" stroke="#304D9C" stroke-miterlimit="10"/>
<path d="M47.679 106.691H47.575V110.746H47.679V106.691Z" fill="#FCFDFB" stroke="#304D9C" stroke-miterlimit="10"/>
<path d="M47.785 106.691H47.679V110.746H47.785V106.691Z" fill="#FAFDF9" stroke="#304D9C" stroke-miterlimit="10"/>
<path d="M47.889 106.691H47.785V110.746H47.889V106.691Z" fill="#F9FCF7" stroke="#304D9C" stroke-miterlimit="10"/>
<path d="M47.994 106.691H47.89V110.746H47.994V106.691Z" fill="#F9FCF7" stroke="#304D9C" stroke-miterlimit="10"/>
<path d="M48.099 106.691H47.994V110.746H48.099V106.691Z" fill="#F8FBF6" stroke="#304D9C" stroke-miterlimit="10"/>
<path d="M48.2061 106.691H48.1V110.746H48.2061V106.691Z" fill="#F7FBF6" stroke="#304D9C" stroke-miterlimit="10"/>
<path d="M48.31 106.691H48.2061V110.746H48.31V106.691Z" fill="#F7FBF4" stroke="#304D9C" stroke-miterlimit="10"/>
<path d="M48.414 106.691H48.31V110.746H48.414V106.691Z" fill="#F6FAF3" stroke="#304D9C" stroke-miterlimit="10"/>
<path d="M48.519 106.691H48.414V110.746H48.519V106.691Z" fill="#F6FAF2" stroke="#304D9C" stroke-miterlimit="10"/>
<path d="M48.625 106.691H48.52V110.746H48.625V106.691Z" fill="#F5FAF2" stroke="#304D9C" stroke-miterlimit="10"/>
<path d="M48.729 106.691H48.625V110.746H48.729V106.691Z" fill="#F4F9F0" stroke="#304D9C" stroke-miterlimit="10"/>
<path d="M48.835 106.691H48.73V110.746H48.835V106.691Z" fill="#F3F9EF" stroke="#304D9C" stroke-miterlimit="10"/>
<path d="M48.939 106.691H48.835V110.746H48.939V106.691Z" fill="#F2F8EE" stroke="#304D9C" stroke-miterlimit="10"/>
<path d="M49.045 106.691H48.939V110.746H49.045V106.691Z" fill="#F2F8ED" stroke="#304D9C" stroke-miterlimit="10"/>
<path d="M49.149 106.691H49.045V110.746H49.149V106.691Z" fill="#F1F8EC" stroke="#304D9C" stroke-miterlimit="10"/>
<path d="M49.255 106.691H49.15V110.746H49.255V106.691Z" fill="#F0F7EB" stroke="#304D9C" stroke-miterlimit="10"/>
<path d="M49.359 106.691H49.255V110.746H49.359V106.691Z" fill="#EFF7EB" stroke="#304D9C" stroke-miterlimit="10"/>
<path d="M49.465 106.691H49.36V110.746H49.465V106.691Z" fill="#EFF7EA" stroke="#304D9C" stroke-miterlimit="10"/>
<path d="M49.57 106.691H49.465V110.746H49.57V106.691Z" fill="#EDF6E8" stroke="#304D9C" stroke-miterlimit="10"/>
<path d="M49.675 106.691H49.571V110.746H49.675V106.691Z" fill="#ECF5E7" stroke="#304D9C" stroke-miterlimit="10"/>
<path d="M49.78 106.691H49.674V110.746H49.78V106.691Z" fill="#EBF5E6" stroke="#304D9C" stroke-miterlimit="10"/>
<path d="M49.885 106.691H49.781V110.746H49.885V106.691Z" fill="#EAF4E6" stroke="#304D9C" stroke-miterlimit="10"/>
<path d="M49.9901 106.691H49.884V110.746H49.9901V106.691Z" fill="#EAF4E4" stroke="#304D9C" stroke-miterlimit="10"/>
<path d="M50.095 106.691H49.991V110.746H50.095V106.691Z" fill="#EAF4E3" stroke="#304D9C" stroke-miterlimit="10"/>
<path d="M50.2 106.691H50.0941V110.746H50.2V106.691Z" fill="#E9F3E3" stroke="#304D9C" stroke-miterlimit="10"/>
<path d="M50.304 106.691H50.2V110.746H50.304V106.691Z" fill="#E8F3E2" stroke="#304D9C" stroke-miterlimit="10"/>
<path d="M50.41 106.691H50.3051V110.746H50.41V106.691Z" fill="#E7F3E0" stroke="#304D9C" stroke-miterlimit="10"/>
<path d="M50.514 106.691H50.41V110.746H50.514V106.691Z" fill="#E7F2DF" stroke="#304D9C" stroke-miterlimit="10"/>
<path d="M50.619 106.691H50.515V110.746H50.619V106.691Z" fill="#E5F2DE" stroke="#304D9C" stroke-miterlimit="10"/>
<path d="M50.723 106.691H50.619V110.746H50.723V106.691Z" fill="#E4F1DD" stroke="#304D9C" stroke-miterlimit="10"/>
<path d="M50.829 106.691H50.724V110.746H50.829V106.691Z" fill="#E3F1DC" stroke="#304D9C" stroke-miterlimit="10"/>
<path d="M50.934 106.691H50.829V110.746H50.934V106.691Z" fill="#E2F0DB" stroke="#304D9C" stroke-miterlimit="10"/>
<path d="M51.039 106.691H50.935V110.746H51.039V106.691Z" fill="#E2F0DA" stroke="#304D9C" stroke-miterlimit="10"/>
<path d="M51.144 106.691H51.038V110.746H51.144V106.691Z" fill="#E1F0D9" stroke="#304D9C" stroke-miterlimit="10"/>
<path d="M51.25 106.691H51.145V110.746H51.25V106.691Z" fill="#DFEFD8" stroke="#304D9C" stroke-miterlimit="10"/>
<path d="M51.354 106.691H51.25V110.746H51.354V106.691Z" fill="#DFEED6" stroke="#304D9C" stroke-miterlimit="10"/>
<path d="M51.46 106.691H51.354V110.746H51.46V106.691Z" fill="#DEEED6" stroke="#304D9C" stroke-miterlimit="10"/>
<path d="M51.564 106.691H51.46V110.746H51.564V106.691Z" fill="#DEEED5" stroke="#304D9C" stroke-miterlimit="10"/>
<path d="M51.668 106.691H51.564V110.746H51.668V106.691Z" fill="#DDEDD4" stroke="#304D9C" stroke-miterlimit="10"/>
<path d="M51.774 106.691H51.668V110.746H51.774V106.691Z" fill="#DCEDD3" stroke="#304D9C" stroke-miterlimit="10"/>
<path d="M51.879 106.691H51.775V110.746H51.879V106.691Z" fill="#DBEDD1" stroke="#304D9C" stroke-miterlimit="10"/>
<path d="M51.983 106.691H51.8781V110.746H51.983V106.691Z" fill="#DAECD1" stroke="#304D9C" stroke-miterlimit="10"/>
<path d="M52.09 106.691H51.984V110.746H52.09V106.691Z" fill="#DAECD0" stroke="#304D9C" stroke-miterlimit="10"/>
<path d="M52.194 106.691H52.09V110.746H52.194V106.691Z" fill="#D9ECCF" stroke="#304D9C" stroke-miterlimit="10"/>
<path d="M52.299 106.691H52.195V110.746H52.299V106.691Z" fill="#D8EBCE" stroke="#304D9C" stroke-miterlimit="10"/>
<path d="M52.4041 106.691H52.299V110.746H52.4041V106.691Z" fill="#D8EBCD" stroke="#304D9C" stroke-miterlimit="10"/>
<path d="M52.509 106.691H52.405V110.746H52.509V106.691Z" fill="#D7EACC" stroke="#304D9C" stroke-miterlimit="10"/>
<path d="M52.613 106.691H52.509V110.746H52.613V106.691Z" fill="#D7EACB" stroke="#304D9C" stroke-miterlimit="10"/>
<path d="M52.718 106.691H52.614V110.746H52.718V106.691Z" fill="#D6EACB" stroke="#304D9C" stroke-miterlimit="10"/>
<path d="M52.824 106.691H52.718V110.746H52.824V106.691Z" fill="#D5E9C9" stroke="#304D9C" stroke-miterlimit="10"/>
<path d="M52.928 106.691H52.824V110.746H52.928V106.691Z" fill="#D4E9C8" stroke="#304D9C" stroke-miterlimit="10"/>
<path d="M53.035 106.691H52.928V110.746H53.035V106.691Z" fill="#D4E9C8" stroke="#304D9C" stroke-miterlimit="10"/>
<path d="M53.138 106.691H53.035V110.746H53.138V106.691Z" fill="#D3E9C6" stroke="#304D9C" stroke-miterlimit="10"/>
<path d="M53.244 106.691H53.138V110.746H53.244V106.691Z" fill="#D2E8C5" stroke="#304D9C" stroke-miterlimit="10"/>
<path d="M53.348 106.691H53.244V110.746H53.348V106.691Z" fill="#D0E7C5" stroke="#304D9C" stroke-miterlimit="10"/>
<path d="M53.454 106.691H53.349V110.746H53.454V106.691Z" fill="#D0E7C3" stroke="#304D9C" stroke-miterlimit="10"/>
<path d="M53.558 106.691H53.454V110.746H53.558V106.691Z" fill="#D0E7C2" stroke="#304D9C" stroke-miterlimit="10"/>
<path d="M53.664 106.691H53.558V110.746H53.664V106.691Z" fill="#CFE6C1" stroke="#304D9C" stroke-miterlimit="10"/>
<path d="M53.768 106.691H53.664V110.746H53.768V106.691Z" fill="#CEE6C0" stroke="#304D9C" stroke-miterlimit="10"/>
<path d="M53.873 106.691H53.769V110.746H53.873V106.691Z" fill="#CDE5BF" stroke="#304D9C" stroke-miterlimit="10"/>
<path d="M53.978 106.691H53.873V110.746H53.978V106.691Z" fill="#CBE5BE" stroke="#304D9C" stroke-miterlimit="10"/>
<path d="M54.083 106.691H53.979V110.746H54.083V106.691Z" fill="#CBE5BD" stroke="#304D9C" stroke-miterlimit="10"/>
<path d="M54.188 106.691H54.083V110.746H54.188V106.691Z" fill="#CAE4BC" stroke="#304D9C" stroke-miterlimit="10"/>
<path d="M54.293 106.691H54.189V110.746H54.293V106.691Z" fill="#C9E4BB" stroke="#304D9C" stroke-miterlimit="10"/>
<path d="M54.399 106.691H54.293V110.746H54.399V106.691Z" fill="#C9E3BA" stroke="#304D9C" stroke-miterlimit="10"/>
<path d="M54.504 106.691H54.4V110.746H54.504V106.691Z" fill="#C8E3B9" stroke="#304D9C" stroke-miterlimit="10"/>
<path d="M54.608 106.691H54.504V110.746H54.608V106.691Z" fill="#C8E3B8" stroke="#304D9C" stroke-miterlimit="10"/>
<path d="M54.7141 106.691H54.609V110.746H54.7141V106.691Z" fill="#C7E2B7" stroke="#304D9C" stroke-miterlimit="10"/>
<path d="M54.8181 106.691H54.7141V110.746H54.8181V106.691Z" fill="#C6E2B6" stroke="#304D9C" stroke-miterlimit="10"/>
<path d="M54.924 106.691H54.819V110.746H54.924V106.691Z" fill="#C5E2B5" stroke="#304D9C" stroke-miterlimit="10"/>
<path d="M55.028 106.691H54.924V110.746H55.028V106.691Z" fill="#C4E1B5" stroke="#304D9C" stroke-miterlimit="10"/>
<path d="M55.134 106.691H55.0291V110.746H55.134V106.691Z" fill="#C4E1B3" stroke="#304D9C" stroke-miterlimit="10"/>
<path d="M55.239 106.691H55.134V110.746H55.239V106.691Z" fill="#C3E1B2" stroke="#304D9C" stroke-miterlimit="10"/>
<path d="M55.3441 106.691H55.2401V110.746H55.3441V106.691Z" fill="#C2E0B1" stroke="#304D9C" stroke-miterlimit="10"/>
<path d="M55.449 106.691H55.3441V110.746H55.449V106.691Z" fill="#C1E0B0" stroke="#304D9C" stroke-miterlimit="10"/>
<path d="M55.553 106.691H55.449V110.746H55.553V106.691Z" fill="#C0E0B0" stroke="#304D9C" stroke-miterlimit="10"/>
<path d="M55.658 106.691H55.553V110.746H55.658V106.691Z" fill="#C1DFAE" stroke="#304D9C" stroke-miterlimit="10"/>
<path d="M55.762 106.691H55.658V110.746H55.762V106.691Z" fill="#BFDFAD" stroke="#304D9C" stroke-miterlimit="10"/>
<path d="M55.867 106.691H55.763V110.746H55.867V106.691Z" fill="#BEDEAD" stroke="#304D9C" stroke-miterlimit="10"/>
<path d="M55.972 106.691H55.867V110.746H55.972V106.691Z" fill="#BDDEAB" stroke="#304D9C" stroke-miterlimit="10"/>
<path d="M56.08 106.691H55.973V110.746H56.08V106.691Z" fill="#BCDDAA" stroke="#304D9C" stroke-miterlimit="10"/>
<path d="M56.184 106.691H56.08V110.746H56.184V106.691Z" fill="#BCDDAA" stroke="#304D9C" stroke-miterlimit="10"/>
<path d="M56.288 106.691H56.184V110.746H56.288V106.691Z" fill="#BBDDA9" stroke="#304D9C" stroke-miterlimit="10"/>
<path d="M56.393 106.691H56.288V110.746H56.393V106.691Z" fill="#BADDA8" stroke="#304D9C" stroke-miterlimit="10"/>
<path d="M56.498 106.691H56.394V110.746H56.498V106.691Z" fill="#B9DCA7" stroke="#304D9C" stroke-miterlimit="10"/>
<path d="M56.6021 106.691H56.498V110.746H56.6021V106.691Z" fill="#B8DCA6" stroke="#304D9C" stroke-miterlimit="10"/>
<path d="M56.708 106.691H56.6021V110.746H56.708V106.691Z" fill="#B8DCA5" stroke="#304D9C" stroke-miterlimit="10"/>
<path d="M56.812 106.691H56.708V110.746H56.812V106.691Z" fill="#B8DBA4" stroke="#304D9C" stroke-miterlimit="10"/>
<path d="M56.918 106.691H56.813V110.746H56.918V106.691Z" fill="#B7DBA2" stroke="#304D9C" stroke-miterlimit="10"/>
<path d="M57.023 106.691H56.918V110.746H57.023V106.691Z" fill="#B6DAA0" stroke="#304D9C" stroke-miterlimit="10"/>
<path d="M57.1281 106.691H57.024V110.746H57.1281V106.691Z" fill="#B6DAA0" stroke="#304D9C" stroke-miterlimit="10"/>
<path d="M57.2321 106.691H57.127V110.746H57.2321V106.691Z" fill="#B5DA9E" stroke="#304D9C" stroke-miterlimit="10"/>
<path d="M57.338 106.691H57.233V110.746H57.338V106.691Z" fill="#B4D99E" stroke="#304D9C" stroke-miterlimit="10"/>
<path d="M57.442 106.691H57.338V110.746H57.442V106.691Z" fill="#B3D99C" stroke="#304D9C" stroke-miterlimit="10"/>
<path d="M57.5471 106.691H57.4431V110.746H57.5471V106.691Z" fill="#B1D89B" stroke="#304D9C" stroke-miterlimit="10"/>
<path d="M57.653 106.691H57.5471V110.746H57.653V106.691Z" fill="#B1D89A" stroke="#304D9C" stroke-miterlimit="10"/>
<path d="M57.7581 106.691H57.6541V110.746H57.7581V106.691Z" fill="#B0D899" stroke="#304D9C" stroke-miterlimit="10"/>
<path d="M57.862 106.691H57.7581V110.746H57.862V106.691Z" fill="#B0D798" stroke="#304D9C" stroke-miterlimit="10"/>
<path d="M57.9691 106.691H57.863V110.746H57.9691V106.691Z" fill="#AFD797" stroke="#304D9C" stroke-miterlimit="10"/>
<path d="M58.073 106.691H57.9691V110.746H58.073V106.691Z" fill="#ADD696" stroke="#304D9C" stroke-miterlimit="10"/>
<path d="M58.178 106.691H58.073V110.746H58.178V106.691Z" fill="#ADD695" stroke="#304D9C" stroke-miterlimit="10"/>
<path d="M58.283 106.691H58.178V110.746H58.283V106.691Z" fill="#ACD694" stroke="#304D9C" stroke-miterlimit="10"/>
<path d="M58.387 106.691H58.283V110.746H58.387V106.691Z" fill="#ABD593" stroke="#304D9C" stroke-miterlimit="10"/>
<path d="M58.493 106.691H58.388V110.746H58.493V106.691Z" fill="#A9D591" stroke="#304D9C" stroke-miterlimit="10"/>
<path d="M58.597 106.691H58.493V110.746H58.597V106.691Z" fill="#A9D591" stroke="#304D9C" stroke-miterlimit="10"/>
<path d="M58.703 106.691H58.598V110.746H58.703V106.691Z" fill="#A8D48F" stroke="#304D9C" stroke-miterlimit="10"/>
<path d="M58.807 106.691H58.703V110.746H58.807V106.691Z" fill="#A7D48F" stroke="#304D9C" stroke-miterlimit="10"/>
<path d="M58.913 106.691H58.807V110.746H58.913V106.691Z" fill="#A6D38D" stroke="#304D9C" stroke-miterlimit="10"/>
<path d="M59.017 106.691H58.913V110.746H59.017V106.691Z" fill="#A6D38D" stroke="#304D9C" stroke-miterlimit="10"/>
<path d="M59.123 106.691H59.017V110.746H59.123V106.691Z" fill="#A5D38B" stroke="#304D9C" stroke-miterlimit="10"/>
<path d="M59.2271 106.691H59.123V110.746H59.2271V106.691Z" fill="#A5D38B" stroke="#304D9C" stroke-miterlimit="10"/>
<path d="M59.333 106.691H59.2271V110.746H59.333V106.691Z" fill="#A4D28A" stroke="#304D9C" stroke-miterlimit="10"/>
<path d="M59.437 106.691H59.333V110.746H59.437V106.691Z" fill="#A3D289" stroke="#304D9C" stroke-miterlimit="10"/>
<path d="M59.5421 106.691H59.438V110.746H59.5421V106.691Z" fill="#A2D188" stroke="#304D9C" stroke-miterlimit="10"/>
<path d="M59.647 106.691H59.5421V110.746H59.647V106.691Z" fill="#A1D187" stroke="#304D9C" stroke-miterlimit="10"/>
<path d="M59.752 106.691H59.648V110.746H59.752V106.691Z" fill="#A1D186" stroke="#304D9C" stroke-miterlimit="10"/>
<path d="M59.856 106.691H59.752V110.746H59.856V106.691Z" fill="#9FD085" stroke="#304D9C" stroke-miterlimit="10"/>
<path d="M59.962 106.691H59.8571V110.746H59.962V106.691Z" fill="#9ED085" stroke="#304D9C" stroke-miterlimit="10"/>
<path d="M60.067 106.691H59.962V110.746H60.067V106.691Z" fill="#9DD083" stroke="#304D9C" stroke-miterlimit="10"/>
<path d="M60.173 106.691H60.0681V110.746H60.173V106.691Z" fill="#9CCF83" stroke="#304D9C" stroke-miterlimit="10"/>
<path d="M60.278 106.691H60.173V110.746H60.278V106.691Z" fill="#9DCF82" stroke="#304D9C" stroke-miterlimit="10"/>
<path d="M60.3831 106.691H60.2791V110.746H60.3831V106.691Z" fill="#9CCF81" stroke="#304D9C" stroke-miterlimit="10"/>
<path d="M60.487 106.691H60.3831V110.746H60.487V106.691Z" fill="#9BCE80" stroke="#304D9C" stroke-miterlimit="10"/>
<path d="M60.592 106.691H60.488V110.746H60.592V106.691Z" fill="#9ACE7E" stroke="#304D9C" stroke-miterlimit="10"/>
<path d="M60.697 106.691H60.592V110.746H60.697V106.691Z" fill="#99CE7E" stroke="#304D9C" stroke-miterlimit="10"/>
<path d="M60.802 106.691H60.698V110.746H60.802V106.691Z" fill="#99CE7C" stroke="#304D9C" stroke-miterlimit="10"/>
<path d="M60.906 106.691H60.801V110.746H60.906V106.691Z" fill="#98CD7C" stroke="#304D9C" stroke-miterlimit="10"/>
<path d="M61.014 106.691H60.907V110.746H61.014V106.691Z" fill="#97CD7A" stroke="#304D9C" stroke-miterlimit="10"/>
<path d="M61.117 106.691H61.014V110.746H61.117V106.691Z" fill="#97CD79" stroke="#304D9C" stroke-miterlimit="10"/>
<path d="M61.222 106.691H61.116V110.746H61.222V106.691Z" fill="#97CD79" stroke="#304D9C" stroke-miterlimit="10"/>
<path d="M61.328 106.691H61.223V110.746H61.328V106.691Z" fill="#96CC77" stroke="#304D9C" stroke-miterlimit="10"/>
<path d="M61.432 106.691H61.328V110.746H61.432V106.691Z" fill="#95CC76" stroke="#304D9C" stroke-miterlimit="10"/>
<path d="M61.537 106.691H61.432V110.746H61.537V106.691Z" fill="#94CC76" stroke="#304D9C" stroke-miterlimit="10"/>
<path d="M61.6411 106.691H61.537V110.746H61.6411V106.691Z" fill="#93CB74" stroke="#304D9C" stroke-miterlimit="10"/>
<path d="M61.747 106.691H61.642V110.746H61.747V106.691Z" fill="#92CB73" stroke="#304D9C" stroke-miterlimit="10"/>
<path d="M61.851 106.691H61.747V110.746H61.851V106.691Z" fill="#91CA73" stroke="#304D9C" stroke-miterlimit="10"/>
<path d="M61.958 106.691H61.8521V110.746H61.958V106.691Z" fill="#90CA72" stroke="#304D9C" stroke-miterlimit="10"/>
<path d="M62.061 106.691H61.958V110.746H62.061V106.691Z" fill="#8FCA70" stroke="#304D9C" stroke-miterlimit="10"/>
<path d="M62.1671 106.691H62.061V110.746H62.1671V106.691Z" fill="#8FCA70" stroke="#304D9C" stroke-miterlimit="10"/>
<path d="M62.2711 106.691H62.1671V110.746H62.2711V106.691Z" fill="#8EC96F" stroke="#304D9C" stroke-miterlimit="10"/>
<path d="M62.377 106.691H62.272V110.746H62.377V106.691Z" fill="#8DC96E" stroke="#304D9C" stroke-miterlimit="10"/>
<path d="M62.481 106.691H62.377V110.746H62.481V106.691Z" fill="#8DC96D" stroke="#304D9C" stroke-miterlimit="10"/>
<path d="M62.588 106.691H62.481V110.746H62.588V106.691Z" fill="#8CC86C" stroke="#304D9C" stroke-miterlimit="10"/>
<path d="M62.692 106.691H62.588V110.746H62.692V106.691Z" fill="#8BC86B" stroke="#304D9C" stroke-miterlimit="10"/>
<path d="M62.796 106.691H62.692V110.746H62.796V106.691Z" fill="#8BC86A" stroke="#304D9C" stroke-miterlimit="10"/>
<path d="M62.901 106.691H62.796V110.746H62.901V106.691Z" fill="#89C76A" stroke="#304D9C" stroke-miterlimit="10"/>
<path d="M63.006 106.691H62.902V110.746H63.006V106.691Z" fill="#88C768" stroke="#304D9C" stroke-miterlimit="10"/>
<path d="M63.112 106.691H63.006V110.746H63.112V106.691Z" fill="#88C767" stroke="#304D9C" stroke-miterlimit="10"/>
<path d="M63.217 106.691H63.113V110.746H63.217V106.691Z" fill="#86C667" stroke="#304D9C" stroke-miterlimit="10"/>
<path d="M63.322 106.691H63.217V110.746H63.322V106.691Z" fill="#86C666" stroke="#304D9C" stroke-miterlimit="10"/>
<path d="M63.427 106.691H63.323V110.746H63.427V106.691Z" fill="#85C664" stroke="#304D9C" stroke-miterlimit="10"/>
<path d="M63.532 106.691H63.427V110.746H63.532V106.691Z" fill="#84C664" stroke="#304D9C" stroke-miterlimit="10"/>
<path d="M63.637 106.691H63.533V110.746H63.637V106.691Z" fill="#83C562" stroke="#304D9C" stroke-miterlimit="10"/>
<path d="M63.741 106.691H63.637V110.746H63.741V106.691Z" fill="#82C561" stroke="#304D9C" stroke-miterlimit="10"/>
<path d="M63.845 106.691H63.741V110.746H63.845V106.691Z" fill="#83C561" stroke="#304D9C" stroke-miterlimit="10"/>
<path d="M63.951 106.691H63.846V110.746H63.951V106.691Z" fill="#82C560" stroke="#304D9C" stroke-miterlimit="10"/>
<path d="M64.056 106.691H63.951V110.746H64.056V106.691Z" fill="#81C45E" stroke="#304D9C" stroke-miterlimit="10"/>
<path d="M64.161 106.691H64.057V110.746H64.161V106.691Z" fill="#80C45E" stroke="#304D9C" stroke-miterlimit="10"/>
<path d="M64.267 106.691H64.161V110.746H64.267V106.691Z" fill="#7FC45D" stroke="#304D9C" stroke-miterlimit="10"/>
<path d="M64.372 106.691H64.268V110.746H64.372V106.691Z" fill="#7EC35C" stroke="#304D9C" stroke-miterlimit="10"/>
<path d="M64.476 106.691H64.372V110.746H64.476V106.691Z" fill="#7DC35B" stroke="#304D9C" stroke-miterlimit="10"/>
<path d="M64.582 106.691H64.476V110.746H64.582V106.691Z" fill="#7DC359" stroke="#304D9C" stroke-miterlimit="10"/>
<path d="M64.686 106.691H64.582V110.746H64.686V106.691Z" fill="#7BC259" stroke="#304D9C" stroke-miterlimit="10"/>
<path d="M64.79 106.691H64.686V110.746H64.79V106.691Z" fill="#7BC257" stroke="#304D9C" stroke-miterlimit="10"/>
<path d="M64.895 106.691H64.79V110.746H64.895V106.691Z" fill="#7AC256" stroke="#304D9C" stroke-miterlimit="10"/>
<path d="M65.002 106.691H64.8961V110.746H65.002V106.691Z" fill="#79C255" stroke="#304D9C" stroke-miterlimit="10"/>
<path d="M65.106 106.691H65.002V110.746H65.106V106.691Z" fill="#78C154" stroke="#304D9C" stroke-miterlimit="10"/>
<path d="M65.212 106.691H65.106V110.746H65.212V106.691Z" fill="#79C153" stroke="#304D9C" stroke-miterlimit="10"/>
<path d="M65.316 106.691H65.212V110.746H65.316V106.691Z" fill="#78C152" stroke="#304D9C" stroke-miterlimit="10"/>
<path d="M65.421 106.691H65.317V110.746H65.421V106.691Z" fill="#77C151" stroke="#304D9C" stroke-miterlimit="10"/>
<path d="M65.525 106.691H65.421V110.746H65.525V106.691Z" fill="#77C14F" stroke="#304D9C" stroke-miterlimit="10"/>
<path d="M65.631 106.691H65.526V110.746H65.631V106.691Z" fill="#76C04F" stroke="#304D9C" stroke-miterlimit="10"/>
<path d="M65.735 106.691H65.631V110.746H65.735V106.691Z" fill="#75C04E" stroke="#304D9C" stroke-miterlimit="10"/>
<path d="M65.841 106.691H65.736V110.746H65.841V106.691Z" fill="#74C04C" stroke="#304D9C" stroke-miterlimit="10"/>
<path d="M65.947 106.691H65.841V110.746H65.947V106.691Z" fill="#74C04B" stroke="#304D9C" stroke-miterlimit="10"/>
<path d="M66.051 106.691H65.948V110.746H66.051V106.691Z" fill="#73C04A" stroke="#304D9C" stroke-miterlimit="10"/>
<path d="M66.157 106.691H66.05V110.746H66.157V106.691Z" fill="#72BF49" stroke="#304D9C" stroke-miterlimit="10"/>
<path d="M66.262 106.691H66.158V110.746H66.262V106.691Z" fill="#71BF48" stroke="#304D9C" stroke-miterlimit="10"/>
<path d="M66.366 106.691H66.262V110.746H66.366V106.691Z" fill="#71BF47" stroke="#304D9C" stroke-miterlimit="10"/>
<path d="M66.47 106.691H66.366V110.746H66.47V106.691Z" fill="#70BF47" stroke="#304D9C" stroke-miterlimit="10"/>
<path d="M66.576 106.691H66.471V110.746H66.576V106.691Z" fill="#6FBE46" stroke="#304D9C" stroke-miterlimit="10"/>
<path d="M79.015 106.691H66.576V110.746H79.015V106.691Z" fill="#6FBE46" stroke="#304D9C" stroke-miterlimit="10"/>
<path d="M79.0161 108.718C79.0161 109.838 77.968 110.745 76.673 110.745H49.392C48.098 110.745 47.051 109.838 47.051 108.718C47.051 107.599 48.098 106.692 49.392 106.692H76.673C77.968 106.692 79.0161 107.599 79.0161 108.718Z" stroke="#304D9C" stroke-miterlimit="10"/>
<path d="M96.438 128.506H0V12.064H29.6151V16.948H66.828V12.064H96.437V128.506H96.438ZM2.86401 125.643H93.576V14.927H69.691V19.811H26.752V14.927H2.86401V125.643Z" fill="#304D9C"/>
<path d="M68.26 15.717V18.379H88.899V122.194H7.54102V18.379H28.185V15.717H5.45502V124.852H90.986V15.717H68.26Z" fill="#378A41"/>
<path d="M67.356 18.65H29.082V3.957H40.911C41.701 1.66 44.63 0 48.22 0C51.811 0 54.739 1.66 55.531 3.957H67.3571V18.65H67.356ZM31.587 16.145H64.851V6.461H53.234V5.209C53.234 3.93 51.1751 2.504 48.2191 2.504C45.2641 2.504 43.205 3.929 43.205 5.209V6.461H31.587V16.145Z" fill="#304D9C"/>
</svg>
