<svg width="128" height="101" viewBox="0 0 128 101" fill="none" xmlns="http://www.w3.org/2000/svg">
<path d="M121.907 89.9584C121.907 93.848 118.607 97.0015 114.538 97.0015H13.2772C9.208 97.0015 5.9082 93.848 5.9082 89.9584V13.0436C5.9082 9.1549 9.208 6.00146 13.2772 6.00146H114.539C118.608 6.00146 121.908 9.1549 121.908 13.0436V89.9584H121.907Z" fill="#E3ECBA"/>
<path d="M109.296 0.313965H18.442C8.27399 0.313965 0 8.58497 0 18.754V82.219C0 92.388 8.27299 100.659 18.442 100.659H109.296C119.465 100.659 127.736 92.388 127.736 82.219V18.754C127.737 8.58597 119.465 0.313965 109.296 0.313965ZM109.296 9.13098C110.051 9.13098 110.781 9.22696 111.485 9.39096L73.156 52.881C70.807 55.547 67.421 57.076 63.868 57.076C60.315 57.076 56.93 55.547 54.581 52.881L16.252 9.39096C16.958 9.22696 17.688 9.13098 18.441 9.13098H109.296ZM118.921 82.22C118.921 87.528 114.603 91.847 109.296 91.847H18.442C13.134 91.847 8.815 87.528 8.815 82.22V18.755C8.815 17.465 9.076 16.234 9.539 15.109L47.97 58.711C51.991 63.274 57.786 65.893 63.869 65.893C69.95 65.893 75.745 63.274 79.769 58.711L118.199 15.109C118.662 16.234 118.921 17.464 118.921 18.755V82.22V82.22Z" fill="#5AAB46"/>
</svg>
