<svg width="78" height="116" viewBox="0 0 78 116" fill="none" xmlns="http://www.w3.org/2000/svg">
<path d="M45.548 45.153L41.813 30.139L38.277 44.098L34.764 39.409L32.292 43.335H28.4L24.417 33.011L19.531 43.335H11.268V42.139H18.773L24.529 29.98L29.22 42.139H31.632L34.679 37.301L37.733 41.377L41.823 25.23L45.578 40.322L47.505 32.957L49.896 41.251L51.902 37.899L54.143 42.139H66.13V43.335H53.423L51.837 40.334L49.508 44.224L47.561 37.465L45.548 45.153Z" fill="url(#paint0_linear_48:2113)"/>
<path d="M38.696 0C17.457 0 0.237976 17.348 0.237976 38.746C0.237976 60.144 17.457 77.492 38.696 77.492C59.935 77.492 77.1541 60.145 77.1541 38.746C77.1541 17.348 59.935 0 38.696 0ZM38.696 73.507C19.64 73.507 4.19299 57.945 4.19299 38.746C4.19299 19.548 19.64 3.984 38.696 3.984C57.752 3.984 73.199 19.547 73.199 38.746C73.199 57.945 57.751 73.507 38.696 73.507Z" fill="#59AB46"/>
<path d="M38.696 8.16797C21.933 8.16797 8.34497 21.859 8.34497 38.746C8.34497 55.634 21.933 69.324 38.696 69.324C55.459 69.324 69.047 55.634 69.047 38.746C69.046 21.859 55.458 8.16797 38.696 8.16797ZM38.696 66.179C23.658 66.179 11.466 53.897 11.466 38.746C11.466 23.595 23.658 11.312 38.696 11.312C53.735 11.312 65.926 23.595 65.926 38.746C65.926 53.897 53.735 66.179 38.696 66.179Z" fill="#59AB46"/>
<path d="M48.407 94.576H28.985V73.957H48.407V94.576ZM30.478 93.081H46.914V75.451H30.478V93.081Z" fill="#59AB46"/>
<path d="M44.522 115.693H32.87V93.082H44.522V115.693ZM34.363 114.199H43.029V94.576H34.363V114.199Z" fill="#59AB46"/>
<defs>
<linearGradient id="paint0_linear_48:2113" x1="11.2681" y1="35.1913" x2="66.1304" y2="35.1913" gradientUnits="userSpaceOnUse">
<stop stop-color="white"/>
<stop offset="0.4442" stop-color="#2C3588"/>
</linearGradient>
</defs>
</svg>
