<svg width="33" height="22" viewBox="0 0 33 22" fill="none" xmlns="http://www.w3.org/2000/svg">
<path d="M30.2774 0.00196454C30.2729 0.00196454 30.2687 0 30.264 0H30.2571H2.67726H2.67036C2.66568 0 2.66146 0.00196526 2.657 0.00218357C1.19053 0.0130991 0 1.18237 0 2.62059V19.2104C0 20.6554 1.20122 21.831 2.67726 21.831H30.2571C31.7332 21.831 32.9344 20.6554 32.9344 19.2104V2.62059C32.9344 1.18237 31.7439 0.0130983 30.2774 0.00196454ZM27.9511 1.74648L16.4672 11.9217L4.98333 1.74648H27.9511ZM1.78024 18.7611V2.62059C1.78024 2.23724 2.03859 1.92047 2.39175 1.8028L10.7598 9.21792L1.78024 18.7611ZM2.95698 20.0845L12.0805 10.3881L15.8708 13.7468C16.0404 13.8967 16.2533 13.9718 16.4672 13.9718C16.6811 13.9718 16.894 13.8967 17.0636 13.7468L20.8539 10.3881L29.9774 20.0845H2.95698V20.0845ZM31.1542 18.7611L22.1746 9.21792L30.5427 1.8028C30.8956 1.92047 31.1542 2.23724 31.1542 2.62059V18.7611Z" fill="#69B128"/>
</svg>
