<svg width="755" height="490" viewBox="0 0 755 490" fill="none" xmlns="http://www.w3.org/2000/svg">
<path d="M747.959 230.146C649.615 109.024 518.181 42.2303 377.975 42.2303C237.769 42.2303 106.336 109.024 7.99128 230.146C-1.39683 241.689 -1.39683 258.157 7.99128 269.7C106.336 390.976 237.769 457.77 377.975 457.77C518.181 457.77 649.615 390.976 747.959 269.854C757.347 258.311 757.347 241.689 747.959 230.146V230.146ZM377.975 352.961C321.185 352.961 275.014 306.79 275.014 250C275.014 193.21 321.185 147.039 377.975 147.039C434.766 147.039 480.937 193.21 480.937 250C480.937 306.79 434.766 352.961 377.975 352.961ZM73.5542 250C131.73 185.053 201.14 140.575 275.937 119.336C237.154 149.655 212.067 196.903 212.067 250C212.067 302.943 237 350.191 275.937 380.664C201.14 359.425 131.884 314.947 73.5542 250ZM480.013 380.664C518.797 350.345 543.883 303.097 543.883 250C543.883 197.057 518.951 149.809 480.013 119.336C554.81 140.575 624.221 185.053 682.396 250C624.067 314.947 554.81 359.425 480.013 380.664Z" fill="black"/>
<line x1="586" y1="49.4571" x2="161.997" y2="440.502" stroke="black" stroke-width="70" stroke-linecap="round"/>
</svg>
