<svg width="23" height="30" viewBox="0 0 23 30" fill="none" xmlns="http://www.w3.org/2000/svg">
<path d="M19.7951 10.818H19.2696V7.25498C19.2698 3.25459 15.7699 0 11.4679 0C7.16606 0 3.66616 3.25459 3.66616 7.25498V10.818H3.14043C1.60784 10.818 0.36084 11.9777 0.36084 13.403V27.415C0.36084 28.8403 1.60784 30 3.14043 30H19.7951C21.3277 30 22.5747 28.8403 22.5747 27.415V13.403C22.5747 11.9777 21.3278 10.818 19.7951 10.818ZM6.04867 7.25498C6.04867 4.47633 8.47977 2.21571 11.4679 2.21571C14.456 2.21571 16.8871 4.47633 16.8871 7.25498V10.818H6.04867V7.25498ZM20.1922 27.4151C20.1922 27.6153 20.0103 27.7844 19.7951 27.7844H3.14043C2.92521 27.7844 2.74334 27.6153 2.74334 27.4151V13.403C2.74334 13.2028 2.92521 13.0337 3.14043 13.0337H4.85742H18.0784H19.7951C20.0103 13.0337 20.1922 13.2028 20.1922 13.403V27.4151Z" fill="#69B128"/>
<path d="M11.4666 17.1804C10.8088 17.1804 10.2754 17.6763 10.2754 18.2883V22.5299C10.2754 23.1419 10.8088 23.6378 11.4666 23.6378C12.1245 23.6378 12.6579 23.1419 12.6579 22.5299V18.2883C12.6579 17.6763 12.1245 17.1804 11.4666 17.1804Z" fill="#69B128"/>
</svg>
