<svg width="162" height="131" viewBox="0 0 162 131" fill="none" xmlns="http://www.w3.org/2000/svg">
<path d="M152.476 57.4689C149.173 51.5489 145.073 46.535 140.4 42.741C139.932 43.561 139.413 44.3519 138.848 45.1129C134.13 51.4559 126.173 55.624 117.151 55.624C108.132 55.624 100.173 51.4559 95.455 45.1129C84.546 55.5829 77.3629 73.0449 77.2339 92.8569H161.302C161.217 79.5259 157.937 67.2589 152.476 57.4689Z" fill="#304B9C"/>
<path d="M161.443 92.9969H77.093L77.094 92.856C77.219 73.753 84.0459 55.868 95.3589 45.012L95.472 44.903L95.567 45.0289C100.436 51.5759 108.505 55.4839 117.151 55.4839C125.797 55.4839 133.867 51.5759 138.737 45.0289C139.307 44.2589 139.826 43.4659 140.278 42.6719L140.36 42.5289L140.488 42.6329C145.183 46.4459 149.258 51.4139 152.598 57.4019C158.3 67.6249 161.359 79.8849 161.442 92.8569L161.443 92.9969ZM77.375 92.718H161.162C161.058 79.845 158.015 67.683 152.354 57.5359C149.062 51.6349 145.053 46.7279 140.439 42.9529C140.001 43.7099 139.503 44.4639 138.96 45.1959C134.038 51.8129 125.885 55.7629 117.15 55.7629C108.472 55.7629 100.369 51.8629 95.437 45.3229C84.275 56.1109 77.53 73.806 77.375 92.718Z" fill="white"/>
<path d="M73.001 92.8569H157.069C156.939 73.0439 149.756 55.5829 138.847 45.1129C134.129 51.4559 126.172 55.624 117.15 55.624C108.131 55.624 100.172 51.4559 95.454 45.1129C94.89 44.3519 94.37 43.561 93.903 42.741C81.505 52.809 73.14 71.4649 73.001 92.8569Z" fill="#24356D"/>
<path d="M157.209 92.9969H72.861L72.862 92.856C72.928 82.507 74.957 72.3559 78.727 63.4969C82.391 54.8889 87.609 47.6739 93.816 42.6329L93.944 42.5289L94.025 42.6719C94.479 43.4699 94.998 44.263 95.567 45.03C100.436 51.576 108.505 55.4839 117.151 55.4839C125.797 55.4839 133.867 51.5759 138.737 45.0289L138.832 44.903L138.945 45.012C150.257 55.867 157.084 73.753 157.21 92.856V92.9969H157.209ZM73.141 92.718H156.929C156.773 73.806 150.029 56.1119 138.866 45.3229C133.934 51.8629 125.83 55.7629 117.151 55.7629C108.418 55.7629 100.265 51.8129 95.343 45.1959C94.801 44.4659 94.304 43.7119 93.864 42.9529C81.239 53.2899 73.309 72.328 73.141 92.718Z" fill="white"/>
<path d="M117.152 50.8779C131.304 50.8779 142.776 39.5691 142.776 25.6189C142.776 11.6687 131.304 0.359863 117.152 0.359863C103 0.359863 91.528 11.6687 91.528 25.6189C91.528 39.5691 103 50.8779 117.152 50.8779Z" fill="#304B9C"/>
<path d="M117.152 51.017C102.946 51.017 91.389 39.6229 91.389 25.6199C91.389 11.6149 102.946 0.220947 117.152 0.220947C131.358 0.220947 142.916 11.6159 142.916 25.6199C142.916 39.6229 131.358 51.017 117.152 51.017ZM117.152 0.498962C103.1 0.498962 91.668 11.768 91.668 25.619C91.668 39.47 103.101 50.7379 117.152 50.7379C131.205 50.7379 142.636 39.469 142.636 25.619C142.636 11.768 131.205 0.498962 117.152 0.498962Z" fill="white"/>
<path d="M53.3979 64.191C69.6009 64.191 82.736 51.2431 82.736 35.2711C82.736 19.299 69.6009 6.35107 53.3979 6.35107C37.195 6.35107 24.06 19.299 24.06 35.2711C24.06 51.2431 37.195 64.191 53.3979 64.191Z" fill="#98CD75"/>
<path d="M53.3979 64.33C37.1439 64.33 23.92 51.294 23.92 35.27C23.92 19.246 37.1439 6.20898 53.3979 6.20898C69.6519 6.20898 82.876 19.245 82.876 35.27C82.876 51.294 69.6519 64.33 53.3979 64.33ZM53.3979 6.48798C37.2969 6.48798 24.199 19.399 24.199 35.27C24.199 51.139 37.2979 64.05 53.3979 64.05C69.4979 64.05 82.597 51.139 82.597 35.27C82.597 19.399 69.4989 6.48798 53.3979 6.48798Z" fill="white"/>
<path d="M10.788 70.75C14.771 63.609 19.718 57.562 25.354 52.984C25.917 53.974 26.545 54.927 27.225 55.845C32.917 63.496 42.515 68.525 53.4 68.525C64.278 68.525 73.879 63.497 79.571 55.845C92.73 68.475 101.394 89.539 101.55 113.438H0.139954C0.241954 97.358 4.19996 82.56 10.788 70.75Z" fill="#76BB58"/>
<path d="M101.691 113.578H0L0.000976562 113.438C0.100977 97.795 3.78795 83.01 10.666 70.682C14.693 63.462 19.605 57.472 25.267 52.875L25.395 52.771L25.477 52.914C26.022 53.873 26.649 54.831 27.338 55.762C33.217 63.666 42.96 68.385 53.401 68.385C63.839 68.385 73.581 63.666 79.46 55.762L79.555 55.635L79.669 55.744C93.309 68.834 101.541 90.402 101.691 113.437V113.578ZM0.281006 113.3H101.41C101.229 90.454 93.079 69.079 79.588 56.056C73.647 63.954 63.87 68.665 53.4 68.665C42.872 68.665 33.046 63.903 27.114 55.929C26.452 55.036 25.847 54.117 25.315 53.197C19.735 57.758 14.889 63.685 10.909 70.819C4.075 83.069 0.400006 97.756 0.281006 113.3Z" fill="white"/>
<path d="M106.657 113.438H5.24597C5.40197 89.54 14.066 68.475 27.225 55.845C32.917 63.496 42.515 68.525 53.4 68.525C64.278 68.525 73.879 63.497 79.571 55.845C80.252 54.927 80.879 53.974 81.442 52.984C96.397 65.129 106.489 87.633 106.657 113.438Z" fill="#5AAB46"/>
<path d="M106.796 113.578H5.10596L5.10699 113.438C5.25599 90.403 13.49 68.834 27.128 55.745L27.242 55.636L27.337 55.763C33.216 63.667 42.959 68.386 53.4 68.386C63.838 68.386 73.58 63.667 79.459 55.763C80.149 54.832 80.775 53.874 81.321 52.915L81.402 52.772L81.53 52.876C89.014 58.953 95.305 67.653 99.723 78.034C104.269 88.716 106.715 100.959 106.795 113.438L106.796 113.578ZM5.38599 113.3H106.516C106.321 88.671 96.74 65.67 81.481 53.196C80.95 54.117 80.345 55.036 79.682 55.928C73.75 63.903 63.925 68.664 53.4 68.664C42.928 68.664 33.15 63.953 27.209 56.055C13.718 69.079 5.56799 90.454 5.38599 113.3Z" fill="white"/>
<path d="M143.342 96.4899L131.594 129.459L124.281 120.682C124.281 120.682 113.081 134.926 78.578 129.009C78.578 129.009 109.792 120.683 116.612 111.118L110.189 103.054L143.342 96.4899Z" fill="#304B9C"/>
<path d="M94.375 130.587C89.454 130.587 84.131 130.103 78.556 129.147L77.927 129.039L78.543 128.875C78.855 128.792 109.602 120.504 116.439 111.123L109.939 102.962L143.557 96.3069L143.474 96.5379L131.644 129.737L124.282 120.899C123.254 122.062 115.016 130.587 94.375 130.587ZM79.223 128.976C84.557 129.861 89.652 130.308 94.374 130.308C116.267 130.308 124.096 120.693 124.172 120.596L124.278 120.461L131.544 129.183L143.128 96.6749L110.441 103.146L116.787 111.114L116.725 111.199C110.484 119.954 83.624 127.747 79.223 128.976Z" fill="white"/>
</svg>
