<svg width="165" height="180" viewBox="0 0 165 180" fill="none" xmlns="http://www.w3.org/2000/svg">
<path d="M88.712 31.619C46.825 31.619 12.87 63.721 12.87 103.319C12.87 142.919 46.826 175.02 88.712 175.02C130.598 175.02 164.553 142.918 164.553 103.319C164.553 63.72 130.598 31.619 88.712 31.619ZM88.712 163.337C53.649 163.337 25.227 136.465 25.227 103.318C25.227 70.171 53.649 43.299 88.712 43.299C123.773 43.299 152.195 70.17 152.195 103.318C152.196 136.465 123.773 163.337 88.712 163.337Z" fill="#5AAB46"/>
<path d="M40.71 75.489H0.127014V127.964H40.71V75.489Z" fill="#304B9C"/>
<path d="M20.422 92.88C22.6703 92.88 24.493 91.0837 24.493 88.868C24.493 86.6522 22.6703 84.856 20.422 84.856C18.1736 84.856 16.351 86.6522 16.351 88.868C16.351 91.0837 18.1736 92.88 20.422 92.88Z" fill="#98CD75"/>
<path d="M20.422 92.9C18.166 92.899 16.332 91.089 16.333 88.867C16.333 86.642 18.169 84.834 20.425 84.836C22.681 84.836 24.515 86.646 24.514 88.869C24.513 91.092 22.677 92.9 20.422 92.9ZM20.425 84.873C18.19 84.873 16.373 86.664 16.371 88.867C16.371 91.068 18.187 92.86 20.421 92.862C22.655 92.862 24.473 91.07 24.474 88.869C24.476 86.667 22.659 84.874 20.425 84.873Z" fill="white"/>
<path d="M14.508 93.789C15.061 92.798 15.748 91.959 16.53 91.324C16.609 91.461 16.696 91.594 16.79 91.721C17.58 92.783 18.911 93.482 20.422 93.482C21.931 93.483 23.264 92.786 24.054 91.724C25.879 93.477 27.08 96.401 27.101 99.716L13.029 99.711C13.043 97.48 13.593 95.426 14.508 93.789Z" fill="#78BB58"/>
<path d="M27.12 99.737L13.009 99.731V99.711C13.025 97.54 13.536 95.489 14.491 93.778C15.052 92.776 15.732 91.945 16.518 91.308L16.536 91.294L16.547 91.313C16.623 91.446 16.71 91.58 16.805 91.709C17.621 92.806 18.972 93.46 20.422 93.461C21.87 93.462 23.222 92.808 24.038 91.711L24.05 91.693L24.067 91.709C25.959 93.524 27.101 96.519 27.12 99.715V99.737ZM13.048 99.693L27.081 99.698C27.058 96.528 25.928 93.561 24.056 91.754C23.231 92.85 21.875 93.503 20.422 93.502C18.961 93.501 17.597 92.841 16.775 91.732C16.683 91.609 16.599 91.482 16.526 91.353C15.751 91.986 15.079 92.808 14.526 93.797C13.576 95.498 13.065 97.536 13.048 99.693Z" fill="white"/>
<path d="M27.809 99.716L13.736 99.711C13.76 96.395 14.964 93.473 16.79 91.721C17.58 92.783 18.911 93.482 20.422 93.482C21.931 93.483 23.264 92.786 24.054 91.724C24.148 91.597 24.236 91.463 24.314 91.327C26.389 93.013 27.787 96.136 27.809 99.716Z" fill="#59AA46"/>
<path d="M27.829 99.737L13.718 99.731V99.711C13.739 96.515 14.884 93.523 16.777 91.707L16.793 91.691L16.806 91.71C17.622 92.807 18.973 93.461 20.423 93.462C21.871 93.463 23.223 92.809 24.039 91.712C24.135 91.583 24.222 91.449 24.298 91.317L24.309 91.296L24.327 91.311C25.365 92.154 26.238 93.362 26.85 94.802C27.48 96.285 27.82 97.984 27.829 99.716V99.737ZM13.756 99.693L27.79 99.698C27.765 96.28 26.435 93.089 24.319 91.356C24.245 91.484 24.161 91.612 24.069 91.736C23.246 92.842 21.881 93.503 20.422 93.502C18.969 93.501 17.612 92.848 16.788 91.751C14.915 93.556 13.783 96.522 13.756 99.693Z" fill="white"/>
<path d="M35.279 104.919C35.279 105.342 34.772 105.684 34.146 105.683L8.19598 105.673C7.57098 105.673 7.06403 105.331 7.06403 104.907C7.06403 104.486 7.571 104.143 8.198 104.144L34.148 104.153C34.772 104.154 35.279 104.497 35.279 104.919Z" fill="#F9F9FA"/>
<path d="M35.278 109.492C35.277 109.915 34.77 110.256 34.144 110.256L8.19397 110.246C7.56797 110.246 7.06097 109.903 7.06097 109.481C7.06097 109.058 7.56797 108.716 8.19397 108.716L34.144 108.727C34.771 108.727 35.278 109.069 35.278 109.492Z" fill="#F9F9FA"/>
<path d="M35.276 113.369C35.276 113.791 34.769 114.134 34.144 114.134L8.19299 114.123C7.56699 114.123 7.05998 113.779 7.06098 113.357C7.06098 112.935 7.56797 112.593 8.19397 112.593L34.144 112.603C34.769 112.604 35.276 112.946 35.276 113.369Z" fill="#F9F9FA"/>
<path d="M24.879 117.016C24.879 117.439 24.559 117.781 24.163 117.781L7.77399 117.775C7.37799 117.774 7.05798 117.431 7.05798 117.009C7.05798 116.588 7.37799 116.244 7.77399 116.244L24.164 116.251C24.56 116.252 24.879 116.594 24.879 117.016Z" fill="#F9F9FA"/>
<path d="M109.078 36.701C106.962 32.905 104.333 29.6909 101.337 27.2599C101.037 27.7849 100.704 28.293 100.342 28.781C97.318 32.847 92.217 35.519 86.433 35.519C80.652 35.519 75.549 32.847 72.525 28.781C65.531 35.493 60.926 46.688 60.843 59.388H114.737C114.682 50.841 112.579 42.977 109.078 36.701Z" fill="#304B9C"/>
<path d="M114.827 59.477H60.752L60.753 59.387C60.833 47.141 65.21 35.675 72.462 28.715L72.534 28.646L72.596 28.727C75.717 32.923 80.89 35.429 86.433 35.429C91.976 35.429 97.149 32.923 100.272 28.727C100.637 28.233 100.97 27.725 101.259 27.214L101.312 27.123L101.393 27.189C104.404 29.632 107.016 32.818 109.157 36.657C112.813 43.211 114.774 51.07 114.828 59.386V59.477H114.827ZM60.932 59.298H114.646C114.58 51.045 112.627 43.248 109 36.743C106.89 32.96 104.319 29.814 101.361 27.394C101.081 27.879 100.761 28.362 100.414 28.832C97.259 33.074 92.032 35.605 86.433 35.605C80.87 35.605 75.675 33.105 72.513 28.913C65.356 35.831 61.033 47.173 60.932 59.298Z" fill="white"/>
<path d="M58.128 59.387H112.023C111.94 46.687 107.335 35.491 100.341 28.78C97.317 32.846 92.216 35.518 86.432 35.518C80.651 35.518 75.548 32.846 72.524 28.78C72.162 28.293 71.829 27.785 71.529 27.259C63.582 33.713 58.218 45.673 58.128 59.387Z" fill="#24356D"/>
<path d="M112.113 59.477H58.039L58.04 59.387C58.083 52.752 59.383 46.244 61.8 40.566C64.149 35.046 67.494 30.421 71.474 27.19L71.555 27.124L71.608 27.215C71.899 27.727 72.231 28.236 72.596 28.728C75.717 32.924 80.89 35.43 86.433 35.43C91.976 35.43 97.149 32.924 100.272 28.728L100.332 28.647L100.405 28.716C107.657 35.676 112.033 47.142 112.114 59.388V59.477H112.113ZM58.218 59.298H111.932C111.832 47.173 107.509 35.83 100.352 28.914C97.191 33.106 91.996 35.606 86.432 35.606C80.833 35.606 75.608 33.075 72.452 28.833C72.104 28.364 71.786 27.882 71.505 27.395C63.41 34.022 58.326 46.227 58.218 59.298Z" fill="white"/>
<path d="M86.433 32.475C95.5054 32.475 102.86 25.2256 102.86 16.283C102.86 7.34036 95.5054 0.0910034 86.433 0.0910034C77.3606 0.0910034 70.006 7.34036 70.006 16.283C70.006 25.2256 77.3606 32.475 86.433 32.475Z" fill="#304B9C"/>
<path d="M86.433 32.565C77.326 32.565 69.917 25.26 69.917 16.283C69.917 7.30596 77.325 0 86.433 0C95.539 0 102.95 7.30596 102.95 16.283C102.95 25.26 95.54 32.565 86.433 32.565ZM86.433 0.177979C77.424 0.177979 70.095 7.40298 70.095 16.282C70.095 25.161 77.424 32.386 86.433 32.386C95.441 32.386 102.77 25.162 102.77 16.282C102.77 7.40198 95.441 0.177979 86.433 0.177979Z" fill="white"/>
<path d="M109.078 157.205C106.962 153.41 104.333 150.195 101.337 147.764C101.037 148.289 100.704 148.797 100.342 149.284C97.318 153.351 92.217 156.023 86.433 156.023C80.652 156.023 75.549 153.351 72.525 149.284C65.531 155.997 60.926 167.191 60.843 179.892H114.737C114.682 171.345 112.579 163.48 109.078 157.205Z" fill="#304B9C"/>
<path d="M114.827 179.98H60.752L60.753 179.89C60.833 167.645 65.21 156.179 72.462 149.218L72.534 149.149L72.596 149.23C75.717 153.427 80.89 155.932 86.433 155.932C91.976 155.932 97.149 153.427 100.272 149.23C100.637 148.737 100.97 148.228 101.259 147.719L101.312 147.627L101.393 147.693C104.404 150.137 107.016 153.322 109.157 157.161C112.813 163.715 114.774 171.574 114.828 179.89V179.98H114.827ZM60.932 179.802H114.646C114.58 171.549 112.627 163.752 109 157.248C106.89 153.464 104.319 150.319 101.361 147.898C101.081 148.383 100.761 148.866 100.414 149.336C97.259 153.578 92.032 156.109 86.433 156.109C80.87 156.109 75.675 153.609 72.513 149.416C65.356 156.335 61.033 167.677 60.932 179.802Z" fill="white"/>
<path d="M58.128 179.891H112.023C111.94 167.19 107.335 155.995 100.341 149.283C97.317 153.35 92.216 156.022 86.432 156.022C80.651 156.022 75.548 153.35 72.524 149.283C72.162 148.797 71.829 148.289 71.529 147.763C63.582 154.217 58.218 166.177 58.128 179.891Z" fill="#24356D"/>
<path d="M112.113 179.98H58.039L58.04 179.89C58.083 173.256 59.383 166.747 61.8 161.069C64.149 155.55 67.494 150.925 71.474 147.694L71.555 147.628L71.608 147.72C71.899 148.231 72.231 148.74 72.596 149.231C75.717 153.428 80.89 155.933 86.433 155.933C91.976 155.933 97.149 153.428 100.272 149.231L100.332 149.15L100.405 149.219C107.657 156.18 112.033 167.646 112.114 179.891V179.98H112.113ZM58.218 179.802H111.932C111.832 167.677 107.509 156.334 100.352 149.417C97.191 153.61 91.996 156.11 86.432 156.11C80.833 156.11 75.608 153.579 72.452 149.337C72.104 148.868 71.786 148.385 71.505 147.899C63.41 154.526 58.326 166.731 58.218 179.802Z" fill="white"/>
<path d="M86.433 152.979C95.5054 152.979 102.86 145.73 102.86 136.787C102.86 127.844 95.5054 120.595 86.433 120.595C77.3606 120.595 70.006 127.844 70.006 136.787C70.006 145.73 77.3606 152.979 86.433 152.979Z" fill="#304B9C"/>
<path d="M86.433 153.068C77.326 153.068 69.917 145.764 69.917 136.787C69.917 127.808 77.325 120.504 86.433 120.504C95.539 120.504 102.95 127.809 102.95 136.787C102.95 145.764 95.54 153.068 86.433 153.068ZM86.433 120.682C77.424 120.682 70.095 127.907 70.095 136.786C70.095 145.665 77.424 152.89 86.433 152.89C95.441 152.89 102.77 145.665 102.77 136.786C102.77 127.907 95.441 120.682 86.433 120.682Z" fill="white"/>
</svg>
