<svg version="1.1" viewBox="0 0 240 240" xmlns="http://www.w3.org/2000/svg" fill-rule="evenodd" clip-rule="evenodd" stroke-linecap="round" stroke-linejoin="round" stroke-width="0" fill="#ffffff" stroke="#ffffff"><circle fill="#D1F4E8" cx="120" cy="102" r="102"/><path d="M166 64l-26-26H80.001a6.003 6.003 0 0 0-6.003 6.002v113.991A8.002 8.002 0 0 0 82.002 166h77.997a6.002 6.002 0 0 0 6.001-6V64z" stroke="#555" stroke-width="2"/><path fill="#000" d="M96.624 39c.247 1.63.376 3.3.376 5 0 14.368-9.183 26.592-22 31.122V39h21.624z" opacity=".15"/><circle stroke="#555" stroke-width="2" cx="62" cy="42" r="32"/><path fill="#E7EBEE" d="M53 33.002a9 9 0 1 1 18 0v7.996a9 9 0 1 1-18 0v-7.996zm4 1.001v10.994A5.006 5.006 0 0 0 62 50c2.756 0 5-2.24 5-5.003V34.003A5.006 5.006 0 0 0 62 29c-2.756 0-5 2.24-5 5.003z" stroke="#555" stroke-width="2"/><rect fill="#FDC963" stroke="#AB7A2B" stroke-width="2" x="50" y="36" width="24" height="24" rx="12"/><circle fill="#555" cx="62" cy="46" r="3"/><rect fill="#555" x="61" y="46" width="2" height="8" rx="1"/><circle stroke="#555" stroke-width="2" cx="178" cy="158" r="32"/><path fill="#3EC197" stroke="#2B8669" stroke-width="2" d="M164 161l4-4 6 6 16-16 4 4-20 20z"/><path fill="#000" d="M140 41v18.008c0 4.414 3.582 7.992 7.996 7.992H165v-2l-25-24z" opacity=".15"/><path fill="#6E7072" d="M140 38v18.005c0 4.415 3.588 7.995 7.995 7.995H166l-26-26z" stroke="#555" stroke-width="2"/><path fill="none" d="M94 89h40m-40-8h52M94 97h48m-48 8h40m-40 8h52m-52 8h44m-44 14h24" stroke="#ABB8C4" stroke-width="2"/></svg>