<svg width="129" height="176" viewBox="0 0 129 176" fill="none" xmlns="http://www.w3.org/2000/svg">
<path d="M125.013 23.454H3.82495V174.22H125.013V23.454Z" fill="#9DD089"/>
<path d="M128.838 175.281H0V19.718H39.565V26.2401H89.281V19.718H128.838V175.281ZM3.825 171.456H125.014V23.54H93.104V28.1985H35.738V23.54H3.825V171.456Z" fill="#304D9C"/>
<path d="M93.1059 24.5959V28.153H118.766V166.847H10.073V28.153H35.8294V24.5959H7.28503V170.399H121.553V24.5959H93.1059Z" fill="#378A41"/>
<path d="M82.9851 27.6992L49.011 28.1992C36.9851 28.1992 34.155 23.047 34.155 14.857C34.155 6.66399 40.82 0 49.011 0H79.826C88.018 0 94.683 6.66399 94.683 14.857C94.683 23.047 91.1781 27.6992 82.9851 27.6992ZM49.011 6.67798C44.502 6.67798 40.834 10.347 40.834 14.856C40.834 19.365 44.502 23.034 49.011 23.034H79.826C84.335 23.034 88.003 19.365 88.003 14.856C88.003 10.347 84.335 6.67798 79.826 6.67798H49.011Z" fill="#304D9C"/>
<path d="M101.039 55.833C101.039 57.617 99.617 59.063 97.864 59.063H25.131C23.378 59.063 21.955 57.617 21.955 55.833C21.955 54.049 23.377 52.603 25.131 52.603H97.864C99.617 52.602 101.039 54.049 101.039 55.833Z" fill="#F9F9FA"/>
<path d="M101.039 70.355C101.039 72.138 99.617 73.585 97.864 73.585H25.131C23.378 73.585 21.955 72.138 21.955 70.355C21.955 68.57 23.377 67.124 25.131 67.124H97.864C99.617 67.124 101.039 68.57 101.039 70.355Z" fill="#F9F9FA"/>
<path d="M101.039 83.4059C101.039 85.1909 99.617 86.637 97.864 86.637H25.131C23.378 86.637 21.955 85.1909 21.955 83.4059C21.955 81.6219 23.377 80.177 25.131 80.177H97.864C99.617 80.177 101.039 81.6219 101.039 83.4059Z" fill="#F9F9FA"/>
<path d="M71.902 97.928C71.902 99.712 71.005 101.159 69.897 101.159H23.959C22.852 101.159 21.954 99.712 21.954 97.928C21.954 96.144 22.852 94.698 23.959 94.698H69.897C71.006 94.698 71.902 96.144 71.902 97.928Z" fill="#F9F9FA"/>
<path d="M101.039 113.99C101.039 115.774 99.617 117.22 97.864 117.22H25.131C23.378 117.22 21.955 115.774 21.955 113.99C21.955 112.206 23.377 110.76 25.131 110.76H97.864C99.617 110.76 101.039 112.206 101.039 113.99Z" fill="#F9F9FA"/>
<path d="M101.039 128.512C101.039 130.295 99.617 131.742 97.864 131.742H25.131C23.378 131.742 21.955 130.295 21.955 128.512C21.955 126.727 23.377 125.281 25.131 125.281H97.864C99.617 125.281 101.039 126.727 101.039 128.512Z" fill="#F9F9FA"/>
<path d="M101.039 141.563C101.039 143.348 99.617 144.794 97.864 144.794H25.131C23.378 144.794 21.955 143.348 21.955 141.563C21.955 139.779 23.377 138.334 25.131 138.334H97.864C99.617 138.334 101.039 139.779 101.039 141.563Z" fill="#F9F9FA"/>
<path d="M71.902 156.086C71.902 157.87 71.005 159.317 69.897 159.317H23.959C22.852 159.317 21.954 157.87 21.954 156.086C21.954 154.302 22.852 152.856 23.959 152.856H69.897C71.006 152.855 71.902 154.302 71.902 156.086Z" fill="#F9F9FA"/>
<path d="M56.979 99.803L39.158 82.3329C37.825 80.9279 36.369 79.622 36.369 77.814C36.369 75.104 38.915 72.694 42.188 72.694C45.704 72.694 48.007 75.706 50.068 77.814L64.858 92.875L79.649 77.814C81.71 75.706 84.013 72.694 87.529 72.694C90.802 72.694 93.348 75.104 93.348 77.814C93.348 79.622 91.893 80.9269 90.56 82.3329L72.739 99.803L90.56 117.274C91.893 118.679 93.348 119.985 93.348 121.792C93.348 124.503 90.802 126.813 87.529 126.813C84.013 126.813 81.71 123.901 79.649 121.792L64.858 106.731L50.068 121.792C48.007 123.9 45.704 126.813 42.188 126.813C38.915 126.813 36.369 124.503 36.369 121.792C36.369 119.985 37.824 118.68 39.158 117.274L56.979 99.803Z" fill="#7F1717"/>
</svg>
