<svg width="140" height="146" viewBox="0 0 140 146" fill="none" xmlns="http://www.w3.org/2000/svg">
<path d="M138.758 134.04C138.758 139.823 134.157 144.513 128.483 144.513H11.213C5.53798 144.513 0.937988 139.824 0.937988 134.04V11.411C0.937988 5.62699 5.53898 0.937988 11.213 0.937988H128.484C134.159 0.937988 138.759 5.62699 138.759 11.411V134.04H138.758Z" fill="#E4EEBB"/>
<path d="M128.483 145.45H11.213C5.03 145.45 0 140.331 0 134.04V11.411C0 5.119 5.03 0 11.213 0H128.484C134.667 0 139.697 5.119 139.697 11.411V134.04C139.696 140.331 134.666 145.45 128.483 145.45ZM11.213 1.876C6.064 1.876 1.87601 6.154 1.87601 11.412V134.041C1.87601 139.299 6.064 143.576 11.213 143.576H128.484C133.633 143.576 137.821 139.299 137.821 134.041V11.411C137.821 6.153 133.633 1.875 128.484 1.875H11.213V1.876Z" fill="#2F459A"/>
<path d="M51.337 14.554C43.358 14.554 36.89 21.157 36.89 29.301C36.89 37.446 43.358 44.049 51.337 44.049C59.316 44.049 65.784 37.446 65.784 29.301C65.784 21.156 59.317 14.554 51.337 14.554ZM51.337 36.033C47.695 36.033 44.742 33.019 44.742 29.301C44.742 25.584 47.695 22.569 51.337 22.569C54.979 22.569 57.932 25.584 57.932 29.301C57.932 33.019 54.979 36.033 51.337 36.033Z" fill="#78C25D"/>
<path d="M50.577 14.554C42.598 14.554 36.13 21.157 36.13 29.301C36.13 37.446 42.598 44.049 50.577 44.049C58.556 44.049 65.024 37.446 65.024 29.301C65.024 21.156 58.556 14.554 50.577 14.554ZM50.577 36.033C46.934 36.033 43.982 33.019 43.982 29.301C43.982 25.584 46.934 22.569 50.577 22.569C54.22 22.569 57.172 25.584 57.172 29.301C57.172 33.019 54.219 36.033 50.577 36.033Z" fill="#59AD46"/>
<path d="M56.66 81.4082V60.8752C56.66 60.8752 51.253 53.9152 45.17 60.8752V87.8472C45.17 87.8472 43.649 96.1992 52.605 96.1992H78.964C78.964 96.1992 83.357 96.3742 86.23 103.16C89.103 109.947 101.677 135.178 101.677 135.178C101.677 135.178 97.72 140.641 92.144 139.181L76.261 106.815L48.719 106.294C48.719 106.294 35.539 104.554 35.371 89.7632V56.6982C35.371 56.6982 50.071 39.4872 66.293 56.6982V81.2342C66.292 81.2342 60.261 84.4292 56.66 81.4082Z" fill="#84C561"/>
<path d="M54.6321 82.1921V61.6581C54.6321 61.6581 49.2251 54.6981 43.1421 61.6581V88.6301C43.1421 88.6301 41.6211 96.9821 50.5771 96.9821H76.9361C76.9361 96.9821 81.3301 97.1571 84.2021 103.943C87.0741 110.73 99.6481 135.961 99.6481 135.961C99.6481 135.961 95.6921 141.425 90.1151 139.963L74.2321 107.598L46.6901 107.076C46.6901 107.076 33.5101 105.337 33.3411 90.5461V57.4821C33.3411 57.4821 48.0421 40.2711 64.2641 57.4821V82.0181C64.2641 82.0171 58.2331 85.2121 54.6321 82.1921Z" fill="url(#paint0_linear_48:1306)"/>
<path d="M30.4171 113.495L23.0341 125.536C23.0341 125.536 22.8131 127.624 26.7261 127.363C30.6381 127.102 34.4401 116.923 34.4401 116.923L30.4171 113.495Z" fill="#84C561"/>
<path d="M75.402 117.711C72.867 112.839 68.39 113.187 68.39 113.187L49.0421 112.143C26.9071 105.568 27.7511 82.388 27.7511 82.388V44.801C22.2601 39.878 17.951 44.837 17.951 44.837C17.951 44.837 17.951 62.724 17.951 84.649C17.951 99.857 26.6481 110.124 31.9781 114.987L24.2 128.554C24.2 128.554 24.9301 132.861 31.9781 134.035L38.4301 119.549C47.9241 123.775 67.121 123.453 67.121 123.453L72.528 134.59C79.216 136.848 81.4831 130.065 81.4831 130.065C81.4831 130.065 77.936 122.583 75.402 117.711Z" fill="#84C561"/>
<path d="M74.387 117.972C71.852 113.101 67.375 113.449 67.375 113.449L48.027 112.406C25.892 105.83 26.736 82.649 26.736 82.649V45.062C21.244 40.139 16.936 45.098 16.936 45.098C16.936 45.098 16.936 62.985 16.936 84.911C16.936 100.119 25.633 110.385 30.963 115.25L23.185 128.816C23.185 128.816 23.915 133.123 30.963 134.297L37.415 119.811C46.909 124.037 66.106 123.714 66.106 123.714L71.513 134.851C78.201 137.109 80.468 130.328 80.468 130.328C80.468 130.328 76.922 122.845 74.387 117.972Z" fill="#59AD46"/>
<path d="M101.676 4.81104C88.4261 4.81104 77.6851 15.775 77.6851 29.301C77.6851 42.827 88.4261 53.791 101.676 53.791C114.926 53.791 125.667 42.826 125.667 29.301C125.667 15.776 114.926 4.81104 101.676 4.81104ZM101.676 47.962C91.5791 47.962 83.3951 39.607 83.3951 29.301C83.3951 18.996 91.5791 10.64 101.676 10.64C111.772 10.64 119.957 18.995 119.957 29.301C119.957 39.607 111.772 47.962 101.676 47.962Z" fill="#5D7ABC"/>
<path d="M103.238 4.81104C89.989 4.81104 79.248 15.775 79.248 29.301C79.248 42.827 89.989 53.791 103.238 53.791C116.488 53.791 127.23 42.826 127.23 29.301C127.23 15.776 116.489 4.81104 103.238 4.81104ZM103.238 47.962C93.142 47.962 84.958 39.607 84.958 29.301C84.958 18.996 93.142 10.64 103.238 10.64C113.335 10.64 121.519 18.995 121.519 29.301C121.52 39.607 113.335 47.962 103.238 47.962Z" fill="#2D499F"/>
<path d="M102.424 13.793H100.928V26.942H102.424V13.793Z" fill="#416DB5"/>
<path d="M101.676 30.0191L102.451 28.7021L112.156 34.7551L111.382 36.0732L101.676 30.0191Z" fill="#242661"/>
<path d="M101.676 32.25C103.361 32.25 104.726 30.9297 104.726 29.3011C104.726 27.6724 103.361 26.3521 101.676 26.3521C99.9916 26.3521 98.626 27.6724 98.626 29.3011C98.626 30.9297 99.9916 32.25 101.676 32.25Z" fill="#2D499F"/>
<defs>
<linearGradient id="paint0_linear_48:1306" x1="14.4167" y1="95.0207" x2="80.7239" y2="95.0207" gradientUnits="userSpaceOnUse">
<stop stop-color="white"/>
<stop offset="0.6108" stop-color="#6FBE46"/>
</linearGradient>
</defs>
</svg>
