<svg width="120" height="129" viewBox="0 0 120 129" fill="none" xmlns="http://www.w3.org/2000/svg">
<path d="M117.658 16.139H56.405V112.153H117.658V16.139Z" fill="#5AAB46"/>
<path d="M119.014 113.508H55.049V14.781H119.015V113.508H119.014ZM57.763 110.795H116.301V17.495H57.763V110.795Z" fill="#FDFEFF"/>
<path d="M111.424 42.3839C111.424 43.9869 110.125 45.2849 108.524 45.2849H42.772C41.169 45.2849 39.871 43.9859 39.871 42.3839C39.871 40.7809 41.17 39.4829 42.772 39.4829H108.524C110.125 39.4819 111.424 40.7809 111.424 42.3839Z" fill="#304B9C"/>
<path d="M108.523 46.0989H42.771C40.723 46.0989 39.056 44.4319 39.056 42.3839C39.056 40.3359 40.723 38.6689 42.771 38.6689H108.523C110.571 38.6689 112.237 40.3359 112.237 42.3839C112.237 44.4319 110.571 46.0989 108.523 46.0989ZM42.771 40.2969C41.62 40.2969 40.684 41.2329 40.684 42.3839C40.684 43.5339 41.62 44.4709 42.771 44.4709H108.523C109.673 44.4709 110.609 43.5339 110.609 42.3839C110.609 41.2329 109.673 40.2969 108.523 40.2969H42.771Z" fill="#FDFEFF"/>
<path d="M111.424 53.021C111.424 54.623 110.125 55.92 108.524 55.92H42.772C41.169 55.92 39.871 54.622 39.871 53.021C39.871 51.418 41.17 50.12 42.772 50.12H108.524C110.125 50.119 111.424 51.418 111.424 53.021Z" fill="#304B9C"/>
<path d="M108.523 56.734H42.771C40.723 56.734 39.056 55.068 39.056 53.02C39.056 50.972 40.723 49.304 42.771 49.304H108.523C110.571 49.304 112.237 50.972 112.237 53.02C112.237 55.068 110.571 56.734 108.523 56.734ZM42.771 50.934C41.62 50.934 40.684 51.87 40.684 53.021C40.684 54.17 41.62 55.107 42.771 55.107H108.523C109.673 55.107 110.609 54.17 110.609 53.021C110.609 51.87 109.673 50.934 108.523 50.934H42.771Z" fill="#FDFEFF"/>
<path d="M111.424 64.6229C111.424 66.2249 110.125 67.5229 108.524 67.5229H42.772C41.169 67.5229 39.871 66.2239 39.871 64.6229C39.871 63.0209 41.17 61.7229 42.772 61.7229H108.524C110.125 61.7229 111.424 63.0209 111.424 64.6229Z" fill="#304B9C"/>
<path d="M108.523 68.338H42.771C40.723 68.338 39.056 66.672 39.056 64.623C39.056 62.575 40.723 60.908 42.771 60.908H108.523C110.571 60.908 112.237 62.575 112.237 64.623C112.237 66.672 110.571 68.338 108.523 68.338ZM42.771 62.537C41.62 62.537 40.684 63.473 40.684 64.623C40.684 65.773 41.62 66.709 42.771 66.709H108.523C109.673 66.709 110.609 65.773 110.609 64.623C110.609 63.473 109.673 62.537 108.523 62.537H42.771Z" fill="#FDFEFF"/>
<path d="M111.424 75.2599C111.424 76.8619 110.125 78.1599 108.524 78.1599H42.772C41.169 78.1599 39.871 76.8609 39.871 75.2599C39.871 73.6579 41.17 72.3599 42.772 72.3599H108.524C110.125 72.3589 111.424 73.6579 111.424 75.2599Z" fill="#304B9C"/>
<path d="M108.523 78.9749H42.771C40.723 78.9749 39.056 77.3089 39.056 75.2599C39.056 73.2119 40.723 71.5449 42.771 71.5449H108.523C110.571 71.5449 112.237 73.2119 112.237 75.2599C112.237 77.3089 110.571 78.9749 108.523 78.9749ZM42.771 73.1739C41.62 73.1739 40.684 74.1099 40.684 75.2599C40.684 76.4099 41.62 77.3459 42.771 77.3459H108.523C109.673 77.3459 110.609 76.4099 110.609 75.2599C110.609 74.1099 109.673 73.1739 108.523 73.1739H42.771Z" fill="#FDFEFF"/>
<path d="M111.424 85.8959C111.424 87.4979 110.125 88.7959 108.524 88.7959H42.772C41.169 88.7959 39.871 87.4969 39.871 85.8959C39.871 84.2929 41.17 82.9939 42.772 82.9939H108.524C110.125 82.9939 111.424 84.2939 111.424 85.8959Z" fill="#304B9C"/>
<path d="M108.523 89.6109H42.771C40.723 89.6109 39.056 87.9429 39.056 85.8959C39.056 83.8469 40.723 82.1799 42.771 82.1799H108.523C110.571 82.1799 112.237 83.8469 112.237 85.8959C112.237 87.9429 110.571 89.6109 108.523 89.6109ZM42.771 83.8089C41.62 83.8089 40.684 84.7459 40.684 85.8969C40.684 87.0469 41.62 87.9829 42.771 87.9829H108.523C109.673 87.9829 110.609 87.0469 110.609 85.8969C110.609 84.7459 109.673 83.8089 108.523 83.8089H42.771Z" fill="#FDFEFF"/>
<path d="M0.815002 9.64502L64.121 0.994019V127.283L0.815002 117.768V9.64502Z" fill="#304B9C"/>
<path d="M64.934 128.229L0 118.469V8.93399L64.934 0.0629883V128.229ZM1.63 117.066L63.308 126.337V1.92798L1.63 10.356V117.066Z" fill="#FDFEFF"/>
<path d="M55.8 46.531L55.569 46.738C54.847 46.769 54.431 46.793 54.324 46.807C53.817 46.9 53.44 47.072 53.195 47.326C52.949 47.58 52.734 47.969 52.549 48.49C52.181 49.505 51.496 51.779 50.498 55.314C49.99 57.097 49.275 59.771 48.353 63.337L46.279 71.314C45.418 74.603 44.933 76.709 44.826 77.63H41.299L40.123 74.448C38.172 69.192 36.373 64.489 34.728 60.339L33.414 57.042C33.123 56.29 32.822 55.49 32.516 54.646L26.498 68.916C25.898 70.33 25.061 72.391 23.986 75.095L22.97 77.631H19.605L13.9109 51.188C13.6189 49.836 13.404 48.952 13.265 48.538C12.957 47.569 12.519 47.024 11.951 46.901C11.689 46.839 11.09 46.778 10.153 46.715L9.92297 46.508V45.056L10.176 44.802C12.897 44.895 14.956 44.941 16.355 44.941C18.014 44.941 20.443 44.895 23.639 44.802L23.893 45.033V46.508L23.663 46.715C22.617 46.762 22.025 46.793 21.888 46.808C21.304 46.87 20.92 46.989 20.735 47.165C20.551 47.342 20.46 47.623 20.46 48.006C20.46 48.36 20.6059 49.32 20.8979 50.889L21.681 55.108C21.911 56.322 22.32 58.282 22.904 60.987L24.263 67.234L27.168 60.249C27.752 58.866 28.628 56.783 29.796 54.001L32.517 47.408C33.025 46.194 33.423 45.187 33.716 44.387H35.837C37.403 48.814 40.323 56.329 44.597 66.934L48.677 50.588C48.986 49.282 49.139 48.468 49.139 48.145C49.139 47.454 48.778 47.054 48.056 46.946C47.794 46.901 46.972 46.831 45.589 46.739L45.358 46.509V45.057L45.612 44.803C48.256 44.911 49.793 44.956 50.222 44.942L55.571 44.803L55.802 45.034V46.531H55.8Z" fill="#F7F8F9"/>
</svg>
